M48
; DRILL file {KiCad (6.0.4-0)} date 
; FORMAT={-:-/ absolute / metric / decimal}
; #@! TF.CreationDate,2022-11-05T11:58:56+09:00
; #@! TF.GenerationSoftware,Kicad,Pcbnew,(6.0.4-0)
; #@! TF.FileFunction,MixedPlating,1,2
FMAT,2
METRIC
; #@! TA.AperFunction,Plated,PTH,ViaDrill
T1C0.400
; #@! TA.AperFunction,Plated,PTH,ComponentDrill
T2C0.800
; #@! TA.AperFunction,Plated,PTH,ComponentDrill
T3C1.000
; #@! TA.AperFunction,NonPlated,NPTH,ComponentDrill
T4C3.200
%
G90
G05
T1
X86.415Y-78.596
X86.436Y-79.955
X87.936Y-81.988
X89.559Y-65.461
X89.886Y-95.859
X90.448Y-85.433
X91.105Y-93.859
X91.505Y-89.8
X91.969Y-91.451
X92.019Y-92.901
X100.687Y-65.461
T2
X57.205Y-54.5
X59.705Y-54.5
X63.5Y-67.92
X63.5Y-78.08
X68.0Y-67.92
X68.0Y-78.08
X72.0Y-67.92
X72.0Y-78.08
X77.2Y-68.375
X77.2Y-70.915
X77.2Y-73.455
X77.2Y-75.995
X77.2Y-78.535
X77.2Y-81.075
X77.2Y-83.615
X82.5Y-65.5
X84.82Y-68.375
X84.82Y-70.915
X84.82Y-73.455
X84.82Y-75.995
X84.82Y-78.535
X84.82Y-81.075
X84.82Y-83.615
X85.0Y-65.5
X115.2Y-68.875
X115.2Y-71.415
X115.2Y-73.955
X115.2Y-76.495
X115.2Y-79.035
X115.2Y-81.575
X115.2Y-84.115
X120.75Y-66.0
X122.82Y-68.875
X122.82Y-71.415
X122.82Y-73.955
X122.82Y-76.495
X122.82Y-79.035
X122.82Y-81.575
X122.82Y-84.115
X123.25Y-66.0
X139.0Y-101.295
X139.0Y-103.795
T3
X69.525Y-50.46
X69.525Y-53.0
X72.065Y-50.46
X72.065Y-53.0
X74.605Y-50.46
X74.605Y-53.0
X75.865Y-101.35
X75.865Y-103.89
X77.145Y-50.46
X77.145Y-53.0
X78.405Y-101.35
X78.405Y-103.89
X79.685Y-50.46
X79.685Y-53.0
X80.945Y-101.35
X80.945Y-103.89
X82.225Y-50.46
X82.225Y-53.0
X83.485Y-101.35
X83.485Y-103.89
X84.765Y-50.46
X84.765Y-53.0
X86.025Y-101.35
X86.025Y-103.89
X87.305Y-50.46
X87.305Y-53.0
X88.565Y-101.35
X88.565Y-103.89
X89.845Y-50.46
X89.845Y-53.0
X91.105Y-101.35
X91.105Y-103.89
X92.385Y-50.46
X92.385Y-53.0
X93.645Y-101.35
X93.645Y-103.89
X94.925Y-50.46
X94.925Y-53.0
X96.185Y-101.35
X96.185Y-103.89
X97.465Y-50.46
X97.465Y-53.0
X98.725Y-101.35
X98.725Y-103.89
X100.005Y-50.46
X100.005Y-53.0
X101.265Y-101.35
X101.265Y-103.89
X102.545Y-50.46
X102.545Y-53.0
X103.805Y-101.35
X103.805Y-103.89
X105.085Y-50.46
X105.085Y-53.0
X106.345Y-101.35
X106.345Y-103.89
X107.625Y-50.46
X107.625Y-53.0
X108.885Y-101.35
X108.885Y-103.89
X110.165Y-50.46
X110.165Y-53.0
X111.425Y-101.35
X111.425Y-103.89
X112.705Y-50.46
X112.705Y-53.0
X113.965Y-101.35
X113.965Y-103.89
X115.245Y-50.46
X115.245Y-53.0
X116.505Y-101.35
X116.505Y-103.89
X117.785Y-50.46
X117.785Y-53.0
X119.045Y-101.35
X119.045Y-103.89
X120.325Y-50.46
X120.325Y-53.0
X121.585Y-101.35
X121.585Y-103.89
X122.865Y-50.46
X122.865Y-53.0
X124.125Y-101.35
X124.125Y-103.89
X125.405Y-50.46
X125.405Y-53.0
X127.945Y-50.46
X127.945Y-53.0
X130.485Y-50.46
X130.485Y-53.0
T4
X55.5Y-44.5
X55.5Y-110.5
X144.5Y-44.5
X144.5Y-110.5
T0
M30
