G04 #@! TF.GenerationSoftware,KiCad,Pcbnew,(6.0.4-0)*
G04 #@! TF.CreationDate,2022-11-05T11:58:52+09:00*
G04 #@! TF.ProjectId,PC8001toSBC8080BUS,50433830-3031-4746-9f53-424338303830,rev?*
G04 #@! TF.SameCoordinates,Original*
G04 #@! TF.FileFunction,Copper,L2,Bot*
G04 #@! TF.FilePolarity,Positive*
%FSLAX46Y46*%
G04 Gerber Fmt 4.6, Leading zero omitted, Abs format (unit mm)*
G04 Created by KiCad (PCBNEW (6.0.4-0)) date 2022-11-05 11:58:52*
%MOMM*%
%LPD*%
G01*
G04 APERTURE LIST*
G04 #@! TA.AperFunction,ComponentPad*
%ADD10R,1.600000X1.600000*%
G04 #@! TD*
G04 #@! TA.AperFunction,ComponentPad*
%ADD11O,1.600000X1.600000*%
G04 #@! TD*
G04 #@! TA.AperFunction,ComponentPad*
%ADD12C,1.600000*%
G04 #@! TD*
G04 #@! TA.AperFunction,ComponentPad*
%ADD13R,1.700000X1.700000*%
G04 #@! TD*
G04 #@! TA.AperFunction,ComponentPad*
%ADD14O,1.700000X1.700000*%
G04 #@! TD*
G04 #@! TA.AperFunction,ViaPad*
%ADD15C,0.800000*%
G04 #@! TD*
G04 #@! TA.AperFunction,Conductor*
%ADD16C,0.250000*%
G04 #@! TD*
G04 #@! TA.AperFunction,Conductor*
%ADD17C,0.600000*%
G04 #@! TD*
G04 APERTURE END LIST*
D10*
X115200000Y-68875000D03*
D11*
X115200000Y-71415000D03*
X115200000Y-73955000D03*
X115200000Y-76495000D03*
X115200000Y-79035000D03*
X115200000Y-81575000D03*
X115200000Y-84115000D03*
X122820000Y-84115000D03*
X122820000Y-81575000D03*
X122820000Y-79035000D03*
X122820000Y-76495000D03*
X122820000Y-73955000D03*
X122820000Y-71415000D03*
X122820000Y-68875000D03*
X84820000Y-68375000D03*
X84820000Y-70915000D03*
X84820000Y-73455000D03*
X84820000Y-75995000D03*
X84820000Y-78535000D03*
X84820000Y-81075000D03*
X84820000Y-83615000D03*
X77200000Y-83615000D03*
X77200000Y-81075000D03*
X77200000Y-78535000D03*
X77200000Y-75995000D03*
X77200000Y-73455000D03*
X77200000Y-70915000D03*
D10*
X77200000Y-68375000D03*
D12*
X63500000Y-78080000D03*
D11*
X63500000Y-67920000D03*
D12*
X72000000Y-67920000D03*
D11*
X72000000Y-78080000D03*
D12*
X68000000Y-78080000D03*
D11*
X68000000Y-67920000D03*
D13*
X69525000Y-53000000D03*
D14*
X69525000Y-50460000D03*
X72065000Y-53000000D03*
X72065000Y-50460000D03*
X74605000Y-53000000D03*
X74605000Y-50460000D03*
X77145000Y-53000000D03*
X77145000Y-50460000D03*
X79685000Y-53000000D03*
X79685000Y-50460000D03*
X82225000Y-53000000D03*
X82225000Y-50460000D03*
X84765000Y-53000000D03*
X84765000Y-50460000D03*
X87305000Y-53000000D03*
X87305000Y-50460000D03*
X89845000Y-53000000D03*
X89845000Y-50460000D03*
X92385000Y-53000000D03*
X92385000Y-50460000D03*
X94925000Y-53000000D03*
X94925000Y-50460000D03*
X97465000Y-53000000D03*
X97465000Y-50460000D03*
X100005000Y-53000000D03*
X100005000Y-50460000D03*
X102545000Y-53000000D03*
X102545000Y-50460000D03*
X105085000Y-53000000D03*
X105085000Y-50460000D03*
X107625000Y-53000000D03*
X107625000Y-50460000D03*
X110165000Y-53000000D03*
X110165000Y-50460000D03*
X112705000Y-53000000D03*
X112705000Y-50460000D03*
X115245000Y-53000000D03*
X115245000Y-50460000D03*
X117785000Y-53000000D03*
X117785000Y-50460000D03*
X120325000Y-53000000D03*
X120325000Y-50460000D03*
X122865000Y-53000000D03*
X122865000Y-50460000D03*
X125405000Y-53000000D03*
X125405000Y-50460000D03*
X127945000Y-53000000D03*
X127945000Y-50460000D03*
X130485000Y-53000000D03*
X130485000Y-50460000D03*
D13*
X124125000Y-101350000D03*
D14*
X124125000Y-103890000D03*
X121585000Y-101350000D03*
X121585000Y-103890000D03*
X119045000Y-101350000D03*
X119045000Y-103890000D03*
X116505000Y-101350000D03*
X116505000Y-103890000D03*
X113965000Y-101350000D03*
X113965000Y-103890000D03*
X111425000Y-101350000D03*
X111425000Y-103890000D03*
X108885000Y-101350000D03*
X108885000Y-103890000D03*
X106345000Y-101350000D03*
X106345000Y-103890000D03*
X103805000Y-101350000D03*
X103805000Y-103890000D03*
X101265000Y-101350000D03*
X101265000Y-103890000D03*
X98725000Y-101350000D03*
X98725000Y-103890000D03*
X96185000Y-101350000D03*
X96185000Y-103890000D03*
X93645000Y-101350000D03*
X93645000Y-103890000D03*
X91105000Y-101350000D03*
X91105000Y-103890000D03*
X88565000Y-101350000D03*
X88565000Y-103890000D03*
X86025000Y-101350000D03*
X86025000Y-103890000D03*
X83485000Y-101350000D03*
X83485000Y-103890000D03*
X80945000Y-101350000D03*
X80945000Y-103890000D03*
X78405000Y-101350000D03*
X78405000Y-103890000D03*
X75865000Y-101350000D03*
X75865000Y-103890000D03*
D10*
X59705100Y-54500000D03*
D12*
X57205100Y-54500000D03*
D10*
X139000000Y-101294900D03*
D12*
X139000000Y-103794900D03*
X123250000Y-66000000D03*
X120750000Y-66000000D03*
X85000000Y-65500000D03*
X82500000Y-65500000D03*
D15*
X92019000Y-92901400D03*
X89559000Y-65460900D03*
X100687300Y-65460900D03*
X89885600Y-95859000D03*
X91105000Y-93859500D03*
X91969000Y-91450700D03*
X91505000Y-89799600D03*
X90448300Y-85432700D03*
X87936400Y-81988000D03*
X86415000Y-78596200D03*
X86436400Y-79954800D03*
D16*
X115903400Y-70289700D02*
X115200000Y-70289700D01*
X116325300Y-69867800D02*
X115903400Y-70289700D01*
X116325300Y-58175000D02*
X116325300Y-69867800D01*
X120325000Y-54175300D02*
X116325300Y-58175000D01*
X120325000Y-53000000D02*
X120325000Y-54175300D01*
X115200000Y-71415000D02*
X115200000Y-70289700D01*
X115200000Y-54220300D02*
X115200000Y-68875000D01*
X115245000Y-54175300D02*
X115200000Y-54220300D01*
X115245000Y-53000000D02*
X115245000Y-54175300D01*
X76918600Y-72329700D02*
X77200000Y-72329700D01*
X76074700Y-71485800D02*
X76918600Y-72329700D01*
X76074700Y-55748900D02*
X76074700Y-71485800D01*
X78325400Y-53498200D02*
X76074700Y-55748900D01*
X78325400Y-52695200D02*
X78325400Y-53498200D01*
X79290600Y-51730000D02*
X78325400Y-52695200D01*
X80079200Y-51730000D02*
X79290600Y-51730000D01*
X81049600Y-50759600D02*
X80079200Y-51730000D01*
X81049600Y-49925800D02*
X81049600Y-50759600D01*
X82668400Y-48307000D02*
X81049600Y-49925800D01*
X109744000Y-48307000D02*
X82668400Y-48307000D01*
X111529700Y-50092700D02*
X109744000Y-48307000D01*
X111529700Y-50460000D02*
X111529700Y-50092700D01*
X112705000Y-50460000D02*
X111529700Y-50460000D01*
X77200000Y-73455000D02*
X77200000Y-72329700D01*
X84765000Y-50460000D02*
X83589700Y-50460000D01*
X77200000Y-70915000D02*
X77200000Y-69789700D01*
X77903300Y-69789700D02*
X77200000Y-69789700D01*
X81049700Y-66643300D02*
X77903300Y-69789700D01*
X81049700Y-52510500D02*
X81049700Y-66643300D01*
X81924900Y-51635300D02*
X81049700Y-52510500D01*
X82781800Y-51635300D02*
X81924900Y-51635300D01*
X83589700Y-50827400D02*
X82781800Y-51635300D01*
X83589700Y-50460000D02*
X83589700Y-50827400D01*
X75865000Y-103890000D02*
X77040300Y-103890000D01*
X110165000Y-50460000D02*
X110165000Y-51635300D01*
X77040300Y-104257300D02*
X77040300Y-103890000D01*
X78363600Y-105580600D02*
X77040300Y-104257300D01*
X91086900Y-105580600D02*
X78363600Y-105580600D01*
X92392900Y-104274600D02*
X91086900Y-105580600D01*
X92392900Y-103391900D02*
X92392900Y-104274600D01*
X93259400Y-102525400D02*
X92392900Y-103391900D01*
X94170600Y-102525400D02*
X93259400Y-102525400D01*
X94915000Y-101781000D02*
X94170600Y-102525400D01*
X94915000Y-99911100D02*
X94915000Y-101781000D01*
X111340300Y-83485800D02*
X94915000Y-99911100D01*
X111340300Y-52443200D02*
X111340300Y-83485800D01*
X110532400Y-51635300D02*
X111340300Y-52443200D01*
X110165000Y-51635300D02*
X110532400Y-51635300D01*
X75865000Y-101350000D02*
X75865000Y-100174700D01*
X107625000Y-50460000D02*
X106449700Y-50460000D01*
X106449700Y-50092700D02*
X106449700Y-50460000D01*
X105144300Y-48787300D02*
X106449700Y-50092700D01*
X89778800Y-48787300D02*
X105144300Y-48787300D01*
X88575000Y-49991100D02*
X89778800Y-48787300D01*
X88575000Y-50891000D02*
X88575000Y-49991100D01*
X87830600Y-51635400D02*
X88575000Y-50891000D01*
X86968600Y-51635400D02*
X87830600Y-51635400D01*
X86129600Y-52474400D02*
X86968600Y-51635400D01*
X86129600Y-54420200D02*
X86129600Y-52474400D01*
X87636400Y-55927000D02*
X86129600Y-54420200D01*
X87636400Y-81238300D02*
X87636400Y-55927000D01*
X87023700Y-81851000D02*
X87636400Y-81238300D01*
X87023700Y-88379100D02*
X87023700Y-81851000D01*
X75865000Y-99537800D02*
X87023700Y-88379100D01*
X75865000Y-100174700D02*
X75865000Y-99537800D01*
X103909700Y-50827400D02*
X103909700Y-50460000D01*
X103101800Y-51635300D02*
X103909700Y-50827400D01*
X102208700Y-51635300D02*
X103101800Y-51635300D01*
X101369600Y-52474400D02*
X102208700Y-51635300D01*
X101369600Y-53700900D02*
X101369600Y-52474400D01*
X101412700Y-53744000D02*
X101369600Y-53700900D01*
X101412700Y-85994700D02*
X101412700Y-53744000D01*
X87295000Y-100112400D02*
X101412700Y-85994700D01*
X87295000Y-101781000D02*
X87295000Y-100112400D01*
X86550600Y-102525400D02*
X87295000Y-101781000D01*
X85705400Y-102525400D02*
X86550600Y-102525400D01*
X84788400Y-103442400D02*
X85705400Y-102525400D01*
X84788400Y-104272600D02*
X84788400Y-103442400D01*
X83982300Y-105078700D02*
X84788400Y-104272600D01*
X80401700Y-105078700D02*
X83982300Y-105078700D01*
X79580300Y-104257300D02*
X80401700Y-105078700D01*
X79580300Y-103890000D02*
X79580300Y-104257300D01*
X78405000Y-103890000D02*
X79580300Y-103890000D01*
X105085000Y-50460000D02*
X103909700Y-50460000D01*
X78405000Y-101350000D02*
X78405000Y-100174700D01*
X102545000Y-50460000D02*
X101369700Y-50460000D01*
X78405000Y-97815400D02*
X78405000Y-100174700D01*
X88669600Y-87550800D02*
X78405000Y-97815400D01*
X88669600Y-52511500D02*
X88669600Y-87550800D01*
X89356500Y-51824600D02*
X88669600Y-52511500D01*
X90163300Y-51824600D02*
X89356500Y-51824600D01*
X91115000Y-50872900D02*
X90163300Y-51824600D01*
X91115000Y-50062100D02*
X91115000Y-50872900D01*
X91892400Y-49284700D02*
X91115000Y-50062100D01*
X100561800Y-49284700D02*
X91892400Y-49284700D01*
X101369700Y-50092600D02*
X100561800Y-49284700D01*
X101369700Y-50460000D02*
X101369700Y-50092600D01*
X100005000Y-50460000D02*
X100005000Y-51635300D01*
X92181000Y-92901400D02*
X92019000Y-92901400D01*
X98829700Y-86252700D02*
X92181000Y-92901400D01*
X98829700Y-52443200D02*
X98829700Y-86252700D01*
X99637600Y-51635300D02*
X98829700Y-52443200D01*
X100005000Y-51635300D02*
X99637600Y-51635300D01*
X89559000Y-88670800D02*
X89559000Y-65460900D01*
X80945000Y-97284800D02*
X89559000Y-88670800D01*
X80945000Y-101350000D02*
X80945000Y-97284800D01*
X94557600Y-51635300D02*
X94925000Y-51635300D01*
X93749700Y-52443200D02*
X94557600Y-51635300D01*
X93749700Y-88580900D02*
X93749700Y-52443200D01*
X84660300Y-97670300D02*
X93749700Y-88580900D01*
X84660300Y-101906800D02*
X84660300Y-97670300D01*
X83852400Y-102714700D02*
X84660300Y-101906800D01*
X83485000Y-102714700D02*
X83852400Y-102714700D01*
X83485000Y-103890000D02*
X83485000Y-102714700D01*
X94925000Y-50460000D02*
X94925000Y-51635300D01*
X92385000Y-50460000D02*
X92385000Y-51635300D01*
X92017600Y-51635300D02*
X92385000Y-51635300D01*
X91209700Y-52443200D02*
X92017600Y-51635300D01*
X91209700Y-87733800D02*
X91209700Y-52443200D01*
X83485000Y-95458500D02*
X91209700Y-87733800D01*
X83485000Y-101350000D02*
X83485000Y-95458500D01*
X110165000Y-83122500D02*
X110165000Y-54175300D01*
X92375000Y-100912500D02*
X110165000Y-83122500D01*
X92375000Y-101781000D02*
X92375000Y-100912500D01*
X91630600Y-102525400D02*
X92375000Y-101781000D01*
X90785400Y-102525400D02*
X91630600Y-102525400D01*
X89868400Y-103442400D02*
X90785400Y-102525400D01*
X89868400Y-104253000D02*
X89868400Y-103442400D01*
X89019300Y-105102100D02*
X89868400Y-104253000D01*
X88045100Y-105102100D02*
X89019300Y-105102100D01*
X87200300Y-104257300D02*
X88045100Y-105102100D01*
X87200300Y-103890000D02*
X87200300Y-104257300D01*
X86025000Y-103890000D02*
X87200300Y-103890000D01*
X110165000Y-53000000D02*
X110165000Y-54175300D01*
X86025000Y-101350000D02*
X86025000Y-100174700D01*
X86595800Y-100174700D02*
X86025000Y-100174700D01*
X100687300Y-86083200D02*
X86595800Y-100174700D01*
X100687300Y-65460900D02*
X100687300Y-86083200D01*
X88565000Y-103890000D02*
X88565000Y-102714700D01*
X105085000Y-53000000D02*
X105085000Y-54175300D01*
X105085000Y-83596200D02*
X105085000Y-54175300D01*
X89874700Y-98806500D02*
X105085000Y-83596200D01*
X89874700Y-101772400D02*
X89874700Y-98806500D01*
X88932400Y-102714700D02*
X89874700Y-101772400D01*
X88565000Y-102714700D02*
X88932400Y-102714700D01*
X102545000Y-85499300D02*
X102545000Y-53000000D01*
X88565000Y-99479300D02*
X102545000Y-85499300D01*
X88565000Y-101350000D02*
X88565000Y-99479300D01*
X100005000Y-53000000D02*
X100005000Y-54175300D01*
X90160400Y-95859000D02*
X89885600Y-95859000D01*
X99962000Y-86057400D02*
X90160400Y-95859000D01*
X99962000Y-54218300D02*
X99962000Y-86057400D01*
X100005000Y-54175300D02*
X99962000Y-54218300D01*
X97465000Y-53000000D02*
X97465000Y-54175300D01*
X91105000Y-92766600D02*
X91105000Y-93859500D01*
X91695600Y-92176000D02*
X91105000Y-92766600D01*
X92269500Y-92176000D02*
X91695600Y-92176000D01*
X97465000Y-86980500D02*
X92269500Y-92176000D01*
X97465000Y-54175300D02*
X97465000Y-86980500D01*
X94925000Y-88494700D02*
X91969000Y-91450700D01*
X94925000Y-53000000D02*
X94925000Y-88494700D01*
X92385000Y-88919600D02*
X91505000Y-89799600D01*
X92385000Y-53000000D02*
X92385000Y-88919600D01*
X107615000Y-100445300D02*
X122820000Y-85240300D01*
X107615000Y-101781000D02*
X107615000Y-100445300D01*
X106870600Y-102525400D02*
X107615000Y-101781000D01*
X106045400Y-102525400D02*
X106870600Y-102525400D01*
X104980300Y-103590500D02*
X106045400Y-102525400D01*
X104980300Y-104377000D02*
X104980300Y-103590500D01*
X104265200Y-105092100D02*
X104980300Y-104377000D01*
X103275100Y-105092100D02*
X104265200Y-105092100D01*
X102440300Y-104257300D02*
X103275100Y-105092100D01*
X102440300Y-103890000D02*
X102440300Y-104257300D01*
X101265000Y-103890000D02*
X102440300Y-103890000D01*
X122820000Y-84115000D02*
X122820000Y-85240300D01*
X114918700Y-75080300D02*
X115200000Y-75080300D01*
X113196300Y-76802700D02*
X114918700Y-75080300D01*
X113196300Y-88243400D02*
X113196300Y-76802700D01*
X101265000Y-100174700D02*
X113196300Y-88243400D01*
X101265000Y-101350000D02*
X101265000Y-100174700D01*
X115200000Y-73955000D02*
X115200000Y-75080300D01*
X122643200Y-77620300D02*
X122820000Y-77620300D01*
X120241300Y-80022200D02*
X122643200Y-77620300D01*
X120241300Y-85778800D02*
X120241300Y-80022200D01*
X104980300Y-101039800D02*
X120241300Y-85778800D01*
X104980300Y-101906800D02*
X104980300Y-101039800D01*
X104172400Y-102714700D02*
X104980300Y-101906800D01*
X103805000Y-102714700D02*
X104172400Y-102714700D01*
X103805000Y-103890000D02*
X103805000Y-102714700D01*
X122820000Y-76495000D02*
X122820000Y-77620300D01*
X114918600Y-82700300D02*
X115200000Y-82700300D01*
X114074700Y-83544200D02*
X114918600Y-82700300D01*
X114074700Y-89905000D02*
X114074700Y-83544200D01*
X103805000Y-100174700D02*
X114074700Y-89905000D01*
X103805000Y-101350000D02*
X103805000Y-100174700D01*
X115200000Y-81575000D02*
X115200000Y-82700300D01*
X89845000Y-53000000D02*
X89845000Y-54175300D01*
X90448300Y-54778600D02*
X90448300Y-85432700D01*
X89845000Y-54175300D02*
X90448300Y-54778600D01*
X87305000Y-53000000D02*
X87305000Y-54175300D01*
X88112000Y-54982300D02*
X87305000Y-54175300D01*
X88112000Y-81812400D02*
X88112000Y-54982300D01*
X87936400Y-81988000D02*
X88112000Y-81812400D01*
X108885000Y-103890000D02*
X107709700Y-103890000D01*
X84765000Y-53000000D02*
X84765000Y-54175300D01*
X87161800Y-56572100D02*
X84765000Y-54175300D01*
X87161800Y-80480500D02*
X87161800Y-56572100D01*
X86573300Y-81069000D02*
X87161800Y-80480500D01*
X86573300Y-87694000D02*
X86573300Y-81069000D01*
X74689400Y-99577900D02*
X86573300Y-87694000D01*
X74689400Y-104392100D02*
X74689400Y-99577900D01*
X76328300Y-106031000D02*
X74689400Y-104392100D01*
X105936000Y-106031000D02*
X76328300Y-106031000D01*
X107709700Y-104257300D02*
X105936000Y-106031000D01*
X107709700Y-103890000D02*
X107709700Y-104257300D01*
X82225000Y-53000000D02*
X82225000Y-54175300D01*
X86415000Y-58365300D02*
X86415000Y-78596200D01*
X82225000Y-54175300D02*
X86415000Y-58365300D01*
X111425000Y-101350000D02*
X112600300Y-101350000D01*
X77145000Y-53000000D02*
X75969700Y-53000000D01*
X112600300Y-100982700D02*
X112600300Y-101350000D01*
X113419900Y-100163100D02*
X112600300Y-100982700D01*
X114500600Y-100163100D02*
X113419900Y-100163100D01*
X115145100Y-100807600D02*
X114500600Y-100163100D01*
X115145100Y-104408800D02*
X115145100Y-100807600D01*
X112593400Y-106960500D02*
X115145100Y-104408800D01*
X75854200Y-106960500D02*
X112593400Y-106960500D01*
X70849900Y-101956200D02*
X75854200Y-106960500D01*
X70849900Y-52552900D02*
X70849900Y-101956200D01*
X71578100Y-51824700D02*
X70849900Y-52552900D01*
X75161800Y-51824700D02*
X71578100Y-51824700D01*
X75969700Y-52632600D02*
X75161800Y-51824700D01*
X75969700Y-53000000D02*
X75969700Y-52632600D01*
X86122900Y-80268300D02*
X86436400Y-79954800D01*
X86122900Y-81369600D02*
X86122900Y-80268300D01*
X85147500Y-82345000D02*
X86122900Y-81369600D01*
X80270200Y-82345000D02*
X85147500Y-82345000D01*
X77842000Y-84773200D02*
X80270200Y-82345000D01*
X76762300Y-84773200D02*
X77842000Y-84773200D01*
X74605000Y-82615900D02*
X76762300Y-84773200D01*
X74605000Y-53000000D02*
X74605000Y-82615900D01*
X73240300Y-55350600D02*
X72065000Y-54175300D01*
X73240300Y-103647700D02*
X73240300Y-55350600D01*
X76083400Y-106490800D02*
X73240300Y-103647700D01*
X108026800Y-106490800D02*
X76083400Y-106490800D01*
X110155000Y-104362600D02*
X108026800Y-106490800D01*
X110155000Y-103459000D02*
X110155000Y-104362600D01*
X110899400Y-102714600D02*
X110155000Y-103459000D01*
X112600400Y-102714600D02*
X110899400Y-102714600D01*
X113965000Y-101350000D02*
X112600400Y-102714600D01*
X72065000Y-53000000D02*
X72065000Y-54175300D01*
X130485000Y-81704300D02*
X130485000Y-53000000D01*
X117680300Y-94509000D02*
X130485000Y-81704300D01*
X117680300Y-101906800D02*
X117680300Y-94509000D01*
X116872400Y-102714700D02*
X117680300Y-101906800D01*
X116505000Y-102714700D02*
X116872400Y-102714700D01*
X116505000Y-103890000D02*
X116505000Y-102714700D01*
X116420300Y-50827400D02*
X116420300Y-50460000D01*
X117228200Y-51635300D02*
X116420300Y-50827400D01*
X120650300Y-51635300D02*
X117228200Y-51635300D01*
X121500400Y-52485400D02*
X120650300Y-51635300D01*
X121500400Y-62647400D02*
X121500400Y-52485400D01*
X124411600Y-65558600D02*
X121500400Y-62647400D01*
X124411600Y-85853200D02*
X124411600Y-65558600D01*
X116505000Y-93759800D02*
X124411600Y-85853200D01*
X116505000Y-101350000D02*
X116505000Y-93759800D01*
X115245000Y-50460000D02*
X116420300Y-50460000D01*
D17*
X84820000Y-70915000D02*
X83519700Y-70915000D01*
X82500000Y-69895300D02*
X83519700Y-70915000D01*
X82500000Y-65500000D02*
X82500000Y-69895300D01*
X83519700Y-70915000D02*
X83519700Y-75995000D01*
X84820000Y-75995000D02*
X83519700Y-75995000D01*
X84820000Y-81075000D02*
X83519700Y-81075000D01*
X77200000Y-78535000D02*
X78500300Y-78535000D01*
X82124700Y-77390000D02*
X82124700Y-78853700D01*
X83519700Y-75995000D02*
X82124700Y-77390000D01*
X82124700Y-79680000D02*
X83519700Y-81075000D01*
X82124700Y-78853700D02*
X82124700Y-79680000D01*
X78819000Y-81996000D02*
X77200000Y-83615000D01*
X78819000Y-78853700D02*
X78819000Y-81996000D01*
X82124700Y-78853700D02*
X78819000Y-78853700D01*
X78819000Y-78853700D02*
X78500300Y-78535000D01*
X120750000Y-78565000D02*
X120750000Y-66000000D01*
X115200000Y-84115000D02*
X120750000Y-78565000D01*
X69525000Y-53000000D02*
X68174700Y-53000000D01*
X59705100Y-54500000D02*
X61005400Y-54500000D01*
X61005400Y-54500000D02*
X63840100Y-57334600D01*
X62149200Y-59025500D02*
X63840100Y-57334600D01*
X62149200Y-76729200D02*
X62149200Y-59025500D01*
X63500000Y-78080000D02*
X62149200Y-76729200D01*
X63840100Y-57334600D02*
X68174700Y-53000000D01*
X84820000Y-68375000D02*
X84820000Y-67074700D01*
X84820000Y-65680000D02*
X84820000Y-67074700D01*
X85000000Y-65500000D02*
X84820000Y-65680000D01*
X125530400Y-101294900D02*
X125475300Y-101350000D01*
X139000000Y-101294900D02*
X125530400Y-101294900D01*
X124125000Y-101350000D02*
X125475300Y-101350000D01*
X123250000Y-67144700D02*
X123250000Y-66000000D01*
X122820000Y-67574700D02*
X123250000Y-67144700D01*
X122820000Y-68875000D02*
X122820000Y-67574700D01*
G04 #@! TA.AperFunction,Conductor*
G36*
X149433621Y-40528502D02*
G01*
X149480114Y-40582158D01*
X149491500Y-40634500D01*
X149491500Y-114365500D01*
X149471498Y-114433621D01*
X149417842Y-114480114D01*
X149365500Y-114491500D01*
X50634500Y-114491500D01*
X50566379Y-114471498D01*
X50519886Y-114417842D01*
X50508500Y-114365500D01*
X50508500Y-110632703D01*
X53390743Y-110632703D01*
X53428268Y-110917734D01*
X53504129Y-111195036D01*
X53616923Y-111459476D01*
X53764561Y-111706161D01*
X53944313Y-111930528D01*
X54152851Y-112128423D01*
X54386317Y-112296186D01*
X54390112Y-112298195D01*
X54390113Y-112298196D01*
X54411869Y-112309715D01*
X54640392Y-112430712D01*
X54910373Y-112529511D01*
X55191264Y-112590755D01*
X55219841Y-112593004D01*
X55414282Y-112608307D01*
X55414291Y-112608307D01*
X55416739Y-112608500D01*
X55572271Y-112608500D01*
X55574407Y-112608354D01*
X55574418Y-112608354D01*
X55782548Y-112594165D01*
X55782554Y-112594164D01*
X55786825Y-112593873D01*
X55791020Y-112593004D01*
X55791022Y-112593004D01*
X55927584Y-112564723D01*
X56068342Y-112535574D01*
X56339343Y-112439607D01*
X56594812Y-112307750D01*
X56598313Y-112305289D01*
X56598317Y-112305287D01*
X56712418Y-112225095D01*
X56830023Y-112142441D01*
X57040622Y-111946740D01*
X57222713Y-111724268D01*
X57372927Y-111479142D01*
X57488483Y-111215898D01*
X57567244Y-110939406D01*
X57607751Y-110654784D01*
X57607845Y-110636951D01*
X57607867Y-110632703D01*
X142390743Y-110632703D01*
X142428268Y-110917734D01*
X142504129Y-111195036D01*
X142616923Y-111459476D01*
X142764561Y-111706161D01*
X142944313Y-111930528D01*
X143152851Y-112128423D01*
X143386317Y-112296186D01*
X143390112Y-112298195D01*
X143390113Y-112298196D01*
X143411869Y-112309715D01*
X143640392Y-112430712D01*
X143910373Y-112529511D01*
X144191264Y-112590755D01*
X144219841Y-112593004D01*
X144414282Y-112608307D01*
X144414291Y-112608307D01*
X144416739Y-112608500D01*
X144572271Y-112608500D01*
X144574407Y-112608354D01*
X144574418Y-112608354D01*
X144782548Y-112594165D01*
X144782554Y-112594164D01*
X144786825Y-112593873D01*
X144791020Y-112593004D01*
X144791022Y-112593004D01*
X144927584Y-112564723D01*
X145068342Y-112535574D01*
X145339343Y-112439607D01*
X145594812Y-112307750D01*
X145598313Y-112305289D01*
X145598317Y-112305287D01*
X145712418Y-112225095D01*
X145830023Y-112142441D01*
X146040622Y-111946740D01*
X146222713Y-111724268D01*
X146372927Y-111479142D01*
X146488483Y-111215898D01*
X146567244Y-110939406D01*
X146607751Y-110654784D01*
X146607845Y-110636951D01*
X146609235Y-110371583D01*
X146609235Y-110371576D01*
X146609257Y-110367297D01*
X146571732Y-110082266D01*
X146495871Y-109804964D01*
X146383077Y-109540524D01*
X146235439Y-109293839D01*
X146055687Y-109069472D01*
X145847149Y-108871577D01*
X145613683Y-108703814D01*
X145591843Y-108692250D01*
X145568654Y-108679972D01*
X145359608Y-108569288D01*
X145089627Y-108470489D01*
X144808736Y-108409245D01*
X144777685Y-108406801D01*
X144585718Y-108391693D01*
X144585709Y-108391693D01*
X144583261Y-108391500D01*
X144427729Y-108391500D01*
X144425593Y-108391646D01*
X144425582Y-108391646D01*
X144217452Y-108405835D01*
X144217446Y-108405836D01*
X144213175Y-108406127D01*
X144208980Y-108406996D01*
X144208978Y-108406996D01*
X144072417Y-108435276D01*
X143931658Y-108464426D01*
X143660657Y-108560393D01*
X143405188Y-108692250D01*
X143401687Y-108694711D01*
X143401683Y-108694713D01*
X143391594Y-108701804D01*
X143169977Y-108857559D01*
X142959378Y-109053260D01*
X142777287Y-109275732D01*
X142627073Y-109520858D01*
X142511517Y-109784102D01*
X142432756Y-110060594D01*
X142392249Y-110345216D01*
X142392227Y-110349505D01*
X142392226Y-110349512D01*
X142390765Y-110628417D01*
X142390743Y-110632703D01*
X57607867Y-110632703D01*
X57609235Y-110371583D01*
X57609235Y-110371576D01*
X57609257Y-110367297D01*
X57571732Y-110082266D01*
X57495871Y-109804964D01*
X57383077Y-109540524D01*
X57235439Y-109293839D01*
X57055687Y-109069472D01*
X56847149Y-108871577D01*
X56613683Y-108703814D01*
X56591843Y-108692250D01*
X56568654Y-108679972D01*
X56359608Y-108569288D01*
X56089627Y-108470489D01*
X55808736Y-108409245D01*
X55777685Y-108406801D01*
X55585718Y-108391693D01*
X55585709Y-108391693D01*
X55583261Y-108391500D01*
X55427729Y-108391500D01*
X55425593Y-108391646D01*
X55425582Y-108391646D01*
X55217452Y-108405835D01*
X55217446Y-108405836D01*
X55213175Y-108406127D01*
X55208980Y-108406996D01*
X55208978Y-108406996D01*
X55072417Y-108435276D01*
X54931658Y-108464426D01*
X54660657Y-108560393D01*
X54405188Y-108692250D01*
X54401687Y-108694711D01*
X54401683Y-108694713D01*
X54391594Y-108701804D01*
X54169977Y-108857559D01*
X53959378Y-109053260D01*
X53777287Y-109275732D01*
X53627073Y-109520858D01*
X53511517Y-109784102D01*
X53432756Y-110060594D01*
X53392249Y-110345216D01*
X53392227Y-110349505D01*
X53392226Y-110349512D01*
X53390765Y-110628417D01*
X53390743Y-110632703D01*
X50508500Y-110632703D01*
X50508500Y-55586062D01*
X56483593Y-55586062D01*
X56492889Y-55598077D01*
X56544094Y-55633931D01*
X56553589Y-55639414D01*
X56751047Y-55731490D01*
X56761339Y-55735236D01*
X56971788Y-55791625D01*
X56982581Y-55793528D01*
X57199625Y-55812517D01*
X57210575Y-55812517D01*
X57427619Y-55793528D01*
X57438412Y-55791625D01*
X57648861Y-55735236D01*
X57659153Y-55731490D01*
X57856611Y-55639414D01*
X57866106Y-55633931D01*
X57918148Y-55597491D01*
X57926524Y-55587012D01*
X57919456Y-55573566D01*
X57217912Y-54872022D01*
X57203968Y-54864408D01*
X57202135Y-54864539D01*
X57195520Y-54868790D01*
X56490023Y-55574287D01*
X56483593Y-55586062D01*
X50508500Y-55586062D01*
X50508500Y-54505475D01*
X55892583Y-54505475D01*
X55911572Y-54722519D01*
X55913475Y-54733312D01*
X55969864Y-54943761D01*
X55973610Y-54954053D01*
X56065686Y-55151511D01*
X56071169Y-55161006D01*
X56107609Y-55213048D01*
X56118088Y-55221424D01*
X56131534Y-55214356D01*
X56833078Y-54512812D01*
X56839456Y-54501132D01*
X57569508Y-54501132D01*
X57569639Y-54502965D01*
X57573890Y-54509580D01*
X58279387Y-55215077D01*
X58321129Y-55237871D01*
X58331129Y-55240047D01*
X58381327Y-55290253D01*
X58396551Y-55343814D01*
X58396600Y-55344719D01*
X58396600Y-55348134D01*
X58403355Y-55410316D01*
X58454485Y-55546705D01*
X58541839Y-55663261D01*
X58658395Y-55750615D01*
X58794784Y-55801745D01*
X58856966Y-55808500D01*
X60553234Y-55808500D01*
X60615416Y-55801745D01*
X60751805Y-55750615D01*
X60868361Y-55663261D01*
X60870188Y-55665698D01*
X60919143Y-55638966D01*
X60989958Y-55644031D01*
X61035019Y-55672989D01*
X62248767Y-56886695D01*
X62607600Y-57245515D01*
X62641626Y-57307827D01*
X62636562Y-57378642D01*
X62607601Y-57423707D01*
X61584042Y-58447266D01*
X61583105Y-58448194D01*
X61518693Y-58511271D01*
X61495202Y-58547721D01*
X61487783Y-58558046D01*
X61460724Y-58591943D01*
X61457659Y-58598284D01*
X61457658Y-58598285D01*
X61446128Y-58622137D01*
X61438599Y-58635554D01*
X61420435Y-58663738D01*
X61418027Y-58670355D01*
X61418024Y-58670360D01*
X61405608Y-58704473D01*
X61400647Y-58716216D01*
X61384846Y-58748903D01*
X61384844Y-58748908D01*
X61381779Y-58755249D01*
X61380196Y-58762107D01*
X61380195Y-58762109D01*
X61374235Y-58787926D01*
X61369868Y-58802669D01*
X61358397Y-58834185D01*
X61357514Y-58841175D01*
X61357512Y-58841183D01*
X61352962Y-58877201D01*
X61350726Y-58889753D01*
X61340976Y-58931985D01*
X61340951Y-58939031D01*
X61340951Y-58939034D01*
X61340834Y-58972556D01*
X61340805Y-58973438D01*
X61340700Y-58974269D01*
X61340700Y-59011072D01*
X61340343Y-59113370D01*
X61340611Y-59114570D01*
X61340700Y-59116207D01*
X61340700Y-76719986D01*
X61340693Y-76721306D01*
X61339749Y-76811421D01*
X61348911Y-76853797D01*
X61350969Y-76866363D01*
X61355803Y-76909455D01*
X61358119Y-76916106D01*
X61358120Y-76916110D01*
X61366833Y-76941130D01*
X61370996Y-76955942D01*
X61378081Y-76988710D01*
X61396408Y-77028013D01*
X61401190Y-77039789D01*
X61415455Y-77080752D01*
X61419189Y-77086727D01*
X61419190Y-77086730D01*
X61433227Y-77109195D01*
X61440566Y-77122712D01*
X61446226Y-77134849D01*
X61454738Y-77153102D01*
X61459055Y-77158667D01*
X61459056Y-77158669D01*
X61481306Y-77187353D01*
X61488602Y-77197812D01*
X61503405Y-77221502D01*
X61511574Y-77234576D01*
X61516534Y-77239571D01*
X61516535Y-77239572D01*
X61540176Y-77263379D01*
X61540761Y-77264004D01*
X61541278Y-77264670D01*
X61567266Y-77290658D01*
X61639385Y-77363282D01*
X61640422Y-77363940D01*
X61641651Y-77365043D01*
X62158640Y-77882032D01*
X62192666Y-77944344D01*
X62195066Y-77982108D01*
X62190981Y-78028802D01*
X62186502Y-78080000D01*
X62206457Y-78308087D01*
X62207881Y-78313400D01*
X62207881Y-78313402D01*
X62225258Y-78378251D01*
X62265716Y-78529243D01*
X62268039Y-78534224D01*
X62268039Y-78534225D01*
X62360151Y-78731762D01*
X62360154Y-78731767D01*
X62362477Y-78736749D01*
X62493802Y-78924300D01*
X62655700Y-79086198D01*
X62660208Y-79089355D01*
X62660211Y-79089357D01*
X62738389Y-79144098D01*
X62843251Y-79217523D01*
X62848233Y-79219846D01*
X62848238Y-79219849D01*
X63045775Y-79311961D01*
X63050757Y-79314284D01*
X63056065Y-79315706D01*
X63056067Y-79315707D01*
X63266598Y-79372119D01*
X63266600Y-79372119D01*
X63271913Y-79373543D01*
X63500000Y-79393498D01*
X63728087Y-79373543D01*
X63733400Y-79372119D01*
X63733402Y-79372119D01*
X63943933Y-79315707D01*
X63943935Y-79315706D01*
X63949243Y-79314284D01*
X63954225Y-79311961D01*
X64151762Y-79219849D01*
X64151767Y-79219846D01*
X64156749Y-79217523D01*
X64261611Y-79144098D01*
X64339789Y-79089357D01*
X64339792Y-79089355D01*
X64344300Y-79086198D01*
X64506198Y-78924300D01*
X64637523Y-78736749D01*
X64639846Y-78731767D01*
X64639849Y-78731762D01*
X64731961Y-78534225D01*
X64731961Y-78534224D01*
X64734284Y-78529243D01*
X64774743Y-78378251D01*
X64792119Y-78313402D01*
X64792119Y-78313400D01*
X64793543Y-78308087D01*
X64813498Y-78080000D01*
X66686502Y-78080000D01*
X66706457Y-78308087D01*
X66707881Y-78313400D01*
X66707881Y-78313402D01*
X66725258Y-78378251D01*
X66765716Y-78529243D01*
X66768039Y-78534224D01*
X66768039Y-78534225D01*
X66860151Y-78731762D01*
X66860154Y-78731767D01*
X66862477Y-78736749D01*
X66993802Y-78924300D01*
X67155700Y-79086198D01*
X67160208Y-79089355D01*
X67160211Y-79089357D01*
X67238389Y-79144098D01*
X67343251Y-79217523D01*
X67348233Y-79219846D01*
X67348238Y-79219849D01*
X67545775Y-79311961D01*
X67550757Y-79314284D01*
X67556065Y-79315706D01*
X67556067Y-79315707D01*
X67766598Y-79372119D01*
X67766600Y-79372119D01*
X67771913Y-79373543D01*
X68000000Y-79393498D01*
X68228087Y-79373543D01*
X68233400Y-79372119D01*
X68233402Y-79372119D01*
X68443933Y-79315707D01*
X68443935Y-79315706D01*
X68449243Y-79314284D01*
X68454225Y-79311961D01*
X68651762Y-79219849D01*
X68651767Y-79219846D01*
X68656749Y-79217523D01*
X68761611Y-79144098D01*
X68839789Y-79089357D01*
X68839792Y-79089355D01*
X68844300Y-79086198D01*
X69006198Y-78924300D01*
X69137523Y-78736749D01*
X69139846Y-78731767D01*
X69139849Y-78731762D01*
X69231961Y-78534225D01*
X69231961Y-78534224D01*
X69234284Y-78529243D01*
X69274743Y-78378251D01*
X69292119Y-78313402D01*
X69292119Y-78313400D01*
X69293543Y-78308087D01*
X69313498Y-78080000D01*
X69293543Y-77851913D01*
X69268530Y-77758563D01*
X69235707Y-77636067D01*
X69235706Y-77636065D01*
X69234284Y-77630757D01*
X69190871Y-77537657D01*
X69139849Y-77428238D01*
X69139846Y-77428233D01*
X69137523Y-77423251D01*
X69027607Y-77266275D01*
X69009357Y-77240211D01*
X69009355Y-77240208D01*
X69006198Y-77235700D01*
X68844300Y-77073802D01*
X68839792Y-77070645D01*
X68839789Y-77070643D01*
X68761611Y-77015902D01*
X68656749Y-76942477D01*
X68651767Y-76940154D01*
X68651762Y-76940151D01*
X68454225Y-76848039D01*
X68454224Y-76848039D01*
X68449243Y-76845716D01*
X68443935Y-76844294D01*
X68443933Y-76844293D01*
X68233402Y-76787881D01*
X68233400Y-76787881D01*
X68228087Y-76786457D01*
X68000000Y-76766502D01*
X67771913Y-76786457D01*
X67766600Y-76787881D01*
X67766598Y-76787881D01*
X67556067Y-76844293D01*
X67556065Y-76844294D01*
X67550757Y-76845716D01*
X67545776Y-76848039D01*
X67545775Y-76848039D01*
X67348238Y-76940151D01*
X67348233Y-76940154D01*
X67343251Y-76942477D01*
X67238389Y-77015902D01*
X67160211Y-77070643D01*
X67160208Y-77070645D01*
X67155700Y-77073802D01*
X66993802Y-77235700D01*
X66990645Y-77240208D01*
X66990643Y-77240211D01*
X66972393Y-77266275D01*
X66862477Y-77423251D01*
X66860154Y-77428233D01*
X66860151Y-77428238D01*
X66809129Y-77537657D01*
X66765716Y-77630757D01*
X66764294Y-77636065D01*
X66764293Y-77636067D01*
X66731470Y-77758563D01*
X66706457Y-77851913D01*
X66686502Y-78080000D01*
X64813498Y-78080000D01*
X64793543Y-77851913D01*
X64768530Y-77758563D01*
X64735707Y-77636067D01*
X64735706Y-77636065D01*
X64734284Y-77630757D01*
X64690871Y-77537657D01*
X64639849Y-77428238D01*
X64639846Y-77428233D01*
X64637523Y-77423251D01*
X64527607Y-77266275D01*
X64509357Y-77240211D01*
X64509355Y-77240208D01*
X64506198Y-77235700D01*
X64344300Y-77073802D01*
X64339792Y-77070645D01*
X64339789Y-77070643D01*
X64261611Y-77015902D01*
X64156749Y-76942477D01*
X64151767Y-76940154D01*
X64151762Y-76940151D01*
X63954225Y-76848039D01*
X63954224Y-76848039D01*
X63949243Y-76845716D01*
X63943935Y-76844294D01*
X63943933Y-76844293D01*
X63733402Y-76787881D01*
X63733400Y-76787881D01*
X63728087Y-76786457D01*
X63500000Y-76766502D01*
X63494525Y-76766981D01*
X63494524Y-76766981D01*
X63402108Y-76775066D01*
X63332503Y-76761076D01*
X63302032Y-76738640D01*
X62994605Y-76431213D01*
X62960579Y-76368901D01*
X62957700Y-76342118D01*
X62957700Y-69293556D01*
X62977702Y-69225435D01*
X63031358Y-69178942D01*
X63101632Y-69168838D01*
X63116303Y-69171847D01*
X63271913Y-69213543D01*
X63500000Y-69233498D01*
X63728087Y-69213543D01*
X63733400Y-69212119D01*
X63733402Y-69212119D01*
X63943933Y-69155707D01*
X63943935Y-69155706D01*
X63949243Y-69154284D01*
X63954225Y-69151961D01*
X64151762Y-69059849D01*
X64151767Y-69059846D01*
X64156749Y-69057523D01*
X64261611Y-68984098D01*
X64339789Y-68929357D01*
X64339792Y-68929355D01*
X64344300Y-68926198D01*
X64506198Y-68764300D01*
X64637523Y-68576749D01*
X64639846Y-68571767D01*
X64639849Y-68571762D01*
X64731961Y-68374225D01*
X64731961Y-68374224D01*
X64734284Y-68369243D01*
X64774743Y-68218251D01*
X64792119Y-68153402D01*
X64792119Y-68153400D01*
X64793543Y-68148087D01*
X64813498Y-67920000D01*
X66686502Y-67920000D01*
X66706457Y-68148087D01*
X66707881Y-68153400D01*
X66707881Y-68153402D01*
X66725258Y-68218251D01*
X66765716Y-68369243D01*
X66768039Y-68374224D01*
X66768039Y-68374225D01*
X66860151Y-68571762D01*
X66860154Y-68571767D01*
X66862477Y-68576749D01*
X66993802Y-68764300D01*
X67155700Y-68926198D01*
X67160208Y-68929355D01*
X67160211Y-68929357D01*
X67238389Y-68984098D01*
X67343251Y-69057523D01*
X67348233Y-69059846D01*
X67348238Y-69059849D01*
X67545775Y-69151961D01*
X67550757Y-69154284D01*
X67556065Y-69155706D01*
X67556067Y-69155707D01*
X67766598Y-69212119D01*
X67766600Y-69212119D01*
X67771913Y-69213543D01*
X68000000Y-69233498D01*
X68228087Y-69213543D01*
X68233400Y-69212119D01*
X68233402Y-69212119D01*
X68443933Y-69155707D01*
X68443935Y-69155706D01*
X68449243Y-69154284D01*
X68454225Y-69151961D01*
X68651762Y-69059849D01*
X68651767Y-69059846D01*
X68656749Y-69057523D01*
X68761611Y-68984098D01*
X68839789Y-68929357D01*
X68839792Y-68929355D01*
X68844300Y-68926198D01*
X69006198Y-68764300D01*
X69137523Y-68576749D01*
X69139846Y-68571767D01*
X69139849Y-68571762D01*
X69231961Y-68374225D01*
X69231961Y-68374224D01*
X69234284Y-68369243D01*
X69274743Y-68218251D01*
X69292119Y-68153402D01*
X69292119Y-68153400D01*
X69293543Y-68148087D01*
X69313498Y-67920000D01*
X69293543Y-67691913D01*
X69286441Y-67665407D01*
X69235707Y-67476067D01*
X69235706Y-67476065D01*
X69234284Y-67470757D01*
X69213601Y-67426401D01*
X69139849Y-67268238D01*
X69139846Y-67268233D01*
X69137523Y-67263251D01*
X69048170Y-67135642D01*
X69009357Y-67080211D01*
X69009355Y-67080208D01*
X69006198Y-67075700D01*
X68844300Y-66913802D01*
X68839792Y-66910645D01*
X68839789Y-66910643D01*
X68745041Y-66844300D01*
X68656749Y-66782477D01*
X68651767Y-66780154D01*
X68651762Y-66780151D01*
X68454225Y-66688039D01*
X68454224Y-66688039D01*
X68449243Y-66685716D01*
X68443935Y-66684294D01*
X68443933Y-66684293D01*
X68233402Y-66627881D01*
X68233400Y-66627881D01*
X68228087Y-66626457D01*
X68000000Y-66606502D01*
X67771913Y-66626457D01*
X67766600Y-66627881D01*
X67766598Y-66627881D01*
X67556067Y-66684293D01*
X67556065Y-66684294D01*
X67550757Y-66685716D01*
X67545776Y-66688039D01*
X67545775Y-66688039D01*
X67348238Y-66780151D01*
X67348233Y-66780154D01*
X67343251Y-66782477D01*
X67254959Y-66844300D01*
X67160211Y-66910643D01*
X67160208Y-66910645D01*
X67155700Y-66913802D01*
X66993802Y-67075700D01*
X66990645Y-67080208D01*
X66990643Y-67080211D01*
X66951830Y-67135642D01*
X66862477Y-67263251D01*
X66860154Y-67268233D01*
X66860151Y-67268238D01*
X66786399Y-67426401D01*
X66765716Y-67470757D01*
X66764294Y-67476065D01*
X66764293Y-67476067D01*
X66713559Y-67665407D01*
X66706457Y-67691913D01*
X66686502Y-67920000D01*
X64813498Y-67920000D01*
X64793543Y-67691913D01*
X64786441Y-67665407D01*
X64735707Y-67476067D01*
X64735706Y-67476065D01*
X64734284Y-67470757D01*
X64713601Y-67426401D01*
X64639849Y-67268238D01*
X64639846Y-67268233D01*
X64637523Y-67263251D01*
X64548170Y-67135642D01*
X64509357Y-67080211D01*
X64509355Y-67080208D01*
X64506198Y-67075700D01*
X64344300Y-66913802D01*
X64339792Y-66910645D01*
X64339789Y-66910643D01*
X64245041Y-66844300D01*
X64156749Y-66782477D01*
X64151767Y-66780154D01*
X64151762Y-66780151D01*
X63954225Y-66688039D01*
X63954224Y-66688039D01*
X63949243Y-66685716D01*
X63943935Y-66684294D01*
X63943933Y-66684293D01*
X63733402Y-66627881D01*
X63733400Y-66627881D01*
X63728087Y-66626457D01*
X63500000Y-66606502D01*
X63271913Y-66626457D01*
X63116310Y-66668151D01*
X63045335Y-66666461D01*
X62986539Y-66626667D01*
X62958591Y-66561403D01*
X62957700Y-66546444D01*
X62957700Y-59412582D01*
X62977702Y-59344461D01*
X62994605Y-59323487D01*
X64372268Y-57945823D01*
X64383442Y-57935901D01*
X64405857Y-57918262D01*
X64405859Y-57918260D01*
X64411393Y-57913905D01*
X64415824Y-57908433D01*
X64415830Y-57908427D01*
X64437914Y-57881154D01*
X64446741Y-57871351D01*
X68120337Y-54197755D01*
X68182649Y-54163729D01*
X68253464Y-54168794D01*
X68297786Y-54201953D01*
X68300008Y-54199731D01*
X68306358Y-54206081D01*
X68311739Y-54213261D01*
X68428295Y-54300615D01*
X68564684Y-54351745D01*
X68626866Y-54358500D01*
X70090400Y-54358500D01*
X70158521Y-54378502D01*
X70205014Y-54432158D01*
X70216400Y-54484500D01*
X70216400Y-101877433D01*
X70215873Y-101888616D01*
X70214198Y-101896109D01*
X70214447Y-101904035D01*
X70214447Y-101904036D01*
X70216338Y-101964186D01*
X70216400Y-101968145D01*
X70216400Y-101996056D01*
X70216897Y-101999990D01*
X70216897Y-101999991D01*
X70216905Y-102000056D01*
X70217838Y-102011893D01*
X70219227Y-102056089D01*
X70224878Y-102075539D01*
X70228887Y-102094900D01*
X70231426Y-102114997D01*
X70234345Y-102122368D01*
X70234345Y-102122370D01*
X70247704Y-102156112D01*
X70251549Y-102167342D01*
X70263882Y-102209793D01*
X70267915Y-102216612D01*
X70267917Y-102216617D01*
X70274193Y-102227228D01*
X70282888Y-102244976D01*
X70290348Y-102263817D01*
X70295010Y-102270233D01*
X70295010Y-102270234D01*
X70316336Y-102299587D01*
X70322852Y-102309507D01*
X70333991Y-102328341D01*
X70345358Y-102347562D01*
X70359679Y-102361883D01*
X70372519Y-102376916D01*
X70384428Y-102393307D01*
X70400922Y-102406952D01*
X70418505Y-102421498D01*
X70427284Y-102429488D01*
X75350548Y-107352753D01*
X75358088Y-107361039D01*
X75362200Y-107367518D01*
X75367977Y-107372943D01*
X75411851Y-107414143D01*
X75414693Y-107416898D01*
X75434430Y-107436635D01*
X75437627Y-107439115D01*
X75446647Y-107446818D01*
X75478879Y-107477086D01*
X75485825Y-107480905D01*
X75485828Y-107480907D01*
X75496634Y-107486848D01*
X75513153Y-107497699D01*
X75529159Y-107510114D01*
X75536428Y-107513259D01*
X75536432Y-107513262D01*
X75569737Y-107527674D01*
X75580387Y-107532891D01*
X75619140Y-107554195D01*
X75626815Y-107556166D01*
X75626816Y-107556166D01*
X75638762Y-107559233D01*
X75657467Y-107565637D01*
X75676055Y-107573681D01*
X75683878Y-107574920D01*
X75683888Y-107574923D01*
X75719724Y-107580599D01*
X75731344Y-107583005D01*
X75763159Y-107591173D01*
X75774170Y-107594000D01*
X75794424Y-107594000D01*
X75814134Y-107595551D01*
X75834143Y-107598720D01*
X75842035Y-107597974D01*
X75860780Y-107596202D01*
X75878162Y-107594559D01*
X75890019Y-107594000D01*
X112514633Y-107594000D01*
X112525816Y-107594527D01*
X112533309Y-107596202D01*
X112541235Y-107595953D01*
X112541236Y-107595953D01*
X112601386Y-107594062D01*
X112605345Y-107594000D01*
X112633256Y-107594000D01*
X112637191Y-107593503D01*
X112637256Y-107593495D01*
X112649093Y-107592562D01*
X112681351Y-107591548D01*
X112685370Y-107591422D01*
X112693289Y-107591173D01*
X112712743Y-107585521D01*
X112732100Y-107581513D01*
X112744330Y-107579968D01*
X112744331Y-107579968D01*
X112752197Y-107578974D01*
X112759568Y-107576055D01*
X112759570Y-107576055D01*
X112793312Y-107562696D01*
X112804542Y-107558851D01*
X112839383Y-107548729D01*
X112839384Y-107548729D01*
X112846993Y-107546518D01*
X112853812Y-107542485D01*
X112853817Y-107542483D01*
X112864428Y-107536207D01*
X112882176Y-107527512D01*
X112901017Y-107520052D01*
X112936787Y-107494064D01*
X112946707Y-107487548D01*
X112977935Y-107469080D01*
X112977938Y-107469078D01*
X112984762Y-107465042D01*
X112999083Y-107450721D01*
X113014117Y-107437880D01*
X113024094Y-107430631D01*
X113030507Y-107425972D01*
X113058698Y-107391895D01*
X113066688Y-107383116D01*
X115488952Y-104960853D01*
X115551264Y-104926827D01*
X115622080Y-104931892D01*
X115658526Y-104953000D01*
X115723126Y-105006632D01*
X115916000Y-105119338D01*
X116124692Y-105199030D01*
X116129760Y-105200061D01*
X116129763Y-105200062D01*
X116219672Y-105218354D01*
X116343597Y-105243567D01*
X116348772Y-105243757D01*
X116348774Y-105243757D01*
X116561673Y-105251564D01*
X116561677Y-105251564D01*
X116566837Y-105251753D01*
X116571957Y-105251097D01*
X116571959Y-105251097D01*
X116783288Y-105224025D01*
X116783289Y-105224025D01*
X116788416Y-105223368D01*
X116793366Y-105221883D01*
X116997429Y-105160661D01*
X116997434Y-105160659D01*
X117002384Y-105159174D01*
X117202994Y-105060896D01*
X117384860Y-104931173D01*
X117396156Y-104919917D01*
X117539435Y-104777137D01*
X117543096Y-104773489D01*
X117673453Y-104592077D01*
X117674776Y-104593028D01*
X117721645Y-104549857D01*
X117791580Y-104537625D01*
X117857026Y-104565144D01*
X117884875Y-104596994D01*
X117944987Y-104695088D01*
X118091250Y-104863938D01*
X118263126Y-105006632D01*
X118456000Y-105119338D01*
X118664692Y-105199030D01*
X118669760Y-105200061D01*
X118669763Y-105200062D01*
X118759672Y-105218354D01*
X118883597Y-105243567D01*
X118888772Y-105243757D01*
X118888774Y-105243757D01*
X119101673Y-105251564D01*
X119101677Y-105251564D01*
X119106837Y-105251753D01*
X119111957Y-105251097D01*
X119111959Y-105251097D01*
X119323288Y-105224025D01*
X119323289Y-105224025D01*
X119328416Y-105223368D01*
X119333366Y-105221883D01*
X119537429Y-105160661D01*
X119537434Y-105160659D01*
X119542384Y-105159174D01*
X119742994Y-105060896D01*
X119924860Y-104931173D01*
X119936156Y-104919917D01*
X120079435Y-104777137D01*
X120083096Y-104773489D01*
X120213453Y-104592077D01*
X120214640Y-104592930D01*
X120261960Y-104549362D01*
X120331897Y-104537145D01*
X120397338Y-104564678D01*
X120425166Y-104596511D01*
X120482694Y-104690388D01*
X120488777Y-104698699D01*
X120628213Y-104859667D01*
X120635580Y-104866883D01*
X120799434Y-105002916D01*
X120807881Y-105008831D01*
X120991756Y-105116279D01*
X121001042Y-105120729D01*
X121200001Y-105196703D01*
X121209899Y-105199579D01*
X121313250Y-105220606D01*
X121327299Y-105219410D01*
X121331000Y-105209065D01*
X121331000Y-105208517D01*
X121839000Y-105208517D01*
X121843064Y-105222359D01*
X121856478Y-105224393D01*
X121863184Y-105223534D01*
X121873262Y-105221392D01*
X122077255Y-105160191D01*
X122086842Y-105156433D01*
X122278095Y-105062739D01*
X122286945Y-105057464D01*
X122460328Y-104933792D01*
X122468200Y-104927139D01*
X122619052Y-104776812D01*
X122625730Y-104768965D01*
X122753022Y-104591819D01*
X122754147Y-104592627D01*
X122801669Y-104548876D01*
X122871607Y-104536661D01*
X122937046Y-104564197D01*
X122964870Y-104596028D01*
X123022690Y-104690383D01*
X123028777Y-104698699D01*
X123168213Y-104859667D01*
X123175580Y-104866883D01*
X123339434Y-105002916D01*
X123347881Y-105008831D01*
X123531756Y-105116279D01*
X123541042Y-105120729D01*
X123740001Y-105196703D01*
X123749899Y-105199579D01*
X123853250Y-105220606D01*
X123867299Y-105219410D01*
X123871000Y-105209065D01*
X123871000Y-105208517D01*
X124379000Y-105208517D01*
X124383064Y-105222359D01*
X124396478Y-105224393D01*
X124403184Y-105223534D01*
X124413262Y-105221392D01*
X124617255Y-105160191D01*
X124626842Y-105156433D01*
X124818095Y-105062739D01*
X124826945Y-105057464D01*
X125000328Y-104933792D01*
X125008200Y-104927139D01*
X125054538Y-104880962D01*
X138278493Y-104880962D01*
X138287789Y-104892977D01*
X138338994Y-104928831D01*
X138348489Y-104934314D01*
X138545947Y-105026390D01*
X138556239Y-105030136D01*
X138766688Y-105086525D01*
X138777481Y-105088428D01*
X138994525Y-105107417D01*
X139005475Y-105107417D01*
X139222519Y-105088428D01*
X139233312Y-105086525D01*
X139443761Y-105030136D01*
X139454053Y-105026390D01*
X139651511Y-104934314D01*
X139661006Y-104928831D01*
X139713048Y-104892391D01*
X139721424Y-104881912D01*
X139714356Y-104868466D01*
X139012812Y-104166922D01*
X138998868Y-104159308D01*
X138997035Y-104159439D01*
X138990420Y-104163690D01*
X138284923Y-104869187D01*
X138278493Y-104880962D01*
X125054538Y-104880962D01*
X125159052Y-104776812D01*
X125165730Y-104768965D01*
X125290003Y-104596020D01*
X125295313Y-104587183D01*
X125389670Y-104396267D01*
X125393469Y-104386672D01*
X125455377Y-104182910D01*
X125457555Y-104172837D01*
X125458986Y-104161962D01*
X125456775Y-104147778D01*
X125443617Y-104144000D01*
X124397115Y-104144000D01*
X124381876Y-104148475D01*
X124380671Y-104149865D01*
X124379000Y-104157548D01*
X124379000Y-105208517D01*
X123871000Y-105208517D01*
X123871000Y-104162115D01*
X123866525Y-104146876D01*
X123865135Y-104145671D01*
X123857452Y-104144000D01*
X121857115Y-104144000D01*
X121841876Y-104148475D01*
X121840671Y-104149865D01*
X121839000Y-104157548D01*
X121839000Y-105208517D01*
X121331000Y-105208517D01*
X121331000Y-103800375D01*
X137687483Y-103800375D01*
X137706472Y-104017419D01*
X137708375Y-104028212D01*
X137764764Y-104238661D01*
X137768510Y-104248953D01*
X137860586Y-104446411D01*
X137866069Y-104455906D01*
X137902509Y-104507948D01*
X137912988Y-104516324D01*
X137926434Y-104509256D01*
X138627978Y-103807712D01*
X138634356Y-103796032D01*
X139364408Y-103796032D01*
X139364539Y-103797865D01*
X139368790Y-103804480D01*
X140074287Y-104509977D01*
X140086062Y-104516407D01*
X140098077Y-104507111D01*
X140133931Y-104455906D01*
X140139414Y-104446411D01*
X140231490Y-104248953D01*
X140235236Y-104238661D01*
X140291625Y-104028212D01*
X140293528Y-104017419D01*
X140312517Y-103800375D01*
X140312517Y-103789425D01*
X140293528Y-103572381D01*
X140291625Y-103561588D01*
X140235236Y-103351139D01*
X140231490Y-103340847D01*
X140139414Y-103143389D01*
X140133931Y-103133894D01*
X140097491Y-103081852D01*
X140087012Y-103073476D01*
X140073566Y-103080544D01*
X139372022Y-103782088D01*
X139364408Y-103796032D01*
X138634356Y-103796032D01*
X138635592Y-103793768D01*
X138635461Y-103791935D01*
X138631210Y-103785320D01*
X137925713Y-103079823D01*
X137913938Y-103073393D01*
X137901923Y-103082689D01*
X137866069Y-103133894D01*
X137860586Y-103143389D01*
X137768510Y-103340847D01*
X137764764Y-103351139D01*
X137708375Y-103561588D01*
X137706472Y-103572381D01*
X137687483Y-103789425D01*
X137687483Y-103800375D01*
X121331000Y-103800375D01*
X121331000Y-103762000D01*
X121351002Y-103693879D01*
X121404658Y-103647386D01*
X121457000Y-103636000D01*
X125443344Y-103636000D01*
X125456875Y-103632027D01*
X125458180Y-103622947D01*
X125416214Y-103455875D01*
X125412894Y-103446124D01*
X125327972Y-103250814D01*
X125323105Y-103241739D01*
X125207426Y-103062926D01*
X125201136Y-103054757D01*
X125057293Y-102896677D01*
X125026241Y-102832831D01*
X125034635Y-102762333D01*
X125079812Y-102707564D01*
X125106256Y-102693895D01*
X125213297Y-102653767D01*
X125221705Y-102650615D01*
X125338261Y-102563261D01*
X125425615Y-102446705D01*
X125476745Y-102310316D01*
X125477598Y-102302464D01*
X125477599Y-102302460D01*
X125481771Y-102264050D01*
X125509013Y-102198487D01*
X125567376Y-102158061D01*
X125580394Y-102154506D01*
X125599903Y-102150288D01*
X125612463Y-102148231D01*
X125655555Y-102143397D01*
X125662206Y-102141081D01*
X125662210Y-102141080D01*
X125687230Y-102132367D01*
X125702042Y-102128204D01*
X125727919Y-102122609D01*
X125734810Y-102121119D01*
X125741195Y-102118142D01*
X125741197Y-102118141D01*
X125747493Y-102115205D01*
X125800742Y-102103400D01*
X137575507Y-102103400D01*
X137643628Y-102123402D01*
X137690121Y-102177058D01*
X137697543Y-102198663D01*
X137698255Y-102205216D01*
X137701027Y-102212611D01*
X137701028Y-102212614D01*
X137733633Y-102299587D01*
X137749385Y-102341605D01*
X137836739Y-102458161D01*
X137953295Y-102545515D01*
X138089684Y-102596645D01*
X138133252Y-102601378D01*
X138148486Y-102603033D01*
X138148489Y-102603033D01*
X138151866Y-102603400D01*
X138155185Y-102603400D01*
X138222110Y-102627053D01*
X138257804Y-102673056D01*
X138259734Y-102672041D01*
X138265442Y-102682900D01*
X138265632Y-102683145D01*
X138265653Y-102683303D01*
X138285644Y-102721334D01*
X138987188Y-103422878D01*
X139001132Y-103430492D01*
X139002965Y-103430361D01*
X139009580Y-103426110D01*
X139715077Y-102720613D01*
X139737871Y-102678871D01*
X139740047Y-102668871D01*
X139790253Y-102618673D01*
X139843814Y-102603449D01*
X139844719Y-102603400D01*
X139848134Y-102603400D01*
X139851530Y-102603031D01*
X139851532Y-102603031D01*
X139863879Y-102601690D01*
X139910316Y-102596645D01*
X140046705Y-102545515D01*
X140163261Y-102458161D01*
X140250615Y-102341605D01*
X140301745Y-102205216D01*
X140308500Y-102143034D01*
X140308500Y-100446766D01*
X140301745Y-100384584D01*
X140250615Y-100248195D01*
X140163261Y-100131639D01*
X140046705Y-100044285D01*
X139910316Y-99993155D01*
X139848134Y-99986400D01*
X138151866Y-99986400D01*
X138089684Y-99993155D01*
X137953295Y-100044285D01*
X137836739Y-100131639D01*
X137749385Y-100248195D01*
X137746233Y-100256603D01*
X137701029Y-100377185D01*
X137698255Y-100384584D01*
X137697628Y-100390353D01*
X137662874Y-100451191D01*
X137599919Y-100484013D01*
X137575507Y-100486400D01*
X125598281Y-100486400D01*
X125530160Y-100466398D01*
X125483667Y-100412742D01*
X125477207Y-100393939D01*
X125476745Y-100389684D01*
X125425615Y-100253295D01*
X125338261Y-100136739D01*
X125221705Y-100049385D01*
X125085316Y-99998255D01*
X125023134Y-99991500D01*
X123226866Y-99991500D01*
X123164684Y-99998255D01*
X123028295Y-100049385D01*
X122911739Y-100136739D01*
X122824385Y-100253295D01*
X122821233Y-100261703D01*
X122779919Y-100371907D01*
X122737277Y-100428671D01*
X122670716Y-100453371D01*
X122601367Y-100438163D01*
X122568743Y-100412476D01*
X122518151Y-100356875D01*
X122518142Y-100356866D01*
X122514670Y-100353051D01*
X122510616Y-100349849D01*
X122510615Y-100349848D01*
X122343414Y-100217800D01*
X122343410Y-100217798D01*
X122339359Y-100214598D01*
X122334831Y-100212098D01*
X122251847Y-100166289D01*
X122143789Y-100106638D01*
X122138920Y-100104914D01*
X122138916Y-100104912D01*
X121938087Y-100033795D01*
X121938083Y-100033794D01*
X121933212Y-100032069D01*
X121928119Y-100031162D01*
X121928116Y-100031161D01*
X121718373Y-99993800D01*
X121718367Y-99993799D01*
X121713284Y-99992894D01*
X121639452Y-99991992D01*
X121495081Y-99990228D01*
X121495079Y-99990228D01*
X121489911Y-99990165D01*
X121269091Y-100023955D01*
X121056756Y-100093357D01*
X121026443Y-100109137D01*
X120882975Y-100183822D01*
X120858607Y-100196507D01*
X120854474Y-100199610D01*
X120854471Y-100199612D01*
X120684100Y-100327530D01*
X120679965Y-100330635D01*
X120640525Y-100371907D01*
X120531667Y-100485820D01*
X120525629Y-100492138D01*
X120418201Y-100649621D01*
X120363293Y-100694621D01*
X120292768Y-100702792D01*
X120229021Y-100671538D01*
X120208324Y-100647054D01*
X120127822Y-100522617D01*
X120127820Y-100522614D01*
X120125014Y-100518277D01*
X119974670Y-100353051D01*
X119970616Y-100349849D01*
X119970615Y-100349848D01*
X119803414Y-100217800D01*
X119803410Y-100217798D01*
X119799359Y-100214598D01*
X119794831Y-100212098D01*
X119711847Y-100166289D01*
X119603789Y-100106638D01*
X119598920Y-100104914D01*
X119598916Y-100104912D01*
X119398087Y-100033795D01*
X119398083Y-100033794D01*
X119393212Y-100032069D01*
X119388119Y-100031162D01*
X119388116Y-100031161D01*
X119178373Y-99993800D01*
X119178367Y-99993799D01*
X119173284Y-99992894D01*
X119099452Y-99991992D01*
X118955081Y-99990228D01*
X118955079Y-99990228D01*
X118949911Y-99990165D01*
X118729091Y-100023955D01*
X118516756Y-100093357D01*
X118497977Y-100103132D01*
X118428320Y-100116844D01*
X118362305Y-100090718D01*
X118320894Y-100033050D01*
X118313800Y-99991368D01*
X118313800Y-94823594D01*
X118333802Y-94755473D01*
X118350705Y-94734499D01*
X130877247Y-82207957D01*
X130885537Y-82200413D01*
X130892018Y-82196300D01*
X130938659Y-82146632D01*
X130941413Y-82143791D01*
X130961134Y-82124070D01*
X130963612Y-82120875D01*
X130971318Y-82111853D01*
X130996158Y-82085401D01*
X131001586Y-82079621D01*
X131011346Y-82061868D01*
X131022199Y-82045345D01*
X131029753Y-82035606D01*
X131034613Y-82029341D01*
X131052176Y-81988757D01*
X131057383Y-81978127D01*
X131078695Y-81939360D01*
X131080666Y-81931683D01*
X131080668Y-81931678D01*
X131083732Y-81919742D01*
X131090138Y-81901030D01*
X131095034Y-81889717D01*
X131098181Y-81882445D01*
X131100529Y-81867624D01*
X131105097Y-81838781D01*
X131107504Y-81827160D01*
X131116528Y-81792011D01*
X131116528Y-81792010D01*
X131118500Y-81784330D01*
X131118500Y-81764069D01*
X131120051Y-81744358D01*
X131121979Y-81732185D01*
X131123219Y-81724357D01*
X131119059Y-81680346D01*
X131118500Y-81668489D01*
X131118500Y-54280427D01*
X131138502Y-54212306D01*
X131179618Y-54172550D01*
X131182994Y-54170896D01*
X131364860Y-54041173D01*
X131378462Y-54027619D01*
X131472037Y-53934370D01*
X131523096Y-53883489D01*
X131552514Y-53842550D01*
X131650435Y-53706277D01*
X131653453Y-53702077D01*
X131658681Y-53691500D01*
X131750136Y-53506453D01*
X131750137Y-53506451D01*
X131752430Y-53501811D01*
X131817370Y-53288069D01*
X131846529Y-53066590D01*
X131848156Y-53000000D01*
X131829852Y-52777361D01*
X131775431Y-52560702D01*
X131686354Y-52355840D01*
X131616072Y-52247201D01*
X131567822Y-52172617D01*
X131567818Y-52172612D01*
X131565014Y-52168277D01*
X131414670Y-52003051D01*
X131410619Y-51999852D01*
X131410615Y-51999848D01*
X131243414Y-51867800D01*
X131243408Y-51867796D01*
X131239359Y-51864598D01*
X131234829Y-51862097D01*
X131202259Y-51844118D01*
X131197569Y-51841529D01*
X131147598Y-51791097D01*
X131132826Y-51721654D01*
X131157942Y-51655248D01*
X131185294Y-51628641D01*
X131360328Y-51503792D01*
X131368200Y-51497139D01*
X131519052Y-51346812D01*
X131525730Y-51338965D01*
X131650003Y-51166020D01*
X131655313Y-51157183D01*
X131749670Y-50966267D01*
X131753469Y-50956672D01*
X131815377Y-50752910D01*
X131817555Y-50742837D01*
X131818986Y-50731962D01*
X131816775Y-50717778D01*
X131803617Y-50714000D01*
X127817000Y-50714000D01*
X127748879Y-50693998D01*
X127702386Y-50640342D01*
X127691000Y-50588000D01*
X127691000Y-50187885D01*
X128199000Y-50187885D01*
X128203475Y-50203124D01*
X128204865Y-50204329D01*
X128212548Y-50206000D01*
X130212885Y-50206000D01*
X130228124Y-50201525D01*
X130229329Y-50200135D01*
X130231000Y-50192452D01*
X130231000Y-50187885D01*
X130739000Y-50187885D01*
X130743475Y-50203124D01*
X130744865Y-50204329D01*
X130752548Y-50206000D01*
X131803344Y-50206000D01*
X131816875Y-50202027D01*
X131818180Y-50192947D01*
X131776214Y-50025875D01*
X131772894Y-50016124D01*
X131687972Y-49820814D01*
X131683105Y-49811739D01*
X131567426Y-49632926D01*
X131561136Y-49624757D01*
X131417806Y-49467240D01*
X131410273Y-49460215D01*
X131243139Y-49328222D01*
X131234552Y-49322517D01*
X131048117Y-49219599D01*
X131038705Y-49215369D01*
X130837959Y-49144280D01*
X130827988Y-49141646D01*
X130756837Y-49128972D01*
X130743540Y-49130432D01*
X130739000Y-49144989D01*
X130739000Y-50187885D01*
X130231000Y-50187885D01*
X130231000Y-49143102D01*
X130227082Y-49129758D01*
X130212806Y-49127771D01*
X130174324Y-49133660D01*
X130164288Y-49136051D01*
X129961868Y-49202212D01*
X129952359Y-49206209D01*
X129763463Y-49304542D01*
X129754738Y-49310036D01*
X129584433Y-49437905D01*
X129576726Y-49444748D01*
X129429590Y-49598717D01*
X129423104Y-49606727D01*
X129318193Y-49760521D01*
X129263282Y-49805524D01*
X129192757Y-49813695D01*
X129129010Y-49782441D01*
X129108313Y-49757957D01*
X129027427Y-49632926D01*
X129021136Y-49624757D01*
X128877806Y-49467240D01*
X128870273Y-49460215D01*
X128703139Y-49328222D01*
X128694552Y-49322517D01*
X128508117Y-49219599D01*
X128498705Y-49215369D01*
X128297959Y-49144280D01*
X128287988Y-49141646D01*
X128216837Y-49128972D01*
X128203540Y-49130432D01*
X128199000Y-49144989D01*
X128199000Y-50187885D01*
X127691000Y-50187885D01*
X127691000Y-49143102D01*
X127687082Y-49129758D01*
X127672806Y-49127771D01*
X127634324Y-49133660D01*
X127624288Y-49136051D01*
X127421868Y-49202212D01*
X127412359Y-49206209D01*
X127223463Y-49304542D01*
X127214738Y-49310036D01*
X127044433Y-49437905D01*
X127036726Y-49444748D01*
X126889590Y-49598717D01*
X126883109Y-49606722D01*
X126778498Y-49760074D01*
X126723587Y-49805076D01*
X126653062Y-49813247D01*
X126589315Y-49781993D01*
X126568618Y-49757509D01*
X126487822Y-49632617D01*
X126487820Y-49632614D01*
X126485014Y-49628277D01*
X126334670Y-49463051D01*
X126330619Y-49459852D01*
X126330615Y-49459848D01*
X126163414Y-49327800D01*
X126163410Y-49327798D01*
X126159359Y-49324598D01*
X126123028Y-49304542D01*
X126016681Y-49245836D01*
X125963789Y-49216638D01*
X125958920Y-49214914D01*
X125958916Y-49214912D01*
X125758087Y-49143795D01*
X125758083Y-49143794D01*
X125753212Y-49142069D01*
X125748119Y-49141162D01*
X125748116Y-49141161D01*
X125538373Y-49103800D01*
X125538367Y-49103799D01*
X125533284Y-49102894D01*
X125459452Y-49101992D01*
X125315081Y-49100228D01*
X125315079Y-49100228D01*
X125309911Y-49100165D01*
X125089091Y-49133955D01*
X124876756Y-49203357D01*
X124678607Y-49306507D01*
X124674474Y-49309610D01*
X124674471Y-49309612D01*
X124504100Y-49437530D01*
X124499965Y-49440635D01*
X124345629Y-49602138D01*
X124238201Y-49759621D01*
X124183293Y-49804621D01*
X124112768Y-49812792D01*
X124049021Y-49781538D01*
X124028324Y-49757054D01*
X123947822Y-49632617D01*
X123947820Y-49632614D01*
X123945014Y-49628277D01*
X123794670Y-49463051D01*
X123790619Y-49459852D01*
X123790615Y-49459848D01*
X123623414Y-49327800D01*
X123623410Y-49327798D01*
X123619359Y-49324598D01*
X123583028Y-49304542D01*
X123476681Y-49245836D01*
X123423789Y-49216638D01*
X123418920Y-49214914D01*
X123418916Y-49214912D01*
X123218087Y-49143795D01*
X123218083Y-49143794D01*
X123213212Y-49142069D01*
X123208119Y-49141162D01*
X123208116Y-49141161D01*
X122998373Y-49103800D01*
X122998367Y-49103799D01*
X122993284Y-49102894D01*
X122919452Y-49101992D01*
X122775081Y-49100228D01*
X122775079Y-49100228D01*
X122769911Y-49100165D01*
X122549091Y-49133955D01*
X122336756Y-49203357D01*
X122138607Y-49306507D01*
X122134474Y-49309610D01*
X122134471Y-49309612D01*
X121964100Y-49437530D01*
X121959965Y-49440635D01*
X121805629Y-49602138D01*
X121698201Y-49759621D01*
X121643293Y-49804621D01*
X121572768Y-49812792D01*
X121509021Y-49781538D01*
X121488324Y-49757054D01*
X121407822Y-49632617D01*
X121407820Y-49632614D01*
X121405014Y-49628277D01*
X121254670Y-49463051D01*
X121250619Y-49459852D01*
X121250615Y-49459848D01*
X121083414Y-49327800D01*
X121083410Y-49327798D01*
X121079359Y-49324598D01*
X121043028Y-49304542D01*
X120936681Y-49245836D01*
X120883789Y-49216638D01*
X120878920Y-49214914D01*
X120878916Y-49214912D01*
X120678087Y-49143795D01*
X120678083Y-49143794D01*
X120673212Y-49142069D01*
X120668119Y-49141162D01*
X120668116Y-49141161D01*
X120458373Y-49103800D01*
X120458367Y-49103799D01*
X120453284Y-49102894D01*
X120379452Y-49101992D01*
X120235081Y-49100228D01*
X120235079Y-49100228D01*
X120229911Y-49100165D01*
X120009091Y-49133955D01*
X119796756Y-49203357D01*
X119598607Y-49306507D01*
X119594474Y-49309610D01*
X119594471Y-49309612D01*
X119424100Y-49437530D01*
X119419965Y-49440635D01*
X119265629Y-49602138D01*
X119158201Y-49759621D01*
X119103293Y-49804621D01*
X119032768Y-49812792D01*
X118969021Y-49781538D01*
X118948324Y-49757054D01*
X118867822Y-49632617D01*
X118867820Y-49632614D01*
X118865014Y-49628277D01*
X118714670Y-49463051D01*
X118710619Y-49459852D01*
X118710615Y-49459848D01*
X118543414Y-49327800D01*
X118543410Y-49327798D01*
X118539359Y-49324598D01*
X118503028Y-49304542D01*
X118396681Y-49245836D01*
X118343789Y-49216638D01*
X118338920Y-49214914D01*
X118338916Y-49214912D01*
X118138087Y-49143795D01*
X118138083Y-49143794D01*
X118133212Y-49142069D01*
X118128119Y-49141162D01*
X118128116Y-49141161D01*
X117918373Y-49103800D01*
X117918367Y-49103799D01*
X117913284Y-49102894D01*
X117839452Y-49101992D01*
X117695081Y-49100228D01*
X117695079Y-49100228D01*
X117689911Y-49100165D01*
X117469091Y-49133955D01*
X117256756Y-49203357D01*
X117058607Y-49306507D01*
X117054474Y-49309610D01*
X117054471Y-49309612D01*
X116884100Y-49437530D01*
X116879965Y-49440635D01*
X116725629Y-49602138D01*
X116618201Y-49759621D01*
X116563293Y-49804621D01*
X116492768Y-49812792D01*
X116429021Y-49781538D01*
X116408324Y-49757054D01*
X116327822Y-49632617D01*
X116327820Y-49632614D01*
X116325014Y-49628277D01*
X116174670Y-49463051D01*
X116170619Y-49459852D01*
X116170615Y-49459848D01*
X116003414Y-49327800D01*
X116003410Y-49327798D01*
X115999359Y-49324598D01*
X115963028Y-49304542D01*
X115856681Y-49245836D01*
X115803789Y-49216638D01*
X115798920Y-49214914D01*
X115798916Y-49214912D01*
X115598087Y-49143795D01*
X115598083Y-49143794D01*
X115593212Y-49142069D01*
X115588119Y-49141162D01*
X115588116Y-49141161D01*
X115378373Y-49103800D01*
X115378367Y-49103799D01*
X115373284Y-49102894D01*
X115299452Y-49101992D01*
X115155081Y-49100228D01*
X115155079Y-49100228D01*
X115149911Y-49100165D01*
X114929091Y-49133955D01*
X114716756Y-49203357D01*
X114518607Y-49306507D01*
X114514474Y-49309610D01*
X114514471Y-49309612D01*
X114344100Y-49437530D01*
X114339965Y-49440635D01*
X114185629Y-49602138D01*
X114078201Y-49759621D01*
X114023293Y-49804621D01*
X113952768Y-49812792D01*
X113889021Y-49781538D01*
X113868324Y-49757054D01*
X113787822Y-49632617D01*
X113787820Y-49632614D01*
X113785014Y-49628277D01*
X113634670Y-49463051D01*
X113630619Y-49459852D01*
X113630615Y-49459848D01*
X113463414Y-49327800D01*
X113463410Y-49327798D01*
X113459359Y-49324598D01*
X113423028Y-49304542D01*
X113316681Y-49245836D01*
X113263789Y-49216638D01*
X113258920Y-49214914D01*
X113258916Y-49214912D01*
X113058087Y-49143795D01*
X113058083Y-49143794D01*
X113053212Y-49142069D01*
X113048119Y-49141162D01*
X113048116Y-49141161D01*
X112838373Y-49103800D01*
X112838367Y-49103799D01*
X112833284Y-49102894D01*
X112759452Y-49101992D01*
X112615081Y-49100228D01*
X112615079Y-49100228D01*
X112609911Y-49100165D01*
X112389091Y-49133955D01*
X112176756Y-49203357D01*
X111978607Y-49306507D01*
X111974474Y-49309610D01*
X111974471Y-49309612D01*
X111872307Y-49386319D01*
X111805822Y-49411225D01*
X111736426Y-49396233D01*
X111707559Y-49374654D01*
X110247652Y-47914747D01*
X110240112Y-47906461D01*
X110236000Y-47899982D01*
X110186348Y-47853356D01*
X110183507Y-47850602D01*
X110163770Y-47830865D01*
X110160573Y-47828385D01*
X110151551Y-47820680D01*
X110138122Y-47808069D01*
X110119321Y-47790414D01*
X110112375Y-47786595D01*
X110112372Y-47786593D01*
X110101566Y-47780652D01*
X110085047Y-47769801D01*
X110084583Y-47769441D01*
X110069041Y-47757386D01*
X110061772Y-47754241D01*
X110061768Y-47754238D01*
X110028463Y-47739826D01*
X110017813Y-47734609D01*
X109979060Y-47713305D01*
X109959437Y-47708267D01*
X109940734Y-47701863D01*
X109929420Y-47696967D01*
X109929419Y-47696967D01*
X109922145Y-47693819D01*
X109914322Y-47692580D01*
X109914312Y-47692577D01*
X109878476Y-47686901D01*
X109866856Y-47684495D01*
X109831711Y-47675472D01*
X109831710Y-47675472D01*
X109824030Y-47673500D01*
X109803776Y-47673500D01*
X109784065Y-47671949D01*
X109771886Y-47670020D01*
X109764057Y-47668780D01*
X109734786Y-47671547D01*
X109720039Y-47672941D01*
X109708181Y-47673500D01*
X82747167Y-47673500D01*
X82735984Y-47672973D01*
X82728491Y-47671298D01*
X82720565Y-47671547D01*
X82720564Y-47671547D01*
X82660401Y-47673438D01*
X82656443Y-47673500D01*
X82628544Y-47673500D01*
X82624554Y-47674004D01*
X82612720Y-47674936D01*
X82568511Y-47676326D01*
X82560897Y-47678538D01*
X82560892Y-47678539D01*
X82549059Y-47681977D01*
X82529696Y-47685988D01*
X82509603Y-47688526D01*
X82502236Y-47691443D01*
X82502231Y-47691444D01*
X82468492Y-47704802D01*
X82457265Y-47708646D01*
X82414807Y-47720982D01*
X82407981Y-47725019D01*
X82397372Y-47731293D01*
X82379624Y-47739988D01*
X82360783Y-47747448D01*
X82354367Y-47752110D01*
X82354366Y-47752110D01*
X82325013Y-47773436D01*
X82315093Y-47779952D01*
X82283865Y-47798420D01*
X82283862Y-47798422D01*
X82277038Y-47802458D01*
X82262717Y-47816779D01*
X82247684Y-47829619D01*
X82231293Y-47841528D01*
X82222617Y-47852016D01*
X82203102Y-47875605D01*
X82195112Y-47884384D01*
X80694903Y-49384592D01*
X80632591Y-49418618D01*
X80561775Y-49413553D01*
X80527715Y-49394378D01*
X80502741Y-49374654D01*
X80443948Y-49328222D01*
X80443415Y-49327801D01*
X80443413Y-49327800D01*
X80439359Y-49324598D01*
X80403028Y-49304542D01*
X80296681Y-49245836D01*
X80243789Y-49216638D01*
X80238920Y-49214914D01*
X80238916Y-49214912D01*
X80038087Y-49143795D01*
X80038083Y-49143794D01*
X80033212Y-49142069D01*
X80028119Y-49141162D01*
X80028116Y-49141161D01*
X79818373Y-49103800D01*
X79818367Y-49103799D01*
X79813284Y-49102894D01*
X79739452Y-49101992D01*
X79595081Y-49100228D01*
X79595079Y-49100228D01*
X79589911Y-49100165D01*
X79369091Y-49133955D01*
X79156756Y-49203357D01*
X78958607Y-49306507D01*
X78954474Y-49309610D01*
X78954471Y-49309612D01*
X78784100Y-49437530D01*
X78779965Y-49440635D01*
X78625629Y-49602138D01*
X78518201Y-49759621D01*
X78463293Y-49804621D01*
X78392768Y-49812792D01*
X78329021Y-49781538D01*
X78308324Y-49757054D01*
X78227822Y-49632617D01*
X78227820Y-49632614D01*
X78225014Y-49628277D01*
X78074670Y-49463051D01*
X78070619Y-49459852D01*
X78070615Y-49459848D01*
X77903414Y-49327800D01*
X77903410Y-49327798D01*
X77899359Y-49324598D01*
X77863028Y-49304542D01*
X77756681Y-49245836D01*
X77703789Y-49216638D01*
X77698920Y-49214914D01*
X77698916Y-49214912D01*
X77498087Y-49143795D01*
X77498083Y-49143794D01*
X77493212Y-49142069D01*
X77488119Y-49141162D01*
X77488116Y-49141161D01*
X77278373Y-49103800D01*
X77278367Y-49103799D01*
X77273284Y-49102894D01*
X77199452Y-49101992D01*
X77055081Y-49100228D01*
X77055079Y-49100228D01*
X77049911Y-49100165D01*
X76829091Y-49133955D01*
X76616756Y-49203357D01*
X76418607Y-49306507D01*
X76414474Y-49309610D01*
X76414471Y-49309612D01*
X76244100Y-49437530D01*
X76239965Y-49440635D01*
X76085629Y-49602138D01*
X75978201Y-49759621D01*
X75923293Y-49804621D01*
X75852768Y-49812792D01*
X75789021Y-49781538D01*
X75768324Y-49757054D01*
X75687822Y-49632617D01*
X75687820Y-49632614D01*
X75685014Y-49628277D01*
X75534670Y-49463051D01*
X75530619Y-49459852D01*
X75530615Y-49459848D01*
X75363414Y-49327800D01*
X75363410Y-49327798D01*
X75359359Y-49324598D01*
X75323028Y-49304542D01*
X75216681Y-49245836D01*
X75163789Y-49216638D01*
X75158920Y-49214914D01*
X75158916Y-49214912D01*
X74958087Y-49143795D01*
X74958083Y-49143794D01*
X74953212Y-49142069D01*
X74948119Y-49141162D01*
X74948116Y-49141161D01*
X74738373Y-49103800D01*
X74738367Y-49103799D01*
X74733284Y-49102894D01*
X74659452Y-49101992D01*
X74515081Y-49100228D01*
X74515079Y-49100228D01*
X74509911Y-49100165D01*
X74289091Y-49133955D01*
X74076756Y-49203357D01*
X73878607Y-49306507D01*
X73874474Y-49309610D01*
X73874471Y-49309612D01*
X73704100Y-49437530D01*
X73699965Y-49440635D01*
X73545629Y-49602138D01*
X73438201Y-49759621D01*
X73383293Y-49804621D01*
X73312768Y-49812792D01*
X73249021Y-49781538D01*
X73228324Y-49757054D01*
X73147822Y-49632617D01*
X73147820Y-49632614D01*
X73145014Y-49628277D01*
X72994670Y-49463051D01*
X72990619Y-49459852D01*
X72990615Y-49459848D01*
X72823414Y-49327800D01*
X72823410Y-49327798D01*
X72819359Y-49324598D01*
X72783028Y-49304542D01*
X72676681Y-49245836D01*
X72623789Y-49216638D01*
X72618920Y-49214914D01*
X72618916Y-49214912D01*
X72418087Y-49143795D01*
X72418083Y-49143794D01*
X72413212Y-49142069D01*
X72408119Y-49141162D01*
X72408116Y-49141161D01*
X72198373Y-49103800D01*
X72198367Y-49103799D01*
X72193284Y-49102894D01*
X72119452Y-49101992D01*
X71975081Y-49100228D01*
X71975079Y-49100228D01*
X71969911Y-49100165D01*
X71749091Y-49133955D01*
X71536756Y-49203357D01*
X71338607Y-49306507D01*
X71334474Y-49309610D01*
X71334471Y-49309612D01*
X71164100Y-49437530D01*
X71159965Y-49440635D01*
X71005629Y-49602138D01*
X70898201Y-49759621D01*
X70843293Y-49804621D01*
X70772768Y-49812792D01*
X70709021Y-49781538D01*
X70688324Y-49757054D01*
X70607822Y-49632617D01*
X70607820Y-49632614D01*
X70605014Y-49628277D01*
X70454670Y-49463051D01*
X70450619Y-49459852D01*
X70450615Y-49459848D01*
X70283414Y-49327800D01*
X70283410Y-49327798D01*
X70279359Y-49324598D01*
X70243028Y-49304542D01*
X70136681Y-49245836D01*
X70083789Y-49216638D01*
X70078920Y-49214914D01*
X70078916Y-49214912D01*
X69878087Y-49143795D01*
X69878083Y-49143794D01*
X69873212Y-49142069D01*
X69868119Y-49141162D01*
X69868116Y-49141161D01*
X69658373Y-49103800D01*
X69658367Y-49103799D01*
X69653284Y-49102894D01*
X69579452Y-49101992D01*
X69435081Y-49100228D01*
X69435079Y-49100228D01*
X69429911Y-49100165D01*
X69209091Y-49133955D01*
X68996756Y-49203357D01*
X68798607Y-49306507D01*
X68794474Y-49309610D01*
X68794471Y-49309612D01*
X68624100Y-49437530D01*
X68619965Y-49440635D01*
X68465629Y-49602138D01*
X68462720Y-49606403D01*
X68462714Y-49606411D01*
X68454942Y-49617804D01*
X68339743Y-49786680D01*
X68245688Y-49989305D01*
X68185989Y-50204570D01*
X68162251Y-50426695D01*
X68175110Y-50649715D01*
X68176247Y-50654761D01*
X68176248Y-50654767D01*
X68189597Y-50714000D01*
X68224222Y-50867639D01*
X68308266Y-51074616D01*
X68358863Y-51157183D01*
X68422291Y-51260688D01*
X68424987Y-51265088D01*
X68571250Y-51433938D01*
X68575230Y-51437242D01*
X68579981Y-51441187D01*
X68619616Y-51500090D01*
X68621113Y-51571071D01*
X68583997Y-51631593D01*
X68543725Y-51656112D01*
X68492291Y-51675394D01*
X68428295Y-51699385D01*
X68311739Y-51786739D01*
X68224385Y-51903295D01*
X68173255Y-52039684D01*
X68172402Y-52047536D01*
X68172401Y-52047540D01*
X68168229Y-52085950D01*
X68140987Y-52151513D01*
X68082624Y-52191939D01*
X68069606Y-52195494D01*
X68050097Y-52199712D01*
X68037537Y-52201769D01*
X67994445Y-52206603D01*
X67987794Y-52208919D01*
X67987790Y-52208920D01*
X67962770Y-52217633D01*
X67947957Y-52221796D01*
X67915190Y-52228881D01*
X67875887Y-52247208D01*
X67864111Y-52251990D01*
X67823148Y-52266255D01*
X67817173Y-52269989D01*
X67817170Y-52269990D01*
X67794705Y-52284027D01*
X67781188Y-52291366D01*
X67763493Y-52299618D01*
X67750798Y-52305538D01*
X67745233Y-52309855D01*
X67745231Y-52309856D01*
X67716547Y-52332106D01*
X67706088Y-52339402D01*
X67675296Y-52358642D01*
X67675293Y-52358644D01*
X67669324Y-52362374D01*
X67664329Y-52367334D01*
X67664328Y-52367335D01*
X67640521Y-52390976D01*
X67639896Y-52391561D01*
X67639230Y-52392078D01*
X67613240Y-52418068D01*
X67540618Y-52490185D01*
X67539960Y-52491222D01*
X67538857Y-52492451D01*
X63929184Y-56102124D01*
X63866872Y-56136150D01*
X63796057Y-56131085D01*
X63750995Y-56102126D01*
X61583618Y-53934827D01*
X61582688Y-53933887D01*
X61536907Y-53887137D01*
X61519629Y-53869493D01*
X61513708Y-53865677D01*
X61483185Y-53846006D01*
X61472834Y-53838568D01*
X61444452Y-53815912D01*
X61438945Y-53811516D01*
X61408750Y-53796920D01*
X61395344Y-53789397D01*
X61367162Y-53771235D01*
X61360538Y-53768824D01*
X61360536Y-53768823D01*
X61326421Y-53756405D01*
X61314683Y-53751447D01*
X61281983Y-53735640D01*
X61281975Y-53735637D01*
X61275638Y-53732574D01*
X61242969Y-53725032D01*
X61228220Y-53720663D01*
X61203335Y-53711606D01*
X61203331Y-53711605D01*
X61196715Y-53709197D01*
X61189726Y-53708314D01*
X61153703Y-53703763D01*
X61141165Y-53701531D01*
X61102268Y-53692551D01*
X61040395Y-53657741D01*
X61008028Y-53598926D01*
X61007698Y-53597539D01*
X61006845Y-53589684D01*
X61004072Y-53582285D01*
X60958867Y-53461703D01*
X60955715Y-53453295D01*
X60868361Y-53336739D01*
X60751805Y-53249385D01*
X60615416Y-53198255D01*
X60553234Y-53191500D01*
X58856966Y-53191500D01*
X58794784Y-53198255D01*
X58658395Y-53249385D01*
X58541839Y-53336739D01*
X58454485Y-53453295D01*
X58403355Y-53589684D01*
X58396600Y-53651866D01*
X58396600Y-53655185D01*
X58372947Y-53722110D01*
X58326944Y-53757804D01*
X58327959Y-53759734D01*
X58317100Y-53765442D01*
X58316855Y-53765632D01*
X58316697Y-53765653D01*
X58278666Y-53785644D01*
X57577122Y-54487188D01*
X57569508Y-54501132D01*
X56839456Y-54501132D01*
X56840692Y-54498868D01*
X56840561Y-54497035D01*
X56836310Y-54490420D01*
X56130813Y-53784923D01*
X56119038Y-53778493D01*
X56107023Y-53787789D01*
X56071169Y-53838994D01*
X56065686Y-53848489D01*
X55973610Y-54045947D01*
X55969864Y-54056239D01*
X55913475Y-54266688D01*
X55911572Y-54277481D01*
X55892583Y-54494525D01*
X55892583Y-54505475D01*
X50508500Y-54505475D01*
X50508500Y-53412988D01*
X56483676Y-53412988D01*
X56490744Y-53426434D01*
X57192288Y-54127978D01*
X57206232Y-54135592D01*
X57208065Y-54135461D01*
X57214680Y-54131210D01*
X57920177Y-53425713D01*
X57926607Y-53413938D01*
X57917311Y-53401923D01*
X57866106Y-53366069D01*
X57856611Y-53360586D01*
X57659153Y-53268510D01*
X57648861Y-53264764D01*
X57438412Y-53208375D01*
X57427619Y-53206472D01*
X57210575Y-53187483D01*
X57199625Y-53187483D01*
X56982581Y-53206472D01*
X56971788Y-53208375D01*
X56761339Y-53264764D01*
X56751047Y-53268510D01*
X56553589Y-53360586D01*
X56544094Y-53366069D01*
X56492052Y-53402509D01*
X56483676Y-53412988D01*
X50508500Y-53412988D01*
X50508500Y-44632703D01*
X53390743Y-44632703D01*
X53428268Y-44917734D01*
X53504129Y-45195036D01*
X53616923Y-45459476D01*
X53764561Y-45706161D01*
X53944313Y-45930528D01*
X54152851Y-46128423D01*
X54386317Y-46296186D01*
X54390112Y-46298195D01*
X54390113Y-46298196D01*
X54411869Y-46309715D01*
X54640392Y-46430712D01*
X54910373Y-46529511D01*
X55191264Y-46590755D01*
X55219841Y-46593004D01*
X55414282Y-46608307D01*
X55414291Y-46608307D01*
X55416739Y-46608500D01*
X55572271Y-46608500D01*
X55574407Y-46608354D01*
X55574418Y-46608354D01*
X55782548Y-46594165D01*
X55782554Y-46594164D01*
X55786825Y-46593873D01*
X55791020Y-46593004D01*
X55791022Y-46593004D01*
X55927583Y-46564724D01*
X56068342Y-46535574D01*
X56339343Y-46439607D01*
X56594812Y-46307750D01*
X56598313Y-46305289D01*
X56598317Y-46305287D01*
X56712418Y-46225095D01*
X56830023Y-46142441D01*
X57040622Y-45946740D01*
X57222713Y-45724268D01*
X57372927Y-45479142D01*
X57488483Y-45215898D01*
X57567244Y-44939406D01*
X57607751Y-44654784D01*
X57607845Y-44636951D01*
X57607867Y-44632703D01*
X142390743Y-44632703D01*
X142428268Y-44917734D01*
X142504129Y-45195036D01*
X142616923Y-45459476D01*
X142764561Y-45706161D01*
X142944313Y-45930528D01*
X143152851Y-46128423D01*
X143386317Y-46296186D01*
X143390112Y-46298195D01*
X143390113Y-46298196D01*
X143411869Y-46309715D01*
X143640392Y-46430712D01*
X143910373Y-46529511D01*
X144191264Y-46590755D01*
X144219841Y-46593004D01*
X144414282Y-46608307D01*
X144414291Y-46608307D01*
X144416739Y-46608500D01*
X144572271Y-46608500D01*
X144574407Y-46608354D01*
X144574418Y-46608354D01*
X144782548Y-46594165D01*
X144782554Y-46594164D01*
X144786825Y-46593873D01*
X144791020Y-46593004D01*
X144791022Y-46593004D01*
X144927583Y-46564724D01*
X145068342Y-46535574D01*
X145339343Y-46439607D01*
X145594812Y-46307750D01*
X145598313Y-46305289D01*
X145598317Y-46305287D01*
X145712418Y-46225095D01*
X145830023Y-46142441D01*
X146040622Y-45946740D01*
X146222713Y-45724268D01*
X146372927Y-45479142D01*
X146488483Y-45215898D01*
X146567244Y-44939406D01*
X146607751Y-44654784D01*
X146607845Y-44636951D01*
X146609235Y-44371583D01*
X146609235Y-44371576D01*
X146609257Y-44367297D01*
X146571732Y-44082266D01*
X146495871Y-43804964D01*
X146383077Y-43540524D01*
X146235439Y-43293839D01*
X146055687Y-43069472D01*
X145847149Y-42871577D01*
X145613683Y-42703814D01*
X145591843Y-42692250D01*
X145568654Y-42679972D01*
X145359608Y-42569288D01*
X145089627Y-42470489D01*
X144808736Y-42409245D01*
X144777685Y-42406801D01*
X144585718Y-42391693D01*
X144585709Y-42391693D01*
X144583261Y-42391500D01*
X144427729Y-42391500D01*
X144425593Y-42391646D01*
X144425582Y-42391646D01*
X144217452Y-42405835D01*
X144217446Y-42405836D01*
X144213175Y-42406127D01*
X144208980Y-42406996D01*
X144208978Y-42406996D01*
X144072416Y-42435277D01*
X143931658Y-42464426D01*
X143660657Y-42560393D01*
X143405188Y-42692250D01*
X143401687Y-42694711D01*
X143401683Y-42694713D01*
X143391594Y-42701804D01*
X143169977Y-42857559D01*
X142959378Y-43053260D01*
X142777287Y-43275732D01*
X142627073Y-43520858D01*
X142511517Y-43784102D01*
X142432756Y-44060594D01*
X142392249Y-44345216D01*
X142392227Y-44349505D01*
X142392226Y-44349512D01*
X142390765Y-44628417D01*
X142390743Y-44632703D01*
X57607867Y-44632703D01*
X57609235Y-44371583D01*
X57609235Y-44371576D01*
X57609257Y-44367297D01*
X57571732Y-44082266D01*
X57495871Y-43804964D01*
X57383077Y-43540524D01*
X57235439Y-43293839D01*
X57055687Y-43069472D01*
X56847149Y-42871577D01*
X56613683Y-42703814D01*
X56591843Y-42692250D01*
X56568654Y-42679972D01*
X56359608Y-42569288D01*
X56089627Y-42470489D01*
X55808736Y-42409245D01*
X55777685Y-42406801D01*
X55585718Y-42391693D01*
X55585709Y-42391693D01*
X55583261Y-42391500D01*
X55427729Y-42391500D01*
X55425593Y-42391646D01*
X55425582Y-42391646D01*
X55217452Y-42405835D01*
X55217446Y-42405836D01*
X55213175Y-42406127D01*
X55208980Y-42406996D01*
X55208978Y-42406996D01*
X55072417Y-42435276D01*
X54931658Y-42464426D01*
X54660657Y-42560393D01*
X54405188Y-42692250D01*
X54401687Y-42694711D01*
X54401683Y-42694713D01*
X54391594Y-42701804D01*
X54169977Y-42857559D01*
X53959378Y-43053260D01*
X53777287Y-43275732D01*
X53627073Y-43520858D01*
X53511517Y-43784102D01*
X53432756Y-44060594D01*
X53392249Y-44345216D01*
X53392227Y-44349505D01*
X53392226Y-44349512D01*
X53390765Y-44628417D01*
X53390743Y-44632703D01*
X50508500Y-44632703D01*
X50508500Y-40634500D01*
X50528502Y-40566379D01*
X50582158Y-40519886D01*
X50634500Y-40508500D01*
X149365500Y-40508500D01*
X149433621Y-40528502D01*
G37*
G04 #@! TD.AperFunction*
G04 #@! TA.AperFunction,Conductor*
G36*
X72519165Y-69156256D02*
G01*
X72577961Y-69196050D01*
X72605909Y-69261314D01*
X72606800Y-69276273D01*
X72606800Y-76724244D01*
X72586798Y-76792365D01*
X72533142Y-76838858D01*
X72462868Y-76848962D01*
X72448189Y-76845951D01*
X72271497Y-76798606D01*
X72257401Y-76798942D01*
X72254000Y-76806884D01*
X72254000Y-79347967D01*
X72257973Y-79361498D01*
X72266522Y-79362727D01*
X72448189Y-79314049D01*
X72519165Y-79315739D01*
X72577961Y-79355533D01*
X72605909Y-79420797D01*
X72606800Y-79435756D01*
X72606800Y-102513005D01*
X72586798Y-102581126D01*
X72533142Y-102627619D01*
X72462868Y-102637723D01*
X72398288Y-102608229D01*
X72391705Y-102602100D01*
X71520305Y-101730700D01*
X71486279Y-101668388D01*
X71483400Y-101641605D01*
X71483400Y-79459925D01*
X71503402Y-79391804D01*
X71557058Y-79345311D01*
X71627332Y-79335207D01*
X71642011Y-79338218D01*
X71728503Y-79361394D01*
X71742599Y-79361058D01*
X71746000Y-79353116D01*
X71746000Y-76812033D01*
X71742027Y-76798502D01*
X71733478Y-76797273D01*
X71642011Y-76821782D01*
X71571035Y-76820092D01*
X71512239Y-76780298D01*
X71484291Y-76715034D01*
X71483400Y-76700075D01*
X71483400Y-69300443D01*
X71503402Y-69232322D01*
X71557058Y-69185829D01*
X71627332Y-69175725D01*
X71642011Y-69178736D01*
X71766598Y-69212119D01*
X71766600Y-69212119D01*
X71771913Y-69213543D01*
X72000000Y-69233498D01*
X72228087Y-69213543D01*
X72448190Y-69154566D01*
X72519165Y-69156256D01*
G37*
G04 #@! TD.AperFunction*
G04 #@! TA.AperFunction,Conductor*
G36*
X120784933Y-54715439D02*
G01*
X120841768Y-54757986D01*
X120866579Y-54824506D01*
X120866900Y-54833495D01*
X120866900Y-62568633D01*
X120866373Y-62579816D01*
X120864698Y-62587309D01*
X120864947Y-62595235D01*
X120864947Y-62595236D01*
X120866838Y-62655386D01*
X120866900Y-62659345D01*
X120866900Y-62687256D01*
X120867397Y-62691190D01*
X120867397Y-62691191D01*
X120867405Y-62691256D01*
X120868338Y-62703093D01*
X120869727Y-62747289D01*
X120875378Y-62766739D01*
X120879387Y-62786100D01*
X120881926Y-62806197D01*
X120884845Y-62813568D01*
X120884845Y-62813570D01*
X120898204Y-62847312D01*
X120902049Y-62858542D01*
X120914382Y-62900993D01*
X120918415Y-62907812D01*
X120918417Y-62907817D01*
X120924693Y-62918428D01*
X120933388Y-62936176D01*
X120940848Y-62955017D01*
X120945510Y-62961433D01*
X120945510Y-62961434D01*
X120966836Y-62990787D01*
X120973352Y-63000707D01*
X120995858Y-63038762D01*
X121010179Y-63053083D01*
X121023019Y-63068116D01*
X121034928Y-63084507D01*
X121041034Y-63089558D01*
X121069005Y-63112698D01*
X121077784Y-63120688D01*
X122620973Y-64663877D01*
X122654999Y-64726189D01*
X122649934Y-64797004D01*
X122607387Y-64853840D01*
X122596806Y-64860819D01*
X122593251Y-64862477D01*
X122536080Y-64902509D01*
X122410211Y-64990643D01*
X122410208Y-64990645D01*
X122405700Y-64993802D01*
X122243802Y-65155700D01*
X122240645Y-65160208D01*
X122240643Y-65160211D01*
X122202131Y-65215212D01*
X122112477Y-65343251D01*
X122110153Y-65348235D01*
X122108829Y-65350528D01*
X122057447Y-65399521D01*
X121987733Y-65412957D01*
X121921822Y-65386571D01*
X121890591Y-65350528D01*
X121883934Y-65338998D01*
X121847491Y-65286952D01*
X121837012Y-65278576D01*
X121823566Y-65285644D01*
X121122022Y-65987188D01*
X121114408Y-66001132D01*
X121114539Y-66002965D01*
X121118790Y-66009580D01*
X121824287Y-66715077D01*
X121836062Y-66721507D01*
X121848077Y-66712211D01*
X121883934Y-66661002D01*
X121890591Y-66649472D01*
X121941973Y-66600479D01*
X122011687Y-66587042D01*
X122077598Y-66613429D01*
X122108829Y-66649472D01*
X122110153Y-66651765D01*
X122112477Y-66656749D01*
X122120461Y-66668151D01*
X122232893Y-66828720D01*
X122243802Y-66844300D01*
X122244734Y-66845232D01*
X122272685Y-66909082D01*
X122261474Y-66979188D01*
X122235860Y-67015065D01*
X122189493Y-67060471D01*
X122166002Y-67096921D01*
X122158583Y-67107246D01*
X122131524Y-67141143D01*
X122128459Y-67147484D01*
X122128458Y-67147485D01*
X122116928Y-67171337D01*
X122109399Y-67184754D01*
X122091235Y-67212938D01*
X122088827Y-67219555D01*
X122088824Y-67219560D01*
X122076408Y-67253673D01*
X122071447Y-67265416D01*
X122055646Y-67298103D01*
X122055644Y-67298108D01*
X122052579Y-67304449D01*
X122050996Y-67311307D01*
X122050995Y-67311309D01*
X122045035Y-67337126D01*
X122040668Y-67351869D01*
X122029197Y-67383385D01*
X122028314Y-67390375D01*
X122028312Y-67390383D01*
X122023762Y-67426401D01*
X122021526Y-67438953D01*
X122014184Y-67470757D01*
X122011776Y-67481185D01*
X122011751Y-67488231D01*
X122011751Y-67488234D01*
X122011634Y-67521756D01*
X122011605Y-67522638D01*
X122011500Y-67523469D01*
X122011500Y-67560272D01*
X122011143Y-67662570D01*
X122011411Y-67663770D01*
X122011500Y-67665407D01*
X122011500Y-67780812D01*
X121991498Y-67848933D01*
X121974595Y-67869907D01*
X121813802Y-68030700D01*
X121682477Y-68218251D01*
X121680154Y-68223233D01*
X121680151Y-68223238D01*
X121609384Y-68375000D01*
X121585716Y-68425757D01*
X121584294Y-68431065D01*
X121584293Y-68431067D01*
X121538200Y-68603087D01*
X121526457Y-68646913D01*
X121506502Y-68875000D01*
X121526457Y-69103087D01*
X121527881Y-69108400D01*
X121527881Y-69108402D01*
X121561086Y-69232322D01*
X121585716Y-69324243D01*
X121588039Y-69329224D01*
X121588039Y-69329225D01*
X121680151Y-69526762D01*
X121680154Y-69526767D01*
X121682477Y-69531749D01*
X121813802Y-69719300D01*
X121975700Y-69881198D01*
X121980208Y-69884355D01*
X121980211Y-69884357D01*
X121985210Y-69887857D01*
X122163251Y-70012523D01*
X122168233Y-70014846D01*
X122168238Y-70014849D01*
X122202457Y-70030805D01*
X122255742Y-70077722D01*
X122275203Y-70145999D01*
X122254661Y-70213959D01*
X122202457Y-70259195D01*
X122168238Y-70275151D01*
X122168233Y-70275154D01*
X122163251Y-70277477D01*
X122060170Y-70349655D01*
X121980211Y-70405643D01*
X121980208Y-70405645D01*
X121975700Y-70408802D01*
X121813802Y-70570700D01*
X121682477Y-70758251D01*
X121680154Y-70763233D01*
X121680151Y-70763238D01*
X121669071Y-70787000D01*
X121585716Y-70965757D01*
X121584294Y-70971065D01*
X121584293Y-70971067D01*
X121527881Y-71181598D01*
X121526457Y-71186913D01*
X121506502Y-71415000D01*
X121526457Y-71643087D01*
X121527881Y-71648400D01*
X121527881Y-71648402D01*
X121568458Y-71799834D01*
X121585716Y-71864243D01*
X121588039Y-71869224D01*
X121588039Y-71869225D01*
X121680151Y-72066762D01*
X121680154Y-72066767D01*
X121682477Y-72071749D01*
X121751906Y-72170903D01*
X121765899Y-72190887D01*
X121813802Y-72259300D01*
X121975700Y-72421198D01*
X121980208Y-72424355D01*
X121980211Y-72424357D01*
X122010611Y-72445643D01*
X122163251Y-72552523D01*
X122168233Y-72554846D01*
X122168238Y-72554849D01*
X122202457Y-72570805D01*
X122255742Y-72617722D01*
X122275203Y-72685999D01*
X122254661Y-72753959D01*
X122202457Y-72799195D01*
X122168238Y-72815151D01*
X122168233Y-72815154D01*
X122163251Y-72817477D01*
X122110287Y-72854563D01*
X121980211Y-72945643D01*
X121980208Y-72945645D01*
X121975700Y-72948802D01*
X121813802Y-73110700D01*
X121682477Y-73298251D01*
X121680154Y-73303233D01*
X121680151Y-73303238D01*
X121611937Y-73449525D01*
X121585716Y-73505757D01*
X121584294Y-73511065D01*
X121584293Y-73511067D01*
X121538200Y-73683087D01*
X121526457Y-73726913D01*
X121506502Y-73955000D01*
X121526457Y-74183087D01*
X121527881Y-74188400D01*
X121527881Y-74188402D01*
X121558641Y-74303197D01*
X121585716Y-74404243D01*
X121588039Y-74409224D01*
X121588039Y-74409225D01*
X121680151Y-74606762D01*
X121680154Y-74606767D01*
X121682477Y-74611749D01*
X121813802Y-74799300D01*
X121975700Y-74961198D01*
X121980208Y-74964355D01*
X121980211Y-74964357D01*
X122010611Y-74985643D01*
X122163251Y-75092523D01*
X122168233Y-75094846D01*
X122168238Y-75094849D01*
X122202457Y-75110805D01*
X122255742Y-75157722D01*
X122275203Y-75225999D01*
X122254661Y-75293959D01*
X122202457Y-75339195D01*
X122168238Y-75355151D01*
X122168233Y-75355154D01*
X122163251Y-75357477D01*
X122153557Y-75364265D01*
X121980211Y-75485643D01*
X121980208Y-75485645D01*
X121975700Y-75488802D01*
X121813802Y-75650700D01*
X121682477Y-75838251D01*
X121680154Y-75843233D01*
X121680151Y-75843238D01*
X121669071Y-75867000D01*
X121585716Y-76045757D01*
X121584294Y-76051065D01*
X121584293Y-76051067D01*
X121527881Y-76261598D01*
X121526457Y-76266913D01*
X121506502Y-76495000D01*
X121526457Y-76723087D01*
X121527881Y-76728400D01*
X121527881Y-76728402D01*
X121582535Y-76932370D01*
X121585716Y-76944243D01*
X121588039Y-76949224D01*
X121588039Y-76949225D01*
X121680151Y-77146762D01*
X121680154Y-77146767D01*
X121682477Y-77151749D01*
X121813802Y-77339300D01*
X121831954Y-77357452D01*
X121865980Y-77419764D01*
X121860915Y-77490579D01*
X121831954Y-77535642D01*
X120838352Y-78529243D01*
X119849047Y-79518548D01*
X119840761Y-79526088D01*
X119834282Y-79530200D01*
X119828857Y-79535977D01*
X119787657Y-79579851D01*
X119784902Y-79582693D01*
X119765165Y-79602430D01*
X119762685Y-79605627D01*
X119754982Y-79614647D01*
X119724714Y-79646879D01*
X119720895Y-79653825D01*
X119720893Y-79653828D01*
X119714952Y-79664634D01*
X119704101Y-79681153D01*
X119691686Y-79697159D01*
X119688541Y-79704428D01*
X119688538Y-79704432D01*
X119674126Y-79737737D01*
X119668909Y-79748387D01*
X119647605Y-79787140D01*
X119645634Y-79794815D01*
X119645634Y-79794816D01*
X119642567Y-79806762D01*
X119636163Y-79825466D01*
X119634832Y-79828543D01*
X119628119Y-79844055D01*
X119626880Y-79851878D01*
X119626877Y-79851888D01*
X119621201Y-79887724D01*
X119618795Y-79899344D01*
X119613628Y-79919471D01*
X119607800Y-79942170D01*
X119607800Y-79962424D01*
X119606249Y-79982134D01*
X119603080Y-80002143D01*
X119603826Y-80010035D01*
X119607241Y-80046161D01*
X119607800Y-80058019D01*
X119607800Y-85464205D01*
X119587798Y-85532326D01*
X119570895Y-85553300D01*
X114885517Y-90238678D01*
X114823205Y-90272704D01*
X114752390Y-90267639D01*
X114695554Y-90225092D01*
X114670743Y-90158572D01*
X114680785Y-90099543D01*
X114684733Y-90090420D01*
X114684733Y-90090419D01*
X114687881Y-90083145D01*
X114689120Y-90075322D01*
X114689123Y-90075312D01*
X114694799Y-90039476D01*
X114697205Y-90027856D01*
X114706228Y-89992711D01*
X114706228Y-89992710D01*
X114708200Y-89985030D01*
X114708200Y-89964776D01*
X114709751Y-89945065D01*
X114711680Y-89932886D01*
X114712920Y-89925057D01*
X114708759Y-89881038D01*
X114708200Y-89869181D01*
X114708200Y-85501570D01*
X114728202Y-85433449D01*
X114781858Y-85386956D01*
X114852132Y-85376852D01*
X114866812Y-85379863D01*
X114928504Y-85396394D01*
X114942599Y-85396058D01*
X114946000Y-85388116D01*
X114946000Y-85382967D01*
X115454000Y-85382967D01*
X115457973Y-85396498D01*
X115466522Y-85397727D01*
X115643761Y-85350236D01*
X115654053Y-85346490D01*
X115851511Y-85254414D01*
X115861007Y-85248931D01*
X116039467Y-85123972D01*
X116047875Y-85116916D01*
X116201916Y-84962875D01*
X116208972Y-84954467D01*
X116333931Y-84776007D01*
X116339414Y-84766511D01*
X116431490Y-84569053D01*
X116435236Y-84558761D01*
X116481394Y-84386497D01*
X116481058Y-84372401D01*
X116473116Y-84369000D01*
X115472115Y-84369000D01*
X115456876Y-84373475D01*
X115455671Y-84374865D01*
X115454000Y-84382548D01*
X115454000Y-85382967D01*
X114946000Y-85382967D01*
X114946000Y-83987000D01*
X114966002Y-83918879D01*
X115019658Y-83872386D01*
X115072000Y-83861000D01*
X116467967Y-83861000D01*
X116481498Y-83857027D01*
X116482727Y-83848478D01*
X116435236Y-83671239D01*
X116431490Y-83660947D01*
X116339414Y-83463489D01*
X116333931Y-83453993D01*
X116208972Y-83275533D01*
X116201916Y-83267125D01*
X116047875Y-83113084D01*
X116039467Y-83106028D01*
X115866341Y-82984804D01*
X115822013Y-82929347D01*
X115814843Y-82857987D01*
X115815810Y-82852916D01*
X115817807Y-82842448D01*
X115819532Y-82834729D01*
X115833500Y-82780330D01*
X115833500Y-82777773D01*
X115860928Y-82714887D01*
X115885280Y-82692545D01*
X115922544Y-82666453D01*
X115980519Y-82625858D01*
X116039789Y-82584357D01*
X116039792Y-82584355D01*
X116044300Y-82581198D01*
X116206198Y-82419300D01*
X116221583Y-82397329D01*
X116264098Y-82336611D01*
X116337523Y-82231749D01*
X116339846Y-82226767D01*
X116339849Y-82226762D01*
X116431961Y-82029225D01*
X116431961Y-82029224D01*
X116434284Y-82024243D01*
X116457029Y-81939360D01*
X116492119Y-81808402D01*
X116492119Y-81808400D01*
X116493543Y-81803087D01*
X116513498Y-81575000D01*
X116493543Y-81346913D01*
X116492119Y-81341598D01*
X116435707Y-81131067D01*
X116435706Y-81131065D01*
X116434284Y-81125757D01*
X116408063Y-81069525D01*
X116339849Y-80923238D01*
X116339846Y-80923233D01*
X116337523Y-80918251D01*
X116206198Y-80730700D01*
X116044300Y-80568802D01*
X116039792Y-80565645D01*
X116039789Y-80565643D01*
X115909713Y-80474563D01*
X115856749Y-80437477D01*
X115851767Y-80435154D01*
X115851762Y-80435151D01*
X115817543Y-80419195D01*
X115764258Y-80372278D01*
X115744797Y-80304001D01*
X115765339Y-80236041D01*
X115817543Y-80190805D01*
X115851762Y-80174849D01*
X115851767Y-80174846D01*
X115856749Y-80172523D01*
X116009389Y-80065643D01*
X116039789Y-80044357D01*
X116039792Y-80044355D01*
X116044300Y-80041198D01*
X116206198Y-79879300D01*
X116337523Y-79691749D01*
X116339846Y-79686767D01*
X116339849Y-79686762D01*
X116431961Y-79489225D01*
X116431961Y-79489224D01*
X116434284Y-79484243D01*
X116451285Y-79420797D01*
X116492119Y-79268402D01*
X116492119Y-79268400D01*
X116493543Y-79263087D01*
X116513498Y-79035000D01*
X116493543Y-78806913D01*
X116492119Y-78801598D01*
X116435707Y-78591067D01*
X116435706Y-78591065D01*
X116434284Y-78585757D01*
X116410616Y-78535000D01*
X116339849Y-78383238D01*
X116339846Y-78383233D01*
X116337523Y-78378251D01*
X116206198Y-78190700D01*
X116044300Y-78028802D01*
X116039792Y-78025645D01*
X116039789Y-78025643D01*
X115866443Y-77904265D01*
X115856749Y-77897477D01*
X115851767Y-77895154D01*
X115851762Y-77895151D01*
X115817543Y-77879195D01*
X115764258Y-77832278D01*
X115744797Y-77764001D01*
X115765339Y-77696041D01*
X115817543Y-77650805D01*
X115851762Y-77634849D01*
X115851767Y-77634846D01*
X115856749Y-77632523D01*
X116009389Y-77525643D01*
X116039789Y-77504357D01*
X116039792Y-77504355D01*
X116044300Y-77501198D01*
X116206198Y-77339300D01*
X116337523Y-77151749D01*
X116339846Y-77146767D01*
X116339849Y-77146762D01*
X116431961Y-76949225D01*
X116431961Y-76949224D01*
X116434284Y-76944243D01*
X116437466Y-76932370D01*
X116492119Y-76728402D01*
X116492119Y-76728400D01*
X116493543Y-76723087D01*
X116513498Y-76495000D01*
X116493543Y-76266913D01*
X116492119Y-76261598D01*
X116435707Y-76051067D01*
X116435706Y-76051065D01*
X116434284Y-76045757D01*
X116350929Y-75867000D01*
X116339849Y-75843238D01*
X116339846Y-75843233D01*
X116337523Y-75838251D01*
X116206198Y-75650700D01*
X116044300Y-75488802D01*
X116039792Y-75485645D01*
X116039789Y-75485643D01*
X115866444Y-75364265D01*
X115822116Y-75308808D01*
X115814945Y-75237449D01*
X115817812Y-75222424D01*
X115819532Y-75214729D01*
X115833500Y-75160330D01*
X115833500Y-75157773D01*
X115860928Y-75094887D01*
X115885280Y-75072545D01*
X116039789Y-74964357D01*
X116039792Y-74964355D01*
X116044300Y-74961198D01*
X116206198Y-74799300D01*
X116337523Y-74611749D01*
X116339846Y-74606767D01*
X116339849Y-74606762D01*
X116431961Y-74409225D01*
X116431961Y-74409224D01*
X116434284Y-74404243D01*
X116461360Y-74303197D01*
X116492119Y-74188402D01*
X116492119Y-74188400D01*
X116493543Y-74183087D01*
X116513498Y-73955000D01*
X116493543Y-73726913D01*
X116481800Y-73683087D01*
X116435707Y-73511067D01*
X116435706Y-73511065D01*
X116434284Y-73505757D01*
X116408063Y-73449525D01*
X116339849Y-73303238D01*
X116339846Y-73303233D01*
X116337523Y-73298251D01*
X116206198Y-73110700D01*
X116044300Y-72948802D01*
X116039792Y-72945645D01*
X116039789Y-72945643D01*
X115909713Y-72854563D01*
X115856749Y-72817477D01*
X115851767Y-72815154D01*
X115851762Y-72815151D01*
X115817543Y-72799195D01*
X115764258Y-72752278D01*
X115744797Y-72684001D01*
X115765339Y-72616041D01*
X115817543Y-72570805D01*
X115851762Y-72554849D01*
X115851767Y-72554846D01*
X115856749Y-72552523D01*
X116009389Y-72445643D01*
X116039789Y-72424357D01*
X116039792Y-72424355D01*
X116044300Y-72421198D01*
X116206198Y-72259300D01*
X116254102Y-72190887D01*
X116268094Y-72170903D01*
X116337523Y-72071749D01*
X116339846Y-72066767D01*
X116339849Y-72066762D01*
X116431961Y-71869225D01*
X116431961Y-71869224D01*
X116434284Y-71864243D01*
X116451543Y-71799834D01*
X116492119Y-71648402D01*
X116492119Y-71648400D01*
X116493543Y-71643087D01*
X116513498Y-71415000D01*
X116493543Y-71186913D01*
X116492119Y-71181598D01*
X116435707Y-70971067D01*
X116435706Y-70971065D01*
X116434284Y-70965757D01*
X116408063Y-70909525D01*
X116372656Y-70833592D01*
X116361995Y-70763400D01*
X116390976Y-70698588D01*
X116397756Y-70691248D01*
X116717547Y-70371457D01*
X116725837Y-70363913D01*
X116732318Y-70359800D01*
X116778959Y-70310132D01*
X116781713Y-70307291D01*
X116801435Y-70287569D01*
X116803919Y-70284367D01*
X116811617Y-70275355D01*
X116836461Y-70248898D01*
X116841886Y-70243121D01*
X116851647Y-70225366D01*
X116862498Y-70208847D01*
X116874914Y-70192841D01*
X116881511Y-70177597D01*
X116892474Y-70152263D01*
X116897691Y-70141613D01*
X116918995Y-70102860D01*
X116924033Y-70083237D01*
X116930437Y-70064534D01*
X116935333Y-70053220D01*
X116935333Y-70053219D01*
X116938481Y-70045945D01*
X116939720Y-70038122D01*
X116939723Y-70038112D01*
X116945399Y-70002276D01*
X116947805Y-69990656D01*
X116956828Y-69955511D01*
X116956828Y-69955510D01*
X116958800Y-69947830D01*
X116958800Y-69927576D01*
X116960351Y-69907865D01*
X116962280Y-69895686D01*
X116963520Y-69887857D01*
X116959359Y-69843838D01*
X116958800Y-69831981D01*
X116958800Y-67086062D01*
X120028493Y-67086062D01*
X120037789Y-67098077D01*
X120088994Y-67133931D01*
X120098489Y-67139414D01*
X120295947Y-67231490D01*
X120306239Y-67235236D01*
X120516688Y-67291625D01*
X120527481Y-67293528D01*
X120744525Y-67312517D01*
X120755475Y-67312517D01*
X120972519Y-67293528D01*
X120983312Y-67291625D01*
X121193761Y-67235236D01*
X121204053Y-67231490D01*
X121401511Y-67139414D01*
X121411006Y-67133931D01*
X121463048Y-67097491D01*
X121471424Y-67087012D01*
X121464356Y-67073566D01*
X120762812Y-66372022D01*
X120748868Y-66364408D01*
X120747035Y-66364539D01*
X120740420Y-66368790D01*
X120034923Y-67074287D01*
X120028493Y-67086062D01*
X116958800Y-67086062D01*
X116958800Y-66005475D01*
X119437483Y-66005475D01*
X119456472Y-66222519D01*
X119458375Y-66233312D01*
X119514764Y-66443761D01*
X119518510Y-66454053D01*
X119610586Y-66651511D01*
X119616069Y-66661006D01*
X119652509Y-66713048D01*
X119662988Y-66721424D01*
X119676434Y-66714356D01*
X120377978Y-66012812D01*
X120385592Y-65998868D01*
X120385461Y-65997035D01*
X120381210Y-65990420D01*
X119675713Y-65284923D01*
X119663938Y-65278493D01*
X119651923Y-65287789D01*
X119616069Y-65338994D01*
X119610586Y-65348489D01*
X119518510Y-65545947D01*
X119514764Y-65556239D01*
X119458375Y-65766688D01*
X119456472Y-65777481D01*
X119437483Y-65994525D01*
X119437483Y-66005475D01*
X116958800Y-66005475D01*
X116958800Y-64912988D01*
X120028576Y-64912988D01*
X120035644Y-64926434D01*
X120737188Y-65627978D01*
X120751132Y-65635592D01*
X120752965Y-65635461D01*
X120759580Y-65631210D01*
X121465077Y-64925713D01*
X121471507Y-64913938D01*
X121462211Y-64901923D01*
X121411006Y-64866069D01*
X121401511Y-64860586D01*
X121204053Y-64768510D01*
X121193761Y-64764764D01*
X120983312Y-64708375D01*
X120972519Y-64706472D01*
X120755475Y-64687483D01*
X120744525Y-64687483D01*
X120527481Y-64706472D01*
X120516688Y-64708375D01*
X120306239Y-64764764D01*
X120295947Y-64768510D01*
X120098489Y-64860586D01*
X120088994Y-64866069D01*
X120036952Y-64902509D01*
X120028576Y-64912988D01*
X116958800Y-64912988D01*
X116958800Y-58489594D01*
X116978802Y-58421473D01*
X116995705Y-58400499D01*
X120651805Y-54744400D01*
X120714117Y-54710374D01*
X120784933Y-54715439D01*
G37*
G04 #@! TD.AperFunction*
G04 #@! TA.AperFunction,Conductor*
G36*
X81891712Y-54738370D02*
G01*
X81898295Y-54744499D01*
X85744595Y-58590800D01*
X85778621Y-58653112D01*
X85781500Y-58679895D01*
X85781500Y-64222869D01*
X85761498Y-64290990D01*
X85707842Y-64337483D01*
X85637568Y-64347587D01*
X85602250Y-64337064D01*
X85454225Y-64268039D01*
X85454224Y-64268039D01*
X85449243Y-64265716D01*
X85443935Y-64264294D01*
X85443933Y-64264293D01*
X85233402Y-64207881D01*
X85233400Y-64207881D01*
X85228087Y-64206457D01*
X85000000Y-64186502D01*
X84771913Y-64206457D01*
X84766600Y-64207881D01*
X84766598Y-64207881D01*
X84556067Y-64264293D01*
X84556065Y-64264294D01*
X84550757Y-64265716D01*
X84545776Y-64268039D01*
X84545775Y-64268039D01*
X84348238Y-64360151D01*
X84348233Y-64360154D01*
X84343251Y-64362477D01*
X84269757Y-64413938D01*
X84160211Y-64490643D01*
X84160208Y-64490645D01*
X84155700Y-64493802D01*
X83993802Y-64655700D01*
X83862477Y-64843251D01*
X83860153Y-64848235D01*
X83858829Y-64850528D01*
X83807447Y-64899521D01*
X83737733Y-64912957D01*
X83671822Y-64886571D01*
X83640591Y-64850528D01*
X83633934Y-64838998D01*
X83597491Y-64786952D01*
X83587012Y-64778576D01*
X83573566Y-64785644D01*
X82872022Y-65487188D01*
X82864408Y-65501132D01*
X82864539Y-65502965D01*
X82868790Y-65509580D01*
X83574287Y-66215077D01*
X83586062Y-66221507D01*
X83598077Y-66212211D01*
X83633934Y-66161002D01*
X83640591Y-66149472D01*
X83691973Y-66100479D01*
X83761687Y-66087042D01*
X83827598Y-66113429D01*
X83858829Y-66149472D01*
X83860153Y-66151765D01*
X83862477Y-66156749D01*
X83865631Y-66161253D01*
X83988713Y-66337032D01*
X84011500Y-66409303D01*
X84011500Y-67280812D01*
X83991498Y-67348933D01*
X83974595Y-67369907D01*
X83813802Y-67530700D01*
X83810645Y-67535208D01*
X83810643Y-67535211D01*
X83782062Y-67576029D01*
X83682477Y-67718251D01*
X83680154Y-67723233D01*
X83680151Y-67723238D01*
X83588039Y-67920775D01*
X83585716Y-67925757D01*
X83584294Y-67931065D01*
X83584293Y-67931067D01*
X83558624Y-68026866D01*
X83526457Y-68146913D01*
X83506502Y-68375000D01*
X83526457Y-68603087D01*
X83527881Y-68608400D01*
X83527881Y-68608402D01*
X83539669Y-68652393D01*
X83585716Y-68824243D01*
X83588039Y-68829224D01*
X83588039Y-68829225D01*
X83680151Y-69026762D01*
X83680154Y-69026767D01*
X83682477Y-69031749D01*
X83732429Y-69103087D01*
X83808774Y-69212119D01*
X83813802Y-69219300D01*
X83975700Y-69381198D01*
X83980208Y-69384355D01*
X83980211Y-69384357D01*
X84049055Y-69432562D01*
X84163251Y-69512523D01*
X84168233Y-69514846D01*
X84168238Y-69514849D01*
X84203049Y-69531081D01*
X84256334Y-69577998D01*
X84275795Y-69646275D01*
X84255253Y-69714235D01*
X84203049Y-69759471D01*
X84168489Y-69775586D01*
X84158993Y-69781069D01*
X83980533Y-69906028D01*
X83972125Y-69913084D01*
X83818084Y-70067125D01*
X83811028Y-70075533D01*
X83686069Y-70253993D01*
X83680586Y-70263489D01*
X83588510Y-70460947D01*
X83584764Y-70471239D01*
X83538606Y-70643503D01*
X83538942Y-70657599D01*
X83546884Y-70661000D01*
X84948000Y-70661000D01*
X85016121Y-70681002D01*
X85062614Y-70734658D01*
X85074000Y-70787000D01*
X85074000Y-71043000D01*
X85053998Y-71111121D01*
X85000342Y-71157614D01*
X84948000Y-71169000D01*
X83552033Y-71169000D01*
X83538502Y-71172973D01*
X83537273Y-71181522D01*
X83584764Y-71358761D01*
X83588510Y-71369053D01*
X83680586Y-71566511D01*
X83686069Y-71576007D01*
X83811028Y-71754467D01*
X83818084Y-71762875D01*
X83972125Y-71916916D01*
X83980533Y-71923972D01*
X84158993Y-72048931D01*
X84168489Y-72054414D01*
X84203049Y-72070529D01*
X84256334Y-72117446D01*
X84275795Y-72185723D01*
X84255253Y-72253683D01*
X84203049Y-72298919D01*
X84168238Y-72315151D01*
X84168233Y-72315154D01*
X84163251Y-72317477D01*
X84106888Y-72356943D01*
X83980211Y-72445643D01*
X83980208Y-72445645D01*
X83975700Y-72448802D01*
X83813802Y-72610700D01*
X83810645Y-72615208D01*
X83810643Y-72615211D01*
X83786785Y-72649284D01*
X83682477Y-72798251D01*
X83680154Y-72803233D01*
X83680151Y-72803238D01*
X83629827Y-72911160D01*
X83585716Y-73005757D01*
X83584294Y-73011065D01*
X83584293Y-73011067D01*
X83557596Y-73110700D01*
X83526457Y-73226913D01*
X83506502Y-73455000D01*
X83526457Y-73683087D01*
X83527881Y-73688400D01*
X83527881Y-73688402D01*
X83539669Y-73732393D01*
X83585716Y-73904243D01*
X83588039Y-73909224D01*
X83588039Y-73909225D01*
X83680151Y-74106762D01*
X83680154Y-74106767D01*
X83682477Y-74111749D01*
X83813802Y-74299300D01*
X83975700Y-74461198D01*
X83980208Y-74464355D01*
X83980211Y-74464357D01*
X84049055Y-74512562D01*
X84163251Y-74592523D01*
X84168233Y-74594846D01*
X84168238Y-74594849D01*
X84203049Y-74611081D01*
X84256334Y-74657998D01*
X84275795Y-74726275D01*
X84255253Y-74794235D01*
X84203049Y-74839471D01*
X84168489Y-74855586D01*
X84158993Y-74861069D01*
X83980533Y-74986028D01*
X83972125Y-74993084D01*
X83818084Y-75147125D01*
X83811028Y-75155533D01*
X83686069Y-75333993D01*
X83680586Y-75343489D01*
X83588510Y-75540947D01*
X83584764Y-75551239D01*
X83538606Y-75723503D01*
X83538942Y-75737599D01*
X83546884Y-75741000D01*
X84948000Y-75741000D01*
X85016121Y-75761002D01*
X85062614Y-75814658D01*
X85074000Y-75867000D01*
X85074000Y-76123000D01*
X85053998Y-76191121D01*
X85000342Y-76237614D01*
X84948000Y-76249000D01*
X83552033Y-76249000D01*
X83538502Y-76252973D01*
X83537273Y-76261522D01*
X83584764Y-76438761D01*
X83588510Y-76449053D01*
X83680586Y-76646511D01*
X83686069Y-76656007D01*
X83811028Y-76834467D01*
X83818084Y-76842875D01*
X83972125Y-76996916D01*
X83980533Y-77003972D01*
X84158993Y-77128931D01*
X84168489Y-77134414D01*
X84203049Y-77150529D01*
X84256334Y-77197446D01*
X84275795Y-77265723D01*
X84255253Y-77333683D01*
X84203049Y-77378919D01*
X84168238Y-77395151D01*
X84168233Y-77395154D01*
X84163251Y-77397477D01*
X84131422Y-77419764D01*
X83980211Y-77525643D01*
X83980208Y-77525645D01*
X83975700Y-77528802D01*
X83813802Y-77690700D01*
X83810645Y-77695208D01*
X83810643Y-77695211D01*
X83786785Y-77729284D01*
X83682477Y-77878251D01*
X83680154Y-77883233D01*
X83680151Y-77883238D01*
X83588039Y-78080775D01*
X83585716Y-78085757D01*
X83584294Y-78091065D01*
X83584293Y-78091067D01*
X83557596Y-78190700D01*
X83526457Y-78306913D01*
X83506502Y-78535000D01*
X83526457Y-78763087D01*
X83527881Y-78768400D01*
X83527881Y-78768402D01*
X83539669Y-78812393D01*
X83585716Y-78984243D01*
X83588039Y-78989224D01*
X83588039Y-78989225D01*
X83680151Y-79186762D01*
X83680154Y-79186767D01*
X83682477Y-79191749D01*
X83732429Y-79263087D01*
X83808774Y-79372119D01*
X83813802Y-79379300D01*
X83975700Y-79541198D01*
X83980208Y-79544355D01*
X83980211Y-79544357D01*
X84030902Y-79579851D01*
X84163251Y-79672523D01*
X84168233Y-79674846D01*
X84168238Y-79674849D01*
X84203049Y-79691081D01*
X84256334Y-79737998D01*
X84275795Y-79806275D01*
X84255253Y-79874235D01*
X84203049Y-79919471D01*
X84168489Y-79935586D01*
X84158993Y-79941069D01*
X83980533Y-80066028D01*
X83972125Y-80073084D01*
X83818084Y-80227125D01*
X83811028Y-80235533D01*
X83686069Y-80413993D01*
X83680586Y-80423489D01*
X83588510Y-80620947D01*
X83584764Y-80631239D01*
X83538606Y-80803503D01*
X83538942Y-80817599D01*
X83546884Y-80821000D01*
X84948000Y-80821000D01*
X85016121Y-80841002D01*
X85062614Y-80894658D01*
X85074000Y-80947000D01*
X85074000Y-81203000D01*
X85053998Y-81271121D01*
X85000342Y-81317614D01*
X84948000Y-81329000D01*
X83552033Y-81329000D01*
X83538502Y-81332973D01*
X83537273Y-81341522D01*
X83584764Y-81518761D01*
X83588512Y-81529058D01*
X83590000Y-81532249D01*
X83590234Y-81533789D01*
X83590393Y-81534226D01*
X83590305Y-81534258D01*
X83600662Y-81602441D01*
X83571683Y-81667254D01*
X83512263Y-81706110D01*
X83475806Y-81711500D01*
X80348963Y-81711500D01*
X80337779Y-81710973D01*
X80330291Y-81709299D01*
X80322368Y-81709548D01*
X80262233Y-81711438D01*
X80258275Y-81711500D01*
X80230344Y-81711500D01*
X80226429Y-81711995D01*
X80226425Y-81711995D01*
X80226367Y-81712003D01*
X80226338Y-81712006D01*
X80214496Y-81712939D01*
X80170310Y-81714327D01*
X80152944Y-81719372D01*
X80150858Y-81719978D01*
X80131506Y-81723986D01*
X80119268Y-81725532D01*
X80119266Y-81725533D01*
X80111403Y-81726526D01*
X80070286Y-81742806D01*
X80059085Y-81746641D01*
X80016606Y-81758982D01*
X80009787Y-81763015D01*
X80009782Y-81763017D01*
X79999171Y-81769293D01*
X79981421Y-81777990D01*
X79962583Y-81785448D01*
X79956167Y-81790109D01*
X79956166Y-81790110D01*
X79926825Y-81811428D01*
X79916901Y-81817947D01*
X79885660Y-81836422D01*
X79885655Y-81836426D01*
X79878837Y-81840458D01*
X79864513Y-81854782D01*
X79849481Y-81867621D01*
X79833093Y-81879528D01*
X79815305Y-81901030D01*
X79804912Y-81913593D01*
X79796922Y-81922373D01*
X78599074Y-83120221D01*
X78536762Y-83154247D01*
X78465947Y-83149182D01*
X78409111Y-83106635D01*
X78395784Y-83084376D01*
X78339414Y-82963489D01*
X78333931Y-82953993D01*
X78208972Y-82775533D01*
X78201916Y-82767125D01*
X78047875Y-82613084D01*
X78039467Y-82606028D01*
X77861007Y-82481069D01*
X77851511Y-82475586D01*
X77816951Y-82459471D01*
X77763666Y-82412554D01*
X77744205Y-82344277D01*
X77764747Y-82276317D01*
X77816951Y-82231081D01*
X77851762Y-82214849D01*
X77851767Y-82214846D01*
X77856749Y-82212523D01*
X77994332Y-82116186D01*
X78039789Y-82084357D01*
X78039792Y-82084355D01*
X78044300Y-82081198D01*
X78206198Y-81919300D01*
X78226913Y-81889717D01*
X78287571Y-81803087D01*
X78337523Y-81731749D01*
X78339846Y-81726767D01*
X78339849Y-81726762D01*
X78431961Y-81529225D01*
X78431961Y-81529224D01*
X78434284Y-81524243D01*
X78480332Y-81352393D01*
X78492119Y-81308402D01*
X78492119Y-81308400D01*
X78493543Y-81303087D01*
X78513498Y-81075000D01*
X78493543Y-80846913D01*
X78462404Y-80730700D01*
X78435707Y-80631067D01*
X78435706Y-80631065D01*
X78434284Y-80625757D01*
X78390173Y-80531160D01*
X78339849Y-80423238D01*
X78339846Y-80423233D01*
X78337523Y-80418251D01*
X78206198Y-80230700D01*
X78044300Y-80068802D01*
X78039792Y-80065645D01*
X78039789Y-80065643D01*
X77906541Y-79972342D01*
X77856749Y-79937477D01*
X77851767Y-79935154D01*
X77851762Y-79935151D01*
X77816951Y-79918919D01*
X77763666Y-79872002D01*
X77744205Y-79803725D01*
X77764747Y-79735765D01*
X77816951Y-79690529D01*
X77851511Y-79674414D01*
X77861007Y-79668931D01*
X78039467Y-79543972D01*
X78047875Y-79536916D01*
X78201916Y-79382875D01*
X78208972Y-79374467D01*
X78333931Y-79196007D01*
X78339414Y-79186511D01*
X78431490Y-78989053D01*
X78435236Y-78978761D01*
X78481394Y-78806497D01*
X78481058Y-78792401D01*
X78473116Y-78789000D01*
X75932033Y-78789000D01*
X75918502Y-78792973D01*
X75917273Y-78801522D01*
X75964764Y-78978761D01*
X75968510Y-78989053D01*
X76060586Y-79186511D01*
X76066069Y-79196007D01*
X76191028Y-79374467D01*
X76198084Y-79382875D01*
X76352125Y-79536916D01*
X76360533Y-79543972D01*
X76538993Y-79668931D01*
X76548489Y-79674414D01*
X76583049Y-79690529D01*
X76636334Y-79737446D01*
X76655795Y-79805723D01*
X76635253Y-79873683D01*
X76583049Y-79918919D01*
X76548238Y-79935151D01*
X76548233Y-79935154D01*
X76543251Y-79937477D01*
X76493459Y-79972342D01*
X76360211Y-80065643D01*
X76360208Y-80065645D01*
X76355700Y-80068802D01*
X76193802Y-80230700D01*
X76062477Y-80418251D01*
X76060154Y-80423233D01*
X76060151Y-80423238D01*
X76009827Y-80531160D01*
X75965716Y-80625757D01*
X75964294Y-80631065D01*
X75964293Y-80631067D01*
X75937596Y-80730700D01*
X75906457Y-80846913D01*
X75886502Y-81075000D01*
X75906457Y-81303087D01*
X75907881Y-81308400D01*
X75907881Y-81308402D01*
X75919669Y-81352393D01*
X75965716Y-81524243D01*
X75968039Y-81529224D01*
X75968039Y-81529225D01*
X76060151Y-81726762D01*
X76060154Y-81726767D01*
X76062477Y-81731749D01*
X76112429Y-81803087D01*
X76173088Y-81889717D01*
X76193802Y-81919300D01*
X76355700Y-82081198D01*
X76360208Y-82084355D01*
X76360211Y-82084357D01*
X76405668Y-82116186D01*
X76543251Y-82212523D01*
X76548233Y-82214846D01*
X76548238Y-82214849D01*
X76583049Y-82231081D01*
X76636334Y-82277998D01*
X76655795Y-82346275D01*
X76635253Y-82414235D01*
X76583049Y-82459471D01*
X76548489Y-82475586D01*
X76538993Y-82481069D01*
X76360533Y-82606028D01*
X76352125Y-82613084D01*
X76198084Y-82767125D01*
X76191028Y-82775533D01*
X76066065Y-82953999D01*
X76065060Y-82955740D01*
X76064416Y-82956354D01*
X76062912Y-82958502D01*
X76062480Y-82958200D01*
X76013679Y-83004735D01*
X75943966Y-83018174D01*
X75878054Y-82991789D01*
X75866844Y-82981839D01*
X75275405Y-82390400D01*
X75241379Y-82328088D01*
X75238500Y-82301305D01*
X75238500Y-71763582D01*
X75258502Y-71695461D01*
X75312158Y-71648968D01*
X75382432Y-71638864D01*
X75447012Y-71668358D01*
X75483056Y-71724620D01*
X75483322Y-71724505D01*
X75484029Y-71726138D01*
X75485497Y-71728430D01*
X75488682Y-71739393D01*
X75492715Y-71746212D01*
X75492717Y-71746217D01*
X75498993Y-71756828D01*
X75507688Y-71774576D01*
X75515148Y-71793417D01*
X75519810Y-71799833D01*
X75519810Y-71799834D01*
X75541136Y-71829187D01*
X75547652Y-71839107D01*
X75562518Y-71864243D01*
X75570158Y-71877162D01*
X75584479Y-71891483D01*
X75597319Y-71906516D01*
X75609228Y-71922907D01*
X75615333Y-71927958D01*
X75615338Y-71927963D01*
X75643298Y-71951094D01*
X75652076Y-71959081D01*
X75947785Y-72254789D01*
X76164300Y-72471304D01*
X76198325Y-72533617D01*
X76193261Y-72604432D01*
X76178419Y-72632669D01*
X76062477Y-72798251D01*
X76060154Y-72803233D01*
X76060151Y-72803238D01*
X76009827Y-72911160D01*
X75965716Y-73005757D01*
X75964294Y-73011065D01*
X75964293Y-73011067D01*
X75937596Y-73110700D01*
X75906457Y-73226913D01*
X75886502Y-73455000D01*
X75906457Y-73683087D01*
X75907881Y-73688400D01*
X75907881Y-73688402D01*
X75919669Y-73732393D01*
X75965716Y-73904243D01*
X75968039Y-73909224D01*
X75968039Y-73909225D01*
X76060151Y-74106762D01*
X76060154Y-74106767D01*
X76062477Y-74111749D01*
X76193802Y-74299300D01*
X76355700Y-74461198D01*
X76360208Y-74464355D01*
X76360211Y-74464357D01*
X76429055Y-74512562D01*
X76543251Y-74592523D01*
X76548233Y-74594846D01*
X76548238Y-74594849D01*
X76582457Y-74610805D01*
X76635742Y-74657722D01*
X76655203Y-74725999D01*
X76634661Y-74793959D01*
X76582457Y-74839195D01*
X76548238Y-74855151D01*
X76548233Y-74855154D01*
X76543251Y-74857477D01*
X76463208Y-74913524D01*
X76360211Y-74985643D01*
X76360208Y-74985645D01*
X76355700Y-74988802D01*
X76193802Y-75150700D01*
X76190645Y-75155208D01*
X76190643Y-75155211D01*
X76166785Y-75189284D01*
X76062477Y-75338251D01*
X76060154Y-75343233D01*
X76060151Y-75343238D01*
X76009827Y-75451160D01*
X75965716Y-75545757D01*
X75964294Y-75551065D01*
X75964293Y-75551067D01*
X75937596Y-75650700D01*
X75906457Y-75766913D01*
X75886502Y-75995000D01*
X75906457Y-76223087D01*
X75907881Y-76228400D01*
X75907881Y-76228402D01*
X75962225Y-76431213D01*
X75965716Y-76444243D01*
X75968039Y-76449224D01*
X75968039Y-76449225D01*
X76060151Y-76646762D01*
X76060154Y-76646767D01*
X76062477Y-76651749D01*
X76112137Y-76722670D01*
X76181536Y-76821782D01*
X76193802Y-76839300D01*
X76355700Y-77001198D01*
X76360208Y-77004355D01*
X76360211Y-77004357D01*
X76403497Y-77034666D01*
X76543251Y-77132523D01*
X76548233Y-77134846D01*
X76548238Y-77134849D01*
X76583049Y-77151081D01*
X76636334Y-77197998D01*
X76655795Y-77266275D01*
X76635253Y-77334235D01*
X76583049Y-77379471D01*
X76548489Y-77395586D01*
X76538993Y-77401069D01*
X76360533Y-77526028D01*
X76352125Y-77533084D01*
X76198084Y-77687125D01*
X76191028Y-77695533D01*
X76066069Y-77873993D01*
X76060586Y-77883489D01*
X75968510Y-78080947D01*
X75964764Y-78091239D01*
X75918606Y-78263503D01*
X75918942Y-78277599D01*
X75926884Y-78281000D01*
X78467967Y-78281000D01*
X78481498Y-78277027D01*
X78482727Y-78268478D01*
X78435236Y-78091239D01*
X78431490Y-78080947D01*
X78339414Y-77883489D01*
X78333931Y-77873993D01*
X78208972Y-77695533D01*
X78201916Y-77687125D01*
X78047875Y-77533084D01*
X78039467Y-77526028D01*
X77861007Y-77401069D01*
X77851511Y-77395586D01*
X77816951Y-77379471D01*
X77763666Y-77332554D01*
X77744205Y-77264277D01*
X77764747Y-77196317D01*
X77816951Y-77151081D01*
X77851762Y-77134849D01*
X77851767Y-77134846D01*
X77856749Y-77132523D01*
X77996503Y-77034666D01*
X78039789Y-77004357D01*
X78039792Y-77004355D01*
X78044300Y-77001198D01*
X78206198Y-76839300D01*
X78218465Y-76821782D01*
X78287863Y-76722670D01*
X78337523Y-76651749D01*
X78339846Y-76646767D01*
X78339849Y-76646762D01*
X78431961Y-76449225D01*
X78431961Y-76449224D01*
X78434284Y-76444243D01*
X78437776Y-76431213D01*
X78492119Y-76228402D01*
X78492119Y-76228400D01*
X78493543Y-76223087D01*
X78513498Y-75995000D01*
X78493543Y-75766913D01*
X78462404Y-75650700D01*
X78435707Y-75551067D01*
X78435706Y-75551065D01*
X78434284Y-75545757D01*
X78390173Y-75451160D01*
X78339849Y-75343238D01*
X78339846Y-75343233D01*
X78337523Y-75338251D01*
X78233215Y-75189284D01*
X78209357Y-75155211D01*
X78209355Y-75155208D01*
X78206198Y-75150700D01*
X78044300Y-74988802D01*
X78039792Y-74985645D01*
X78039789Y-74985643D01*
X77936792Y-74913524D01*
X77856749Y-74857477D01*
X77851767Y-74855154D01*
X77851762Y-74855151D01*
X77817543Y-74839195D01*
X77764258Y-74792278D01*
X77744797Y-74724001D01*
X77765339Y-74656041D01*
X77817543Y-74610805D01*
X77851762Y-74594849D01*
X77851767Y-74594846D01*
X77856749Y-74592523D01*
X77970945Y-74512562D01*
X78039789Y-74464357D01*
X78039792Y-74464355D01*
X78044300Y-74461198D01*
X78206198Y-74299300D01*
X78337523Y-74111749D01*
X78339846Y-74106767D01*
X78339849Y-74106762D01*
X78431961Y-73909225D01*
X78431961Y-73909224D01*
X78434284Y-73904243D01*
X78480332Y-73732393D01*
X78492119Y-73688402D01*
X78492119Y-73688400D01*
X78493543Y-73683087D01*
X78513498Y-73455000D01*
X78493543Y-73226913D01*
X78462404Y-73110700D01*
X78435707Y-73011067D01*
X78435706Y-73011065D01*
X78434284Y-73005757D01*
X78390173Y-72911160D01*
X78339849Y-72803238D01*
X78339846Y-72803233D01*
X78337523Y-72798251D01*
X78233215Y-72649284D01*
X78209357Y-72615211D01*
X78209355Y-72615208D01*
X78206198Y-72610700D01*
X78044300Y-72448802D01*
X78039792Y-72445645D01*
X78039789Y-72445643D01*
X77882607Y-72335583D01*
X77838279Y-72280126D01*
X77829127Y-72240282D01*
X77827723Y-72217963D01*
X77827723Y-72217962D01*
X77827225Y-72210050D01*
X77824679Y-72202213D01*
X77819506Y-72179069D01*
X77819468Y-72178770D01*
X77818474Y-72170903D01*
X77818474Y-72170900D01*
X77819634Y-72170753D01*
X77821804Y-72107440D01*
X77862211Y-72049063D01*
X77869142Y-72043845D01*
X78039789Y-71924357D01*
X78039792Y-71924355D01*
X78044300Y-71921198D01*
X78206198Y-71759300D01*
X78227814Y-71728430D01*
X78269876Y-71668358D01*
X78337523Y-71571749D01*
X78339846Y-71566767D01*
X78339849Y-71566762D01*
X78431961Y-71369225D01*
X78431961Y-71369224D01*
X78434284Y-71364243D01*
X78480332Y-71192393D01*
X78492119Y-71148402D01*
X78492119Y-71148400D01*
X78493543Y-71143087D01*
X78513498Y-70915000D01*
X78493543Y-70686913D01*
X78462404Y-70570700D01*
X78435707Y-70471067D01*
X78435706Y-70471065D01*
X78434284Y-70465757D01*
X78404782Y-70402489D01*
X78372624Y-70333524D01*
X78361963Y-70263333D01*
X78390943Y-70198520D01*
X78397724Y-70191180D01*
X81441947Y-67146957D01*
X81450237Y-67139413D01*
X81456718Y-67135300D01*
X81503359Y-67085632D01*
X81506113Y-67082791D01*
X81525835Y-67063069D01*
X81528312Y-67059876D01*
X81536017Y-67050855D01*
X81560859Y-67024400D01*
X81566286Y-67018621D01*
X81570107Y-67011671D01*
X81576046Y-67000868D01*
X81586902Y-66984341D01*
X81594457Y-66974602D01*
X81594458Y-66974600D01*
X81599314Y-66968340D01*
X81616874Y-66927760D01*
X81622091Y-66917112D01*
X81639575Y-66885309D01*
X81639576Y-66885307D01*
X81643395Y-66878360D01*
X81648433Y-66858737D01*
X81654837Y-66840034D01*
X81659733Y-66828720D01*
X81659733Y-66828719D01*
X81662881Y-66821445D01*
X81664120Y-66813622D01*
X81664123Y-66813612D01*
X81669799Y-66777776D01*
X81672205Y-66766157D01*
X81682372Y-66726555D01*
X81718685Y-66665548D01*
X81782216Y-66633858D01*
X81857664Y-66643692D01*
X82045947Y-66731490D01*
X82056239Y-66735236D01*
X82266688Y-66791625D01*
X82277481Y-66793528D01*
X82494525Y-66812517D01*
X82505475Y-66812517D01*
X82722519Y-66793528D01*
X82733312Y-66791625D01*
X82943761Y-66735236D01*
X82954053Y-66731490D01*
X83151511Y-66639414D01*
X83161006Y-66633931D01*
X83213048Y-66597491D01*
X83221424Y-66587012D01*
X83214356Y-66573566D01*
X82229885Y-65589095D01*
X82195859Y-65526783D01*
X82200924Y-65455968D01*
X82229885Y-65410905D01*
X83215077Y-64425713D01*
X83221507Y-64413938D01*
X83212211Y-64401923D01*
X83161006Y-64366069D01*
X83151511Y-64360586D01*
X82954053Y-64268510D01*
X82943761Y-64264764D01*
X82733312Y-64208375D01*
X82722519Y-64206472D01*
X82505475Y-64187483D01*
X82494525Y-64187483D01*
X82277481Y-64206472D01*
X82266688Y-64208375D01*
X82056239Y-64264764D01*
X82045947Y-64268510D01*
X81862450Y-64354076D01*
X81792258Y-64364737D01*
X81727445Y-64335757D01*
X81688589Y-64276337D01*
X81683200Y-64239881D01*
X81683200Y-54833594D01*
X81703202Y-54765473D01*
X81756858Y-54718980D01*
X81827132Y-54708876D01*
X81891712Y-54738370D01*
G37*
G04 #@! TD.AperFunction*
M02*
