G04 #@! TF.GenerationSoftware,KiCad,Pcbnew,(6.0.4-0)*
G04 #@! TF.CreationDate,2022-11-05T11:58:52+09:00*
G04 #@! TF.ProjectId,PC8001toSBC8080BUS,50433830-3031-4746-9f53-424338303830,rev?*
G04 #@! TF.SameCoordinates,Original*
G04 #@! TF.FileFunction,Copper,L1,Top*
G04 #@! TF.FilePolarity,Positive*
%FSLAX46Y46*%
G04 Gerber Fmt 4.6, Leading zero omitted, Abs format (unit mm)*
G04 Created by KiCad (PCBNEW (6.0.4-0)) date 2022-11-05 11:58:52*
%MOMM*%
%LPD*%
G01*
G04 APERTURE LIST*
G04 #@! TA.AperFunction,ComponentPad*
%ADD10R,1.600000X1.600000*%
G04 #@! TD*
G04 #@! TA.AperFunction,ComponentPad*
%ADD11O,1.600000X1.600000*%
G04 #@! TD*
G04 #@! TA.AperFunction,ComponentPad*
%ADD12C,1.600000*%
G04 #@! TD*
G04 #@! TA.AperFunction,ComponentPad*
%ADD13R,1.700000X1.700000*%
G04 #@! TD*
G04 #@! TA.AperFunction,ComponentPad*
%ADD14O,1.700000X1.700000*%
G04 #@! TD*
G04 #@! TA.AperFunction,ViaPad*
%ADD15C,0.800000*%
G04 #@! TD*
G04 #@! TA.AperFunction,Conductor*
%ADD16C,0.250000*%
G04 #@! TD*
G04 #@! TA.AperFunction,Conductor*
%ADD17C,0.600000*%
G04 #@! TD*
G04 APERTURE END LIST*
D10*
X115200000Y-68875000D03*
D11*
X115200000Y-71415000D03*
X115200000Y-73955000D03*
X115200000Y-76495000D03*
X115200000Y-79035000D03*
X115200000Y-81575000D03*
X115200000Y-84115000D03*
X122820000Y-84115000D03*
X122820000Y-81575000D03*
X122820000Y-79035000D03*
X122820000Y-76495000D03*
X122820000Y-73955000D03*
X122820000Y-71415000D03*
X122820000Y-68875000D03*
X84820000Y-68375000D03*
X84820000Y-70915000D03*
X84820000Y-73455000D03*
X84820000Y-75995000D03*
X84820000Y-78535000D03*
X84820000Y-81075000D03*
X84820000Y-83615000D03*
X77200000Y-83615000D03*
X77200000Y-81075000D03*
X77200000Y-78535000D03*
X77200000Y-75995000D03*
X77200000Y-73455000D03*
X77200000Y-70915000D03*
D10*
X77200000Y-68375000D03*
D12*
X63500000Y-78080000D03*
D11*
X63500000Y-67920000D03*
D12*
X72000000Y-67920000D03*
D11*
X72000000Y-78080000D03*
D12*
X68000000Y-78080000D03*
D11*
X68000000Y-67920000D03*
D13*
X69525000Y-53000000D03*
D14*
X69525000Y-50460000D03*
X72065000Y-53000000D03*
X72065000Y-50460000D03*
X74605000Y-53000000D03*
X74605000Y-50460000D03*
X77145000Y-53000000D03*
X77145000Y-50460000D03*
X79685000Y-53000000D03*
X79685000Y-50460000D03*
X82225000Y-53000000D03*
X82225000Y-50460000D03*
X84765000Y-53000000D03*
X84765000Y-50460000D03*
X87305000Y-53000000D03*
X87305000Y-50460000D03*
X89845000Y-53000000D03*
X89845000Y-50460000D03*
X92385000Y-53000000D03*
X92385000Y-50460000D03*
X94925000Y-53000000D03*
X94925000Y-50460000D03*
X97465000Y-53000000D03*
X97465000Y-50460000D03*
X100005000Y-53000000D03*
X100005000Y-50460000D03*
X102545000Y-53000000D03*
X102545000Y-50460000D03*
X105085000Y-53000000D03*
X105085000Y-50460000D03*
X107625000Y-53000000D03*
X107625000Y-50460000D03*
X110165000Y-53000000D03*
X110165000Y-50460000D03*
X112705000Y-53000000D03*
X112705000Y-50460000D03*
X115245000Y-53000000D03*
X115245000Y-50460000D03*
X117785000Y-53000000D03*
X117785000Y-50460000D03*
X120325000Y-53000000D03*
X120325000Y-50460000D03*
X122865000Y-53000000D03*
X122865000Y-50460000D03*
X125405000Y-53000000D03*
X125405000Y-50460000D03*
X127945000Y-53000000D03*
X127945000Y-50460000D03*
X130485000Y-53000000D03*
X130485000Y-50460000D03*
D13*
X124125000Y-101350000D03*
D14*
X124125000Y-103890000D03*
X121585000Y-101350000D03*
X121585000Y-103890000D03*
X119045000Y-101350000D03*
X119045000Y-103890000D03*
X116505000Y-101350000D03*
X116505000Y-103890000D03*
X113965000Y-101350000D03*
X113965000Y-103890000D03*
X111425000Y-101350000D03*
X111425000Y-103890000D03*
X108885000Y-101350000D03*
X108885000Y-103890000D03*
X106345000Y-101350000D03*
X106345000Y-103890000D03*
X103805000Y-101350000D03*
X103805000Y-103890000D03*
X101265000Y-101350000D03*
X101265000Y-103890000D03*
X98725000Y-101350000D03*
X98725000Y-103890000D03*
X96185000Y-101350000D03*
X96185000Y-103890000D03*
X93645000Y-101350000D03*
X93645000Y-103890000D03*
X91105000Y-101350000D03*
X91105000Y-103890000D03*
X88565000Y-101350000D03*
X88565000Y-103890000D03*
X86025000Y-101350000D03*
X86025000Y-103890000D03*
X83485000Y-101350000D03*
X83485000Y-103890000D03*
X80945000Y-101350000D03*
X80945000Y-103890000D03*
X78405000Y-101350000D03*
X78405000Y-103890000D03*
X75865000Y-101350000D03*
X75865000Y-103890000D03*
D10*
X59705100Y-54500000D03*
D12*
X57205100Y-54500000D03*
D10*
X139000000Y-101294900D03*
D12*
X139000000Y-103794900D03*
X123250000Y-66000000D03*
X120750000Y-66000000D03*
X85000000Y-65500000D03*
X82500000Y-65500000D03*
D15*
X92019000Y-92901400D03*
X89559000Y-65460900D03*
X100687300Y-65460900D03*
X89885600Y-95859000D03*
X91105000Y-93859500D03*
X91969000Y-91450700D03*
X91505000Y-89799600D03*
X90448300Y-85432700D03*
X87936400Y-81988000D03*
X86415000Y-78596200D03*
X86436400Y-79954800D03*
D16*
X114918600Y-72540300D02*
X115200000Y-72540300D01*
X114074700Y-73384200D02*
X114918600Y-72540300D01*
X114074700Y-74508100D02*
X114074700Y-73384200D01*
X114936300Y-75369700D02*
X114074700Y-74508100D01*
X115200000Y-75369700D02*
X114936300Y-75369700D01*
X115200000Y-76495000D02*
X115200000Y-75369700D01*
X115200000Y-71415000D02*
X115200000Y-72540300D01*
X123101400Y-77909700D02*
X122820000Y-77909700D01*
X123945300Y-77065800D02*
X123101400Y-77909700D01*
X123945300Y-75924300D02*
X123945300Y-77065800D01*
X123101300Y-75080300D02*
X123945300Y-75924300D01*
X122820000Y-75080300D02*
X123101300Y-75080300D01*
X122820000Y-73955000D02*
X122820000Y-75080300D01*
X122820000Y-79035000D02*
X122820000Y-77909700D01*
X123101300Y-72829700D02*
X122820000Y-72829700D01*
X124400300Y-71530700D02*
X123101300Y-72829700D01*
X124400300Y-68145200D02*
X124400300Y-71530700D01*
X123380500Y-67125400D02*
X124400300Y-68145200D01*
X120246900Y-67125400D02*
X123380500Y-67125400D01*
X117785000Y-64663500D02*
X120246900Y-67125400D01*
X117785000Y-54175300D02*
X117785000Y-64663500D01*
X117785000Y-53000000D02*
X117785000Y-54175300D01*
X122820000Y-73955000D02*
X122820000Y-72829700D01*
X120569400Y-80449700D02*
X121694700Y-81575000D01*
X114997700Y-80449700D02*
X120569400Y-80449700D01*
X113618100Y-79070100D02*
X114997700Y-80449700D01*
X113618100Y-71300900D02*
X113618100Y-79070100D01*
X114918700Y-70000300D02*
X113618100Y-71300900D01*
X115200000Y-70000300D02*
X114918700Y-70000300D01*
X115200000Y-68875000D02*
X115200000Y-70000300D01*
X122820000Y-81575000D02*
X121694700Y-81575000D01*
X68000000Y-67920000D02*
X69125300Y-67920000D01*
X77200000Y-73455000D02*
X76074700Y-73455000D01*
X74660300Y-73455000D02*
X76074700Y-73455000D01*
X69125300Y-67920000D02*
X74660300Y-73455000D01*
X115481300Y-77909700D02*
X115200000Y-77909700D01*
X121694700Y-71696300D02*
X115481300Y-77909700D01*
X121694700Y-71415000D02*
X121694700Y-71696300D01*
X122820000Y-71415000D02*
X121694700Y-71415000D01*
X115200000Y-79035000D02*
X115200000Y-77909700D01*
X122820000Y-71415000D02*
X122820000Y-70289700D01*
X123101400Y-70289700D02*
X122820000Y-70289700D01*
X123945300Y-69445800D02*
X123101400Y-70289700D01*
X123945300Y-68344800D02*
X123945300Y-69445800D01*
X123202600Y-67602100D02*
X123945300Y-68344800D01*
X120086600Y-67602100D02*
X123202600Y-67602100D01*
X112705000Y-60220500D02*
X120086600Y-67602100D01*
X112705000Y-53000000D02*
X112705000Y-60220500D01*
X80945000Y-103890000D02*
X80945000Y-102714700D01*
X90230800Y-92901400D02*
X92019000Y-92901400D01*
X82120300Y-101011900D02*
X90230800Y-92901400D01*
X82120300Y-101906800D02*
X82120300Y-101011900D01*
X81312400Y-102714700D02*
X82120300Y-101906800D01*
X80945000Y-102714700D02*
X81312400Y-102714700D01*
X97097600Y-51635300D02*
X97465000Y-51635300D01*
X96289700Y-52443200D02*
X97097600Y-51635300D01*
X96289700Y-58730200D02*
X96289700Y-52443200D01*
X89559000Y-65460900D02*
X96289700Y-58730200D01*
X97465000Y-50460000D02*
X97465000Y-51635300D01*
X100687300Y-61113000D02*
X107625000Y-54175300D01*
X100687300Y-65460900D02*
X100687300Y-61113000D01*
X107625000Y-53000000D02*
X107625000Y-54175300D01*
X91105000Y-103890000D02*
X91105000Y-102714700D01*
X89885600Y-101862600D02*
X89885600Y-95859000D01*
X90737700Y-102714700D02*
X89885600Y-101862600D01*
X91105000Y-102714700D02*
X90737700Y-102714700D01*
X91105000Y-101350000D02*
X91105000Y-100174700D01*
X91105000Y-100174700D02*
X91105000Y-93859500D01*
X93645000Y-103890000D02*
X93645000Y-102714700D01*
X92744400Y-92226100D02*
X91969000Y-91450700D01*
X92744400Y-93381900D02*
X92744400Y-92226100D01*
X92430900Y-93695400D02*
X92744400Y-93381900D01*
X92430900Y-101867900D02*
X92430900Y-93695400D01*
X93277700Y-102714700D02*
X92430900Y-101867900D01*
X93645000Y-102714700D02*
X93277700Y-102714700D01*
X93645000Y-101350000D02*
X93645000Y-100174700D01*
X93645000Y-91939600D02*
X91505000Y-89799600D01*
X93645000Y-100174700D02*
X93645000Y-91939600D01*
X75619700Y-67920000D02*
X76074700Y-68375000D01*
X72000000Y-67920000D02*
X75619700Y-67920000D01*
X77200000Y-68375000D02*
X76074700Y-68375000D01*
X77481400Y-69500300D02*
X77200000Y-69500300D01*
X78325300Y-70344200D02*
X77481400Y-69500300D01*
X78325300Y-73631900D02*
X78325300Y-70344200D01*
X84643000Y-79949600D02*
X78325300Y-73631900D01*
X85345800Y-79949600D02*
X84643000Y-79949600D01*
X87117600Y-81721400D02*
X85345800Y-79949600D01*
X87117600Y-83154100D02*
X87117600Y-81721400D01*
X96185000Y-92221500D02*
X87117600Y-83154100D01*
X96185000Y-101350000D02*
X96185000Y-92221500D01*
X77200000Y-68375000D02*
X77200000Y-69500300D01*
X63500000Y-67920000D02*
X64625300Y-67920000D01*
X72700300Y-75995000D02*
X77200000Y-75995000D01*
X64625300Y-67920000D02*
X72700300Y-75995000D01*
X98725000Y-101350000D02*
X97549700Y-101350000D01*
X77200000Y-75995000D02*
X78325300Y-75995000D01*
X97549700Y-101717300D02*
X97549700Y-101350000D01*
X96741600Y-102525400D02*
X97549700Y-101717300D01*
X95663100Y-102525400D02*
X96741600Y-102525400D01*
X94823000Y-101685300D02*
X95663100Y-102525400D01*
X94823000Y-92005000D02*
X94823000Y-101685300D01*
X85163000Y-82345000D02*
X94823000Y-92005000D01*
X84394000Y-82345000D02*
X85163000Y-82345000D01*
X78325300Y-76276300D02*
X84394000Y-82345000D01*
X78325300Y-75995000D02*
X78325300Y-76276300D01*
X106345000Y-103890000D02*
X106345000Y-102714700D01*
X105169700Y-100154100D02*
X90448300Y-85432700D01*
X105169700Y-101906800D02*
X105169700Y-100154100D01*
X105977600Y-102714700D02*
X105169700Y-101906800D01*
X106345000Y-102714700D02*
X105977600Y-102714700D01*
X106345000Y-101350000D02*
X106345000Y-100174700D01*
X88158300Y-81988000D02*
X87936400Y-81988000D01*
X106345000Y-100174700D02*
X88158300Y-81988000D01*
X108885000Y-101350000D02*
X108885000Y-100174700D01*
X107993500Y-100174700D02*
X86415000Y-78596200D01*
X108885000Y-100174700D02*
X107993500Y-100174700D01*
X86139700Y-60630000D02*
X79685000Y-54175300D01*
X86139700Y-65961000D02*
X86139700Y-60630000D01*
X85151500Y-66949200D02*
X86139700Y-65961000D01*
X84647400Y-66949200D02*
X85151500Y-66949200D01*
X83668400Y-67928200D02*
X84647400Y-66949200D01*
X83668400Y-76451000D02*
X83668400Y-67928200D01*
X84482600Y-77265200D02*
X83668400Y-76451000D01*
X86619000Y-77265200D02*
X84482600Y-77265200D01*
X110249700Y-100895900D02*
X86619000Y-77265200D01*
X110249700Y-101906800D02*
X110249700Y-100895900D01*
X111057600Y-102714700D02*
X110249700Y-101906800D01*
X111425000Y-102714700D02*
X111057600Y-102714700D01*
X111425000Y-103890000D02*
X111425000Y-102714700D01*
X79685000Y-53000000D02*
X79685000Y-54175300D01*
X113965000Y-103890000D02*
X112789700Y-103890000D01*
X86929200Y-79954800D02*
X86436400Y-79954800D01*
X107615000Y-100640600D02*
X86929200Y-79954800D01*
X107615000Y-104311000D02*
X107615000Y-100640600D01*
X108415400Y-105111400D02*
X107615000Y-104311000D01*
X111935600Y-105111400D02*
X108415400Y-105111400D01*
X112789700Y-104257300D02*
X111935600Y-105111400D01*
X112789700Y-103890000D02*
X112789700Y-104257300D01*
D17*
X124125000Y-103890000D02*
X125475300Y-103890000D01*
X121585000Y-103890000D02*
X124125000Y-103890000D01*
X127945000Y-50460000D02*
X130485000Y-50460000D01*
X131844400Y-54905600D02*
X120750000Y-66000000D01*
X131844400Y-51819400D02*
X131844400Y-54905600D01*
X130485000Y-50460000D02*
X131844400Y-51819400D01*
X73755300Y-78535000D02*
X73300300Y-78080000D01*
X77200000Y-78535000D02*
X73755300Y-78535000D01*
X72000000Y-78080000D02*
X73300300Y-78080000D01*
X68205100Y-65500000D02*
X57205100Y-54500000D01*
X82500000Y-65500000D02*
X68205100Y-65500000D01*
X125570400Y-95785700D02*
X125570400Y-103794900D01*
X115200000Y-85415300D02*
X125570400Y-95785700D01*
X125475300Y-103890000D02*
X125570400Y-103794900D01*
X125570400Y-103794900D02*
X139000000Y-103794900D01*
X115200000Y-84115000D02*
X115200000Y-85415300D01*
X105779700Y-75995000D02*
X113899700Y-84115000D01*
X84820000Y-75995000D02*
X105779700Y-75995000D01*
X115200000Y-84115000D02*
X113899700Y-84115000D01*
X121585000Y-101350000D02*
X124125000Y-101350000D01*
X68000000Y-78080000D02*
X63500000Y-78080000D01*
X118647900Y-68875000D02*
X122820000Y-68875000D01*
X117347500Y-67574600D02*
X118647900Y-68875000D01*
X86920700Y-67574600D02*
X117347500Y-67574600D01*
X86120300Y-68375000D02*
X86920700Y-67574600D01*
X84820000Y-68375000D02*
X86120300Y-68375000D01*
X139000000Y-81750000D02*
X139000000Y-101294900D01*
X123250000Y-66000000D02*
X139000000Y-81750000D01*
X78514900Y-59014900D02*
X85000000Y-65500000D01*
X75539900Y-59014900D02*
X78514900Y-59014900D01*
X69525000Y-53000000D02*
X75539900Y-59014900D01*
G04 #@! TA.AperFunction,Conductor*
G36*
X149433621Y-40528502D02*
G01*
X149480114Y-40582158D01*
X149491500Y-40634500D01*
X149491500Y-114365500D01*
X149471498Y-114433621D01*
X149417842Y-114480114D01*
X149365500Y-114491500D01*
X50634500Y-114491500D01*
X50566379Y-114471498D01*
X50519886Y-114417842D01*
X50508500Y-114365500D01*
X50508500Y-110632703D01*
X53390743Y-110632703D01*
X53428268Y-110917734D01*
X53504129Y-111195036D01*
X53616923Y-111459476D01*
X53764561Y-111706161D01*
X53944313Y-111930528D01*
X54152851Y-112128423D01*
X54386317Y-112296186D01*
X54390112Y-112298195D01*
X54390113Y-112298196D01*
X54411869Y-112309715D01*
X54640392Y-112430712D01*
X54910373Y-112529511D01*
X55191264Y-112590755D01*
X55219841Y-112593004D01*
X55414282Y-112608307D01*
X55414291Y-112608307D01*
X55416739Y-112608500D01*
X55572271Y-112608500D01*
X55574407Y-112608354D01*
X55574418Y-112608354D01*
X55782548Y-112594165D01*
X55782554Y-112594164D01*
X55786825Y-112593873D01*
X55791020Y-112593004D01*
X55791022Y-112593004D01*
X55927584Y-112564723D01*
X56068342Y-112535574D01*
X56339343Y-112439607D01*
X56594812Y-112307750D01*
X56598313Y-112305289D01*
X56598317Y-112305287D01*
X56712418Y-112225095D01*
X56830023Y-112142441D01*
X57040622Y-111946740D01*
X57222713Y-111724268D01*
X57372927Y-111479142D01*
X57488483Y-111215898D01*
X57567244Y-110939406D01*
X57607751Y-110654784D01*
X57607845Y-110636951D01*
X57607867Y-110632703D01*
X142390743Y-110632703D01*
X142428268Y-110917734D01*
X142504129Y-111195036D01*
X142616923Y-111459476D01*
X142764561Y-111706161D01*
X142944313Y-111930528D01*
X143152851Y-112128423D01*
X143386317Y-112296186D01*
X143390112Y-112298195D01*
X143390113Y-112298196D01*
X143411869Y-112309715D01*
X143640392Y-112430712D01*
X143910373Y-112529511D01*
X144191264Y-112590755D01*
X144219841Y-112593004D01*
X144414282Y-112608307D01*
X144414291Y-112608307D01*
X144416739Y-112608500D01*
X144572271Y-112608500D01*
X144574407Y-112608354D01*
X144574418Y-112608354D01*
X144782548Y-112594165D01*
X144782554Y-112594164D01*
X144786825Y-112593873D01*
X144791020Y-112593004D01*
X144791022Y-112593004D01*
X144927584Y-112564723D01*
X145068342Y-112535574D01*
X145339343Y-112439607D01*
X145594812Y-112307750D01*
X145598313Y-112305289D01*
X145598317Y-112305287D01*
X145712418Y-112225095D01*
X145830023Y-112142441D01*
X146040622Y-111946740D01*
X146222713Y-111724268D01*
X146372927Y-111479142D01*
X146488483Y-111215898D01*
X146567244Y-110939406D01*
X146607751Y-110654784D01*
X146607845Y-110636951D01*
X146609235Y-110371583D01*
X146609235Y-110371576D01*
X146609257Y-110367297D01*
X146571732Y-110082266D01*
X146495871Y-109804964D01*
X146383077Y-109540524D01*
X146235439Y-109293839D01*
X146055687Y-109069472D01*
X145847149Y-108871577D01*
X145613683Y-108703814D01*
X145591843Y-108692250D01*
X145568654Y-108679972D01*
X145359608Y-108569288D01*
X145089627Y-108470489D01*
X144808736Y-108409245D01*
X144777685Y-108406801D01*
X144585718Y-108391693D01*
X144585709Y-108391693D01*
X144583261Y-108391500D01*
X144427729Y-108391500D01*
X144425593Y-108391646D01*
X144425582Y-108391646D01*
X144217452Y-108405835D01*
X144217446Y-108405836D01*
X144213175Y-108406127D01*
X144208980Y-108406996D01*
X144208978Y-108406996D01*
X144072417Y-108435276D01*
X143931658Y-108464426D01*
X143660657Y-108560393D01*
X143405188Y-108692250D01*
X143401687Y-108694711D01*
X143401683Y-108694713D01*
X143391594Y-108701804D01*
X143169977Y-108857559D01*
X142959378Y-109053260D01*
X142777287Y-109275732D01*
X142627073Y-109520858D01*
X142511517Y-109784102D01*
X142432756Y-110060594D01*
X142392249Y-110345216D01*
X142392227Y-110349505D01*
X142392226Y-110349512D01*
X142390765Y-110628417D01*
X142390743Y-110632703D01*
X57607867Y-110632703D01*
X57609235Y-110371583D01*
X57609235Y-110371576D01*
X57609257Y-110367297D01*
X57571732Y-110082266D01*
X57495871Y-109804964D01*
X57383077Y-109540524D01*
X57235439Y-109293839D01*
X57055687Y-109069472D01*
X56847149Y-108871577D01*
X56613683Y-108703814D01*
X56591843Y-108692250D01*
X56568654Y-108679972D01*
X56359608Y-108569288D01*
X56089627Y-108470489D01*
X55808736Y-108409245D01*
X55777685Y-108406801D01*
X55585718Y-108391693D01*
X55585709Y-108391693D01*
X55583261Y-108391500D01*
X55427729Y-108391500D01*
X55425593Y-108391646D01*
X55425582Y-108391646D01*
X55217452Y-108405835D01*
X55217446Y-108405836D01*
X55213175Y-108406127D01*
X55208980Y-108406996D01*
X55208978Y-108406996D01*
X55072417Y-108435276D01*
X54931658Y-108464426D01*
X54660657Y-108560393D01*
X54405188Y-108692250D01*
X54401687Y-108694711D01*
X54401683Y-108694713D01*
X54391594Y-108701804D01*
X54169977Y-108857559D01*
X53959378Y-109053260D01*
X53777287Y-109275732D01*
X53627073Y-109520858D01*
X53511517Y-109784102D01*
X53432756Y-110060594D01*
X53392249Y-110345216D01*
X53392227Y-110349505D01*
X53392226Y-110349512D01*
X53390765Y-110628417D01*
X53390743Y-110632703D01*
X50508500Y-110632703D01*
X50508500Y-83881522D01*
X75917273Y-83881522D01*
X75964764Y-84058761D01*
X75968510Y-84069053D01*
X76060586Y-84266511D01*
X76066069Y-84276007D01*
X76191028Y-84454467D01*
X76198084Y-84462875D01*
X76352125Y-84616916D01*
X76360533Y-84623972D01*
X76538993Y-84748931D01*
X76548489Y-84754414D01*
X76745947Y-84846490D01*
X76756239Y-84850236D01*
X76928503Y-84896394D01*
X76942599Y-84896058D01*
X76946000Y-84888116D01*
X76946000Y-84882967D01*
X77454000Y-84882967D01*
X77457973Y-84896498D01*
X77466522Y-84897727D01*
X77643761Y-84850236D01*
X77654053Y-84846490D01*
X77851511Y-84754414D01*
X77861007Y-84748931D01*
X78039467Y-84623972D01*
X78047875Y-84616916D01*
X78201916Y-84462875D01*
X78208972Y-84454467D01*
X78333931Y-84276007D01*
X78339414Y-84266511D01*
X78431490Y-84069053D01*
X78435236Y-84058761D01*
X78481394Y-83886497D01*
X78481058Y-83872401D01*
X78473116Y-83869000D01*
X77472115Y-83869000D01*
X77456876Y-83873475D01*
X77455671Y-83874865D01*
X77454000Y-83882548D01*
X77454000Y-84882967D01*
X76946000Y-84882967D01*
X76946000Y-83887115D01*
X76941525Y-83871876D01*
X76940135Y-83870671D01*
X76932452Y-83869000D01*
X75932033Y-83869000D01*
X75918502Y-83872973D01*
X75917273Y-83881522D01*
X50508500Y-83881522D01*
X50508500Y-81075000D01*
X75886502Y-81075000D01*
X75906457Y-81303087D01*
X75907881Y-81308400D01*
X75907881Y-81308402D01*
X75954962Y-81484107D01*
X75965716Y-81524243D01*
X75968039Y-81529224D01*
X75968039Y-81529225D01*
X76060151Y-81726762D01*
X76060154Y-81726767D01*
X76062477Y-81731749D01*
X76193802Y-81919300D01*
X76355700Y-82081198D01*
X76360208Y-82084355D01*
X76360211Y-82084357D01*
X76375992Y-82095407D01*
X76543251Y-82212523D01*
X76548233Y-82214846D01*
X76548238Y-82214849D01*
X76583049Y-82231081D01*
X76636334Y-82277998D01*
X76655795Y-82346275D01*
X76635253Y-82414235D01*
X76583049Y-82459471D01*
X76548489Y-82475586D01*
X76538993Y-82481069D01*
X76360533Y-82606028D01*
X76352125Y-82613084D01*
X76198084Y-82767125D01*
X76191028Y-82775533D01*
X76066069Y-82953993D01*
X76060586Y-82963489D01*
X75968510Y-83160947D01*
X75964764Y-83171239D01*
X75918606Y-83343503D01*
X75918942Y-83357599D01*
X75926884Y-83361000D01*
X78467967Y-83361000D01*
X78481498Y-83357027D01*
X78482727Y-83348478D01*
X78435236Y-83171239D01*
X78431490Y-83160947D01*
X78339414Y-82963489D01*
X78333931Y-82953993D01*
X78208972Y-82775533D01*
X78201916Y-82767125D01*
X78047875Y-82613084D01*
X78039467Y-82606028D01*
X77861007Y-82481069D01*
X77851511Y-82475586D01*
X77816951Y-82459471D01*
X77763666Y-82412554D01*
X77744205Y-82344277D01*
X77764747Y-82276317D01*
X77816951Y-82231081D01*
X77851762Y-82214849D01*
X77851767Y-82214846D01*
X77856749Y-82212523D01*
X78024008Y-82095407D01*
X78039789Y-82084357D01*
X78039792Y-82084355D01*
X78044300Y-82081198D01*
X78206198Y-81919300D01*
X78337523Y-81731749D01*
X78339846Y-81726767D01*
X78339849Y-81726762D01*
X78431961Y-81529225D01*
X78431961Y-81529224D01*
X78434284Y-81524243D01*
X78445039Y-81484107D01*
X78492119Y-81308402D01*
X78492119Y-81308400D01*
X78493543Y-81303087D01*
X78513498Y-81075000D01*
X78493543Y-80846913D01*
X78462404Y-80730700D01*
X78435707Y-80631067D01*
X78435706Y-80631065D01*
X78434284Y-80625757D01*
X78379914Y-80509159D01*
X78339849Y-80423238D01*
X78339846Y-80423233D01*
X78337523Y-80418251D01*
X78206198Y-80230700D01*
X78044300Y-80068802D01*
X78039792Y-80065645D01*
X78039789Y-80065643D01*
X77940410Y-79996057D01*
X77856749Y-79937477D01*
X77851767Y-79935154D01*
X77851762Y-79935151D01*
X77816951Y-79918919D01*
X77763666Y-79872002D01*
X77744205Y-79803725D01*
X77764747Y-79735765D01*
X77816951Y-79690529D01*
X77851511Y-79674414D01*
X77861007Y-79668931D01*
X78039467Y-79543972D01*
X78047875Y-79536916D01*
X78201916Y-79382875D01*
X78208972Y-79374467D01*
X78333931Y-79196007D01*
X78339414Y-79186511D01*
X78431490Y-78989053D01*
X78435236Y-78978761D01*
X78481394Y-78806497D01*
X78481058Y-78792401D01*
X78473116Y-78789000D01*
X75932033Y-78789000D01*
X75918502Y-78792973D01*
X75917273Y-78801522D01*
X75964764Y-78978761D01*
X75968510Y-78989053D01*
X76060586Y-79186511D01*
X76066069Y-79196007D01*
X76191028Y-79374467D01*
X76198084Y-79382875D01*
X76352125Y-79536916D01*
X76360533Y-79543972D01*
X76538993Y-79668931D01*
X76548489Y-79674414D01*
X76583049Y-79690529D01*
X76636334Y-79737446D01*
X76655795Y-79805723D01*
X76635253Y-79873683D01*
X76583049Y-79918919D01*
X76548238Y-79935151D01*
X76548233Y-79935154D01*
X76543251Y-79937477D01*
X76459590Y-79996057D01*
X76360211Y-80065643D01*
X76360208Y-80065645D01*
X76355700Y-80068802D01*
X76193802Y-80230700D01*
X76062477Y-80418251D01*
X76060154Y-80423233D01*
X76060151Y-80423238D01*
X76020086Y-80509159D01*
X75965716Y-80625757D01*
X75964294Y-80631065D01*
X75964293Y-80631067D01*
X75937596Y-80730700D01*
X75906457Y-80846913D01*
X75886502Y-81075000D01*
X50508500Y-81075000D01*
X50508500Y-78080000D01*
X62186502Y-78080000D01*
X62206457Y-78308087D01*
X62207881Y-78313400D01*
X62207881Y-78313402D01*
X62225258Y-78378251D01*
X62265716Y-78529243D01*
X62268039Y-78534224D01*
X62268039Y-78534225D01*
X62360151Y-78731762D01*
X62360154Y-78731767D01*
X62362477Y-78736749D01*
X62493802Y-78924300D01*
X62655700Y-79086198D01*
X62660208Y-79089355D01*
X62660211Y-79089357D01*
X62695342Y-79113956D01*
X62843251Y-79217523D01*
X62848233Y-79219846D01*
X62848238Y-79219849D01*
X63044765Y-79311490D01*
X63050757Y-79314284D01*
X63056065Y-79315706D01*
X63056067Y-79315707D01*
X63266598Y-79372119D01*
X63266600Y-79372119D01*
X63271913Y-79373543D01*
X63500000Y-79393498D01*
X63728087Y-79373543D01*
X63733400Y-79372119D01*
X63733402Y-79372119D01*
X63943933Y-79315707D01*
X63943935Y-79315706D01*
X63949243Y-79314284D01*
X63955235Y-79311490D01*
X64151762Y-79219849D01*
X64151767Y-79219846D01*
X64156749Y-79217523D01*
X64304658Y-79113956D01*
X64339789Y-79089357D01*
X64339792Y-79089355D01*
X64344300Y-79086198D01*
X64505093Y-78925405D01*
X64567405Y-78891379D01*
X64594188Y-78888500D01*
X66905812Y-78888500D01*
X66973933Y-78908502D01*
X66994907Y-78925405D01*
X67155700Y-79086198D01*
X67160208Y-79089355D01*
X67160211Y-79089357D01*
X67195342Y-79113956D01*
X67343251Y-79217523D01*
X67348233Y-79219846D01*
X67348238Y-79219849D01*
X67544765Y-79311490D01*
X67550757Y-79314284D01*
X67556065Y-79315706D01*
X67556067Y-79315707D01*
X67766598Y-79372119D01*
X67766600Y-79372119D01*
X67771913Y-79373543D01*
X68000000Y-79393498D01*
X68228087Y-79373543D01*
X68233400Y-79372119D01*
X68233402Y-79372119D01*
X68443933Y-79315707D01*
X68443935Y-79315706D01*
X68449243Y-79314284D01*
X68455235Y-79311490D01*
X68651762Y-79219849D01*
X68651767Y-79219846D01*
X68656749Y-79217523D01*
X68804658Y-79113956D01*
X68839789Y-79089357D01*
X68839792Y-79089355D01*
X68844300Y-79086198D01*
X69006198Y-78924300D01*
X69137523Y-78736749D01*
X69139846Y-78731767D01*
X69139849Y-78731762D01*
X69231961Y-78534225D01*
X69231961Y-78534224D01*
X69234284Y-78529243D01*
X69274743Y-78378251D01*
X69283245Y-78346522D01*
X70717273Y-78346522D01*
X70764764Y-78523761D01*
X70768510Y-78534053D01*
X70860586Y-78731511D01*
X70866069Y-78741007D01*
X70991028Y-78919467D01*
X70998084Y-78927875D01*
X71152125Y-79081916D01*
X71160533Y-79088972D01*
X71338993Y-79213931D01*
X71348489Y-79219414D01*
X71545947Y-79311490D01*
X71556239Y-79315236D01*
X71728503Y-79361394D01*
X71742599Y-79361058D01*
X71746000Y-79353116D01*
X71746000Y-79347967D01*
X72254000Y-79347967D01*
X72257973Y-79361498D01*
X72266522Y-79362727D01*
X72443761Y-79315236D01*
X72454053Y-79311490D01*
X72651511Y-79219414D01*
X72661007Y-79213931D01*
X72839467Y-79088972D01*
X72847875Y-79081916D01*
X73001916Y-78927875D01*
X73008972Y-78919467D01*
X73133931Y-78741007D01*
X73139414Y-78731511D01*
X73231490Y-78534053D01*
X73235236Y-78523761D01*
X73281394Y-78351497D01*
X73281058Y-78337401D01*
X73273116Y-78334000D01*
X72272115Y-78334000D01*
X72256876Y-78338475D01*
X72255671Y-78339865D01*
X72254000Y-78347548D01*
X72254000Y-79347967D01*
X71746000Y-79347967D01*
X71746000Y-78352115D01*
X71741525Y-78336876D01*
X71740135Y-78335671D01*
X71732452Y-78334000D01*
X70732033Y-78334000D01*
X70718502Y-78337973D01*
X70717273Y-78346522D01*
X69283245Y-78346522D01*
X69292119Y-78313402D01*
X69292119Y-78313400D01*
X69293543Y-78308087D01*
X69313498Y-78080000D01*
X69293543Y-77851913D01*
X69283244Y-77813478D01*
X69281911Y-77808503D01*
X70718606Y-77808503D01*
X70718942Y-77822599D01*
X70726884Y-77826000D01*
X71727885Y-77826000D01*
X71743124Y-77821525D01*
X71744329Y-77820135D01*
X71746000Y-77812452D01*
X71746000Y-77807885D01*
X72254000Y-77807885D01*
X72258475Y-77823124D01*
X72259865Y-77824329D01*
X72267548Y-77826000D01*
X73267967Y-77826000D01*
X73281498Y-77822027D01*
X73282727Y-77813478D01*
X73235236Y-77636239D01*
X73231490Y-77625947D01*
X73139414Y-77428489D01*
X73133931Y-77418993D01*
X73008972Y-77240533D01*
X73001916Y-77232125D01*
X72847875Y-77078084D01*
X72839467Y-77071028D01*
X72661007Y-76946069D01*
X72651511Y-76940586D01*
X72451080Y-76847124D01*
X72447037Y-76843564D01*
X72445138Y-76843876D01*
X72427965Y-76840532D01*
X72271497Y-76798606D01*
X72257401Y-76798942D01*
X72254000Y-76806884D01*
X72254000Y-77807885D01*
X71746000Y-77807885D01*
X71746000Y-76812033D01*
X71742027Y-76798502D01*
X71733478Y-76797273D01*
X71556239Y-76844764D01*
X71545947Y-76848510D01*
X71348489Y-76940586D01*
X71338993Y-76946069D01*
X71160533Y-77071028D01*
X71152125Y-77078084D01*
X70998084Y-77232125D01*
X70991028Y-77240533D01*
X70866069Y-77418993D01*
X70860586Y-77428489D01*
X70768510Y-77625947D01*
X70764764Y-77636239D01*
X70718606Y-77808503D01*
X69281911Y-77808503D01*
X69235707Y-77636067D01*
X69235706Y-77636065D01*
X69234284Y-77630757D01*
X69200264Y-77557800D01*
X69139849Y-77428238D01*
X69139846Y-77428233D01*
X69137523Y-77423251D01*
X69038084Y-77281238D01*
X69009357Y-77240211D01*
X69009355Y-77240208D01*
X69006198Y-77235700D01*
X68844300Y-77073802D01*
X68839792Y-77070645D01*
X68839789Y-77070643D01*
X68754807Y-77011138D01*
X68656749Y-76942477D01*
X68651767Y-76940154D01*
X68651762Y-76940151D01*
X68454225Y-76848039D01*
X68454224Y-76848039D01*
X68449243Y-76845716D01*
X68443935Y-76844294D01*
X68443933Y-76844293D01*
X68233402Y-76787881D01*
X68233400Y-76787881D01*
X68228087Y-76786457D01*
X68000000Y-76766502D01*
X67771913Y-76786457D01*
X67766600Y-76787881D01*
X67766598Y-76787881D01*
X67556067Y-76844293D01*
X67556065Y-76844294D01*
X67550757Y-76845716D01*
X67545776Y-76848039D01*
X67545775Y-76848039D01*
X67348238Y-76940151D01*
X67348233Y-76940154D01*
X67343251Y-76942477D01*
X67245193Y-77011138D01*
X67160211Y-77070643D01*
X67160208Y-77070645D01*
X67155700Y-77073802D01*
X66994907Y-77234595D01*
X66932595Y-77268621D01*
X66905812Y-77271500D01*
X64594188Y-77271500D01*
X64526067Y-77251498D01*
X64505093Y-77234595D01*
X64344300Y-77073802D01*
X64339792Y-77070645D01*
X64339789Y-77070643D01*
X64254807Y-77011138D01*
X64156749Y-76942477D01*
X64151767Y-76940154D01*
X64151762Y-76940151D01*
X63954225Y-76848039D01*
X63954224Y-76848039D01*
X63949243Y-76845716D01*
X63943935Y-76844294D01*
X63943933Y-76844293D01*
X63733402Y-76787881D01*
X63733400Y-76787881D01*
X63728087Y-76786457D01*
X63500000Y-76766502D01*
X63271913Y-76786457D01*
X63266600Y-76787881D01*
X63266598Y-76787881D01*
X63056067Y-76844293D01*
X63056065Y-76844294D01*
X63050757Y-76845716D01*
X63045776Y-76848039D01*
X63045775Y-76848039D01*
X62848238Y-76940151D01*
X62848233Y-76940154D01*
X62843251Y-76942477D01*
X62745193Y-77011138D01*
X62660211Y-77070643D01*
X62660208Y-77070645D01*
X62655700Y-77073802D01*
X62493802Y-77235700D01*
X62490645Y-77240208D01*
X62490643Y-77240211D01*
X62461916Y-77281238D01*
X62362477Y-77423251D01*
X62360154Y-77428233D01*
X62360151Y-77428238D01*
X62299736Y-77557800D01*
X62265716Y-77630757D01*
X62264294Y-77636065D01*
X62264293Y-77636067D01*
X62216756Y-77813478D01*
X62206457Y-77851913D01*
X62186502Y-78080000D01*
X50508500Y-78080000D01*
X50508500Y-67920000D01*
X62186502Y-67920000D01*
X62206457Y-68148087D01*
X62265716Y-68369243D01*
X62268039Y-68374224D01*
X62268039Y-68374225D01*
X62360151Y-68571762D01*
X62360154Y-68571767D01*
X62362477Y-68576749D01*
X62435902Y-68681611D01*
X62466004Y-68724600D01*
X62493802Y-68764300D01*
X62655700Y-68926198D01*
X62660208Y-68929355D01*
X62660211Y-68929357D01*
X62699598Y-68956936D01*
X62843251Y-69057523D01*
X62848233Y-69059846D01*
X62848238Y-69059849D01*
X63033247Y-69146119D01*
X63050757Y-69154284D01*
X63056065Y-69155706D01*
X63056067Y-69155707D01*
X63266598Y-69212119D01*
X63266600Y-69212119D01*
X63271913Y-69213543D01*
X63500000Y-69233498D01*
X63728087Y-69213543D01*
X63733400Y-69212119D01*
X63733402Y-69212119D01*
X63943933Y-69155707D01*
X63943935Y-69155706D01*
X63949243Y-69154284D01*
X63966753Y-69146119D01*
X64151762Y-69059849D01*
X64151767Y-69059846D01*
X64156749Y-69057523D01*
X64300402Y-68956936D01*
X64339789Y-68929357D01*
X64339792Y-68929355D01*
X64344300Y-68926198D01*
X64450852Y-68819646D01*
X64513164Y-68785620D01*
X64583979Y-68790685D01*
X64629042Y-68819646D01*
X72196643Y-76387247D01*
X72204187Y-76395537D01*
X72208300Y-76402018D01*
X72214077Y-76407443D01*
X72257967Y-76448658D01*
X72260809Y-76451413D01*
X72280531Y-76471135D01*
X72283655Y-76473558D01*
X72283659Y-76473562D01*
X72283724Y-76473612D01*
X72292745Y-76481317D01*
X72324979Y-76511586D01*
X72331927Y-76515405D01*
X72331929Y-76515407D01*
X72342732Y-76521346D01*
X72359259Y-76532202D01*
X72368998Y-76539757D01*
X72369000Y-76539758D01*
X72375260Y-76544614D01*
X72415840Y-76562174D01*
X72426488Y-76567391D01*
X72431851Y-76570339D01*
X72465240Y-76588695D01*
X72472916Y-76590666D01*
X72472919Y-76590667D01*
X72484862Y-76593733D01*
X72503569Y-76600138D01*
X72510619Y-76603189D01*
X72517949Y-76609288D01*
X72524042Y-76608481D01*
X72565823Y-76615099D01*
X72577444Y-76617505D01*
X72612589Y-76626528D01*
X72620270Y-76628500D01*
X72640524Y-76628500D01*
X72660234Y-76630051D01*
X72680243Y-76633220D01*
X72688135Y-76632474D01*
X72702236Y-76631141D01*
X72724262Y-76629059D01*
X72736119Y-76628500D01*
X75980606Y-76628500D01*
X76048727Y-76648502D01*
X76083819Y-76682229D01*
X76171104Y-76806884D01*
X76193802Y-76839300D01*
X76355700Y-77001198D01*
X76360208Y-77004355D01*
X76360211Y-77004357D01*
X76405295Y-77035925D01*
X76543251Y-77132523D01*
X76548233Y-77134846D01*
X76548238Y-77134849D01*
X76583049Y-77151081D01*
X76636334Y-77197998D01*
X76655795Y-77266275D01*
X76635253Y-77334235D01*
X76583049Y-77379471D01*
X76548489Y-77395586D01*
X76538993Y-77401069D01*
X76360533Y-77526028D01*
X76352125Y-77533084D01*
X76198084Y-77687125D01*
X76191028Y-77695533D01*
X76066069Y-77873993D01*
X76060586Y-77883489D01*
X75968510Y-78080947D01*
X75964764Y-78091239D01*
X75918606Y-78263503D01*
X75918942Y-78277599D01*
X75926884Y-78281000D01*
X78467967Y-78281000D01*
X78481498Y-78277027D01*
X78482727Y-78268478D01*
X78435236Y-78091239D01*
X78431490Y-78080947D01*
X78339414Y-77883489D01*
X78333931Y-77873993D01*
X78208972Y-77695533D01*
X78201916Y-77687125D01*
X78047875Y-77533084D01*
X78039467Y-77526028D01*
X77861007Y-77401069D01*
X77851511Y-77395586D01*
X77816951Y-77379471D01*
X77763666Y-77332554D01*
X77744205Y-77264277D01*
X77764747Y-77196317D01*
X77816951Y-77151081D01*
X77851762Y-77134849D01*
X77851767Y-77134846D01*
X77856749Y-77132523D01*
X77861258Y-77129366D01*
X77861263Y-77129363D01*
X78022390Y-77016541D01*
X78089664Y-76993853D01*
X78158524Y-77011138D01*
X78183755Y-77030659D01*
X83784341Y-82631245D01*
X83818367Y-82693557D01*
X83813302Y-82764372D01*
X83798459Y-82792610D01*
X83685637Y-82953737D01*
X83685633Y-82953743D01*
X83682477Y-82958251D01*
X83680154Y-82963233D01*
X83680151Y-82963238D01*
X83588039Y-83160775D01*
X83585716Y-83165757D01*
X83584294Y-83171065D01*
X83584293Y-83171067D01*
X83558554Y-83267125D01*
X83526457Y-83386913D01*
X83506502Y-83615000D01*
X83526457Y-83843087D01*
X83527881Y-83848400D01*
X83527881Y-83848402D01*
X83539669Y-83892393D01*
X83585716Y-84064243D01*
X83588039Y-84069224D01*
X83588039Y-84069225D01*
X83680151Y-84266762D01*
X83680154Y-84266767D01*
X83682477Y-84271749D01*
X83753355Y-84372973D01*
X83760060Y-84382548D01*
X83813802Y-84459300D01*
X83975700Y-84621198D01*
X83980208Y-84624355D01*
X83980211Y-84624357D01*
X84050228Y-84673383D01*
X84163251Y-84752523D01*
X84168233Y-84754846D01*
X84168238Y-84754849D01*
X84286876Y-84810170D01*
X84370757Y-84849284D01*
X84376065Y-84850706D01*
X84376067Y-84850707D01*
X84586598Y-84907119D01*
X84586600Y-84907119D01*
X84591913Y-84908543D01*
X84820000Y-84928498D01*
X85048087Y-84908543D01*
X85053400Y-84907119D01*
X85053402Y-84907119D01*
X85263933Y-84850707D01*
X85263935Y-84850706D01*
X85269243Y-84849284D01*
X85353124Y-84810170D01*
X85471762Y-84754849D01*
X85471767Y-84754846D01*
X85476749Y-84752523D01*
X85589772Y-84673383D01*
X85659789Y-84624357D01*
X85659792Y-84624355D01*
X85664300Y-84621198D01*
X85826198Y-84459300D01*
X85879941Y-84382548D01*
X85954369Y-84276253D01*
X85957523Y-84271749D01*
X85959848Y-84266763D01*
X85961568Y-84263784D01*
X86012950Y-84214790D01*
X86082663Y-84201352D01*
X86148574Y-84227738D01*
X86159783Y-84237687D01*
X90879833Y-88957738D01*
X90913859Y-89020050D01*
X90908794Y-89090865D01*
X90884376Y-89131142D01*
X90765960Y-89262656D01*
X90670473Y-89428044D01*
X90611458Y-89609672D01*
X90591496Y-89799600D01*
X90611458Y-89989528D01*
X90670473Y-90171156D01*
X90765960Y-90336544D01*
X90893747Y-90478466D01*
X91048248Y-90590718D01*
X91054276Y-90593402D01*
X91054278Y-90593403D01*
X91222712Y-90668394D01*
X91222042Y-90669899D01*
X91273823Y-90705305D01*
X91301461Y-90770701D01*
X91289356Y-90840658D01*
X91269919Y-90869377D01*
X91229960Y-90913756D01*
X91134473Y-91079144D01*
X91075458Y-91260772D01*
X91055496Y-91450700D01*
X91075458Y-91640628D01*
X91134473Y-91822256D01*
X91229960Y-91987644D01*
X91292941Y-92057592D01*
X91323657Y-92121597D01*
X91314894Y-92192050D01*
X91269431Y-92246582D01*
X91199304Y-92267900D01*
X90309567Y-92267900D01*
X90298384Y-92267373D01*
X90290891Y-92265698D01*
X90282965Y-92265947D01*
X90282964Y-92265947D01*
X90222814Y-92267838D01*
X90218855Y-92267900D01*
X90190944Y-92267900D01*
X90187010Y-92268397D01*
X90187009Y-92268397D01*
X90186944Y-92268405D01*
X90175107Y-92269338D01*
X90143290Y-92270338D01*
X90138829Y-92270478D01*
X90130910Y-92270727D01*
X90113254Y-92275856D01*
X90111458Y-92276378D01*
X90092106Y-92280386D01*
X90085035Y-92281280D01*
X90072003Y-92282926D01*
X90064634Y-92285843D01*
X90064632Y-92285844D01*
X90030897Y-92299200D01*
X90019669Y-92303045D01*
X89977207Y-92315382D01*
X89970384Y-92319417D01*
X89970382Y-92319418D01*
X89959772Y-92325693D01*
X89942024Y-92334388D01*
X89923183Y-92341848D01*
X89916767Y-92346510D01*
X89916766Y-92346510D01*
X89887413Y-92367836D01*
X89877493Y-92374352D01*
X89846265Y-92392820D01*
X89846262Y-92392822D01*
X89839438Y-92396858D01*
X89825117Y-92411179D01*
X89810084Y-92424019D01*
X89793693Y-92435928D01*
X89788642Y-92442034D01*
X89765502Y-92470005D01*
X89757512Y-92478784D01*
X81958703Y-100277592D01*
X81896391Y-100311618D01*
X81825576Y-100306553D01*
X81791516Y-100287379D01*
X81703414Y-100217800D01*
X81703410Y-100217798D01*
X81699359Y-100214598D01*
X81694831Y-100212098D01*
X81578988Y-100148150D01*
X81503789Y-100106638D01*
X81498920Y-100104914D01*
X81498916Y-100104912D01*
X81298087Y-100033795D01*
X81298083Y-100033794D01*
X81293212Y-100032069D01*
X81288119Y-100031162D01*
X81288116Y-100031161D01*
X81078373Y-99993800D01*
X81078367Y-99993799D01*
X81073284Y-99992894D01*
X80999452Y-99991992D01*
X80855081Y-99990228D01*
X80855079Y-99990228D01*
X80849911Y-99990165D01*
X80629091Y-100023955D01*
X80416756Y-100093357D01*
X80386443Y-100109137D01*
X80242975Y-100183822D01*
X80218607Y-100196507D01*
X80214474Y-100199610D01*
X80214471Y-100199612D01*
X80072039Y-100306553D01*
X80039965Y-100330635D01*
X80014254Y-100357540D01*
X79928988Y-100446766D01*
X79885629Y-100492138D01*
X79778201Y-100649621D01*
X79723293Y-100694621D01*
X79652768Y-100702792D01*
X79589021Y-100671538D01*
X79568324Y-100647054D01*
X79487822Y-100522617D01*
X79487820Y-100522614D01*
X79485014Y-100518277D01*
X79334670Y-100353051D01*
X79330619Y-100349852D01*
X79330615Y-100349848D01*
X79163414Y-100217800D01*
X79163410Y-100217798D01*
X79159359Y-100214598D01*
X79154831Y-100212098D01*
X79038988Y-100148150D01*
X78963789Y-100106638D01*
X78958920Y-100104914D01*
X78958916Y-100104912D01*
X78758087Y-100033795D01*
X78758083Y-100033794D01*
X78753212Y-100032069D01*
X78748119Y-100031162D01*
X78748116Y-100031161D01*
X78538373Y-99993800D01*
X78538367Y-99993799D01*
X78533284Y-99992894D01*
X78459452Y-99991992D01*
X78315081Y-99990228D01*
X78315079Y-99990228D01*
X78309911Y-99990165D01*
X78089091Y-100023955D01*
X77876756Y-100093357D01*
X77846443Y-100109137D01*
X77702975Y-100183822D01*
X77678607Y-100196507D01*
X77674474Y-100199610D01*
X77674471Y-100199612D01*
X77532039Y-100306553D01*
X77499965Y-100330635D01*
X77474254Y-100357540D01*
X77388988Y-100446766D01*
X77345629Y-100492138D01*
X77238201Y-100649621D01*
X77183293Y-100694621D01*
X77112768Y-100702792D01*
X77049021Y-100671538D01*
X77028324Y-100647054D01*
X76947822Y-100522617D01*
X76947820Y-100522614D01*
X76945014Y-100518277D01*
X76794670Y-100353051D01*
X76790619Y-100349852D01*
X76790615Y-100349848D01*
X76623414Y-100217800D01*
X76623410Y-100217798D01*
X76619359Y-100214598D01*
X76614831Y-100212098D01*
X76498988Y-100148150D01*
X76423789Y-100106638D01*
X76418920Y-100104914D01*
X76418916Y-100104912D01*
X76218087Y-100033795D01*
X76218083Y-100033794D01*
X76213212Y-100032069D01*
X76208119Y-100031162D01*
X76208116Y-100031161D01*
X75998373Y-99993800D01*
X75998367Y-99993799D01*
X75993284Y-99992894D01*
X75919452Y-99991992D01*
X75775081Y-99990228D01*
X75775079Y-99990228D01*
X75769911Y-99990165D01*
X75549091Y-100023955D01*
X75336756Y-100093357D01*
X75306443Y-100109137D01*
X75162975Y-100183822D01*
X75138607Y-100196507D01*
X75134474Y-100199610D01*
X75134471Y-100199612D01*
X74992039Y-100306553D01*
X74959965Y-100330635D01*
X74934254Y-100357540D01*
X74848988Y-100446766D01*
X74805629Y-100492138D01*
X74802720Y-100496403D01*
X74802714Y-100496411D01*
X74717556Y-100621249D01*
X74679743Y-100676680D01*
X74585688Y-100879305D01*
X74525989Y-101094570D01*
X74502251Y-101316695D01*
X74515110Y-101539715D01*
X74516247Y-101544761D01*
X74516248Y-101544767D01*
X74540304Y-101651508D01*
X74564222Y-101757639D01*
X74648266Y-101964616D01*
X74699942Y-102048944D01*
X74762291Y-102150688D01*
X74764987Y-102155088D01*
X74911250Y-102323938D01*
X75083126Y-102466632D01*
X75153595Y-102507811D01*
X75156445Y-102509476D01*
X75205169Y-102561114D01*
X75218240Y-102630897D01*
X75191509Y-102696669D01*
X75151055Y-102730027D01*
X75138607Y-102736507D01*
X75134474Y-102739610D01*
X75134471Y-102739612D01*
X75048809Y-102803929D01*
X74959965Y-102870635D01*
X74805629Y-103032138D01*
X74802720Y-103036403D01*
X74802714Y-103036411D01*
X74772609Y-103080544D01*
X74679743Y-103216680D01*
X74585688Y-103419305D01*
X74525989Y-103634570D01*
X74502251Y-103856695D01*
X74515110Y-104079715D01*
X74516247Y-104084761D01*
X74516248Y-104084767D01*
X74530449Y-104147778D01*
X74564222Y-104297639D01*
X74648266Y-104504616D01*
X74698863Y-104587183D01*
X74762291Y-104690688D01*
X74764987Y-104695088D01*
X74911250Y-104863938D01*
X75083126Y-105006632D01*
X75276000Y-105119338D01*
X75484692Y-105199030D01*
X75489760Y-105200061D01*
X75489763Y-105200062D01*
X75584862Y-105219410D01*
X75703597Y-105243567D01*
X75708772Y-105243757D01*
X75708774Y-105243757D01*
X75921673Y-105251564D01*
X75921677Y-105251564D01*
X75926837Y-105251753D01*
X75931957Y-105251097D01*
X75931959Y-105251097D01*
X76143288Y-105224025D01*
X76143289Y-105224025D01*
X76148416Y-105223368D01*
X76153366Y-105221883D01*
X76357429Y-105160661D01*
X76357434Y-105160659D01*
X76362384Y-105159174D01*
X76562994Y-105060896D01*
X76744860Y-104931173D01*
X76753856Y-104922209D01*
X76899435Y-104777137D01*
X76903096Y-104773489D01*
X76962594Y-104690689D01*
X77033453Y-104592077D01*
X77034776Y-104593028D01*
X77081645Y-104549857D01*
X77151580Y-104537625D01*
X77217026Y-104565144D01*
X77244875Y-104596994D01*
X77304987Y-104695088D01*
X77451250Y-104863938D01*
X77623126Y-105006632D01*
X77816000Y-105119338D01*
X78024692Y-105199030D01*
X78029760Y-105200061D01*
X78029763Y-105200062D01*
X78124862Y-105219410D01*
X78243597Y-105243567D01*
X78248772Y-105243757D01*
X78248774Y-105243757D01*
X78461673Y-105251564D01*
X78461677Y-105251564D01*
X78466837Y-105251753D01*
X78471957Y-105251097D01*
X78471959Y-105251097D01*
X78683288Y-105224025D01*
X78683289Y-105224025D01*
X78688416Y-105223368D01*
X78693366Y-105221883D01*
X78897429Y-105160661D01*
X78897434Y-105160659D01*
X78902384Y-105159174D01*
X79102994Y-105060896D01*
X79284860Y-104931173D01*
X79293856Y-104922209D01*
X79439435Y-104777137D01*
X79443096Y-104773489D01*
X79502594Y-104690689D01*
X79573453Y-104592077D01*
X79574776Y-104593028D01*
X79621645Y-104549857D01*
X79691580Y-104537625D01*
X79757026Y-104565144D01*
X79784875Y-104596994D01*
X79844987Y-104695088D01*
X79991250Y-104863938D01*
X80163126Y-105006632D01*
X80356000Y-105119338D01*
X80564692Y-105199030D01*
X80569760Y-105200061D01*
X80569763Y-105200062D01*
X80664862Y-105219410D01*
X80783597Y-105243567D01*
X80788772Y-105243757D01*
X80788774Y-105243757D01*
X81001673Y-105251564D01*
X81001677Y-105251564D01*
X81006837Y-105251753D01*
X81011957Y-105251097D01*
X81011959Y-105251097D01*
X81223288Y-105224025D01*
X81223289Y-105224025D01*
X81228416Y-105223368D01*
X81233366Y-105221883D01*
X81437429Y-105160661D01*
X81437434Y-105160659D01*
X81442384Y-105159174D01*
X81642994Y-105060896D01*
X81824860Y-104931173D01*
X81833856Y-104922209D01*
X81979435Y-104777137D01*
X81983096Y-104773489D01*
X82042594Y-104690689D01*
X82113453Y-104592077D01*
X82114776Y-104593028D01*
X82161645Y-104549857D01*
X82231580Y-104537625D01*
X82297026Y-104565144D01*
X82324875Y-104596994D01*
X82384987Y-104695088D01*
X82531250Y-104863938D01*
X82703126Y-105006632D01*
X82896000Y-105119338D01*
X83104692Y-105199030D01*
X83109760Y-105200061D01*
X83109763Y-105200062D01*
X83204862Y-105219410D01*
X83323597Y-105243567D01*
X83328772Y-105243757D01*
X83328774Y-105243757D01*
X83541673Y-105251564D01*
X83541677Y-105251564D01*
X83546837Y-105251753D01*
X83551957Y-105251097D01*
X83551959Y-105251097D01*
X83763288Y-105224025D01*
X83763289Y-105224025D01*
X83768416Y-105223368D01*
X83773366Y-105221883D01*
X83977429Y-105160661D01*
X83977434Y-105160659D01*
X83982384Y-105159174D01*
X84182994Y-105060896D01*
X84364860Y-104931173D01*
X84373856Y-104922209D01*
X84519435Y-104777137D01*
X84523096Y-104773489D01*
X84582594Y-104690689D01*
X84653453Y-104592077D01*
X84654776Y-104593028D01*
X84701645Y-104549857D01*
X84771580Y-104537625D01*
X84837026Y-104565144D01*
X84864875Y-104596994D01*
X84924987Y-104695088D01*
X85071250Y-104863938D01*
X85243126Y-105006632D01*
X85436000Y-105119338D01*
X85644692Y-105199030D01*
X85649760Y-105200061D01*
X85649763Y-105200062D01*
X85744862Y-105219410D01*
X85863597Y-105243567D01*
X85868772Y-105243757D01*
X85868774Y-105243757D01*
X86081673Y-105251564D01*
X86081677Y-105251564D01*
X86086837Y-105251753D01*
X86091957Y-105251097D01*
X86091959Y-105251097D01*
X86303288Y-105224025D01*
X86303289Y-105224025D01*
X86308416Y-105223368D01*
X86313366Y-105221883D01*
X86517429Y-105160661D01*
X86517434Y-105160659D01*
X86522384Y-105159174D01*
X86722994Y-105060896D01*
X86904860Y-104931173D01*
X86913856Y-104922209D01*
X87059435Y-104777137D01*
X87063096Y-104773489D01*
X87122594Y-104690689D01*
X87193453Y-104592077D01*
X87194776Y-104593028D01*
X87241645Y-104549857D01*
X87311580Y-104537625D01*
X87377026Y-104565144D01*
X87404875Y-104596994D01*
X87464987Y-104695088D01*
X87611250Y-104863938D01*
X87783126Y-105006632D01*
X87976000Y-105119338D01*
X88184692Y-105199030D01*
X88189760Y-105200061D01*
X88189763Y-105200062D01*
X88284862Y-105219410D01*
X88403597Y-105243567D01*
X88408772Y-105243757D01*
X88408774Y-105243757D01*
X88621673Y-105251564D01*
X88621677Y-105251564D01*
X88626837Y-105251753D01*
X88631957Y-105251097D01*
X88631959Y-105251097D01*
X88843288Y-105224025D01*
X88843289Y-105224025D01*
X88848416Y-105223368D01*
X88853366Y-105221883D01*
X89057429Y-105160661D01*
X89057434Y-105160659D01*
X89062384Y-105159174D01*
X89262994Y-105060896D01*
X89444860Y-104931173D01*
X89453856Y-104922209D01*
X89599435Y-104777137D01*
X89603096Y-104773489D01*
X89662594Y-104690689D01*
X89733453Y-104592077D01*
X89734776Y-104593028D01*
X89781645Y-104549857D01*
X89851580Y-104537625D01*
X89917026Y-104565144D01*
X89944875Y-104596994D01*
X90004987Y-104695088D01*
X90151250Y-104863938D01*
X90323126Y-105006632D01*
X90516000Y-105119338D01*
X90724692Y-105199030D01*
X90729760Y-105200061D01*
X90729763Y-105200062D01*
X90824862Y-105219410D01*
X90943597Y-105243567D01*
X90948772Y-105243757D01*
X90948774Y-105243757D01*
X91161673Y-105251564D01*
X91161677Y-105251564D01*
X91166837Y-105251753D01*
X91171957Y-105251097D01*
X91171959Y-105251097D01*
X91383288Y-105224025D01*
X91383289Y-105224025D01*
X91388416Y-105223368D01*
X91393366Y-105221883D01*
X91597429Y-105160661D01*
X91597434Y-105160659D01*
X91602384Y-105159174D01*
X91802994Y-105060896D01*
X91984860Y-104931173D01*
X91993856Y-104922209D01*
X92139435Y-104777137D01*
X92143096Y-104773489D01*
X92202594Y-104690689D01*
X92273453Y-104592077D01*
X92274776Y-104593028D01*
X92321645Y-104549857D01*
X92391580Y-104537625D01*
X92457026Y-104565144D01*
X92484875Y-104596994D01*
X92544987Y-104695088D01*
X92691250Y-104863938D01*
X92863126Y-105006632D01*
X93056000Y-105119338D01*
X93264692Y-105199030D01*
X93269760Y-105200061D01*
X93269763Y-105200062D01*
X93364862Y-105219410D01*
X93483597Y-105243567D01*
X93488772Y-105243757D01*
X93488774Y-105243757D01*
X93701673Y-105251564D01*
X93701677Y-105251564D01*
X93706837Y-105251753D01*
X93711957Y-105251097D01*
X93711959Y-105251097D01*
X93923288Y-105224025D01*
X93923289Y-105224025D01*
X93928416Y-105223368D01*
X93933366Y-105221883D01*
X94137429Y-105160661D01*
X94137434Y-105160659D01*
X94142384Y-105159174D01*
X94342994Y-105060896D01*
X94524860Y-104931173D01*
X94533856Y-104922209D01*
X94679435Y-104777137D01*
X94683096Y-104773489D01*
X94742594Y-104690689D01*
X94813453Y-104592077D01*
X94814776Y-104593028D01*
X94861645Y-104549857D01*
X94931580Y-104537625D01*
X94997026Y-104565144D01*
X95024875Y-104596994D01*
X95084987Y-104695088D01*
X95231250Y-104863938D01*
X95403126Y-105006632D01*
X95596000Y-105119338D01*
X95804692Y-105199030D01*
X95809760Y-105200061D01*
X95809763Y-105200062D01*
X95904862Y-105219410D01*
X96023597Y-105243567D01*
X96028772Y-105243757D01*
X96028774Y-105243757D01*
X96241673Y-105251564D01*
X96241677Y-105251564D01*
X96246837Y-105251753D01*
X96251957Y-105251097D01*
X96251959Y-105251097D01*
X96463288Y-105224025D01*
X96463289Y-105224025D01*
X96468416Y-105223368D01*
X96473366Y-105221883D01*
X96677429Y-105160661D01*
X96677434Y-105160659D01*
X96682384Y-105159174D01*
X96882994Y-105060896D01*
X97064860Y-104931173D01*
X97073856Y-104922209D01*
X97219435Y-104777137D01*
X97223096Y-104773489D01*
X97282594Y-104690689D01*
X97353453Y-104592077D01*
X97354776Y-104593028D01*
X97401645Y-104549857D01*
X97471580Y-104537625D01*
X97537026Y-104565144D01*
X97564875Y-104596994D01*
X97624987Y-104695088D01*
X97771250Y-104863938D01*
X97943126Y-105006632D01*
X98136000Y-105119338D01*
X98344692Y-105199030D01*
X98349760Y-105200061D01*
X98349763Y-105200062D01*
X98444862Y-105219410D01*
X98563597Y-105243567D01*
X98568772Y-105243757D01*
X98568774Y-105243757D01*
X98781673Y-105251564D01*
X98781677Y-105251564D01*
X98786837Y-105251753D01*
X98791957Y-105251097D01*
X98791959Y-105251097D01*
X99003288Y-105224025D01*
X99003289Y-105224025D01*
X99008416Y-105223368D01*
X99013366Y-105221883D01*
X99217429Y-105160661D01*
X99217434Y-105160659D01*
X99222384Y-105159174D01*
X99422994Y-105060896D01*
X99604860Y-104931173D01*
X99613856Y-104922209D01*
X99759435Y-104777137D01*
X99763096Y-104773489D01*
X99822594Y-104690689D01*
X99893453Y-104592077D01*
X99894776Y-104593028D01*
X99941645Y-104549857D01*
X100011580Y-104537625D01*
X100077026Y-104565144D01*
X100104875Y-104596994D01*
X100164987Y-104695088D01*
X100311250Y-104863938D01*
X100483126Y-105006632D01*
X100676000Y-105119338D01*
X100884692Y-105199030D01*
X100889760Y-105200061D01*
X100889763Y-105200062D01*
X100984862Y-105219410D01*
X101103597Y-105243567D01*
X101108772Y-105243757D01*
X101108774Y-105243757D01*
X101321673Y-105251564D01*
X101321677Y-105251564D01*
X101326837Y-105251753D01*
X101331957Y-105251097D01*
X101331959Y-105251097D01*
X101543288Y-105224025D01*
X101543289Y-105224025D01*
X101548416Y-105223368D01*
X101553366Y-105221883D01*
X101757429Y-105160661D01*
X101757434Y-105160659D01*
X101762384Y-105159174D01*
X101962994Y-105060896D01*
X102144860Y-104931173D01*
X102153856Y-104922209D01*
X102299435Y-104777137D01*
X102303096Y-104773489D01*
X102362594Y-104690689D01*
X102433453Y-104592077D01*
X102434776Y-104593028D01*
X102481645Y-104549857D01*
X102551580Y-104537625D01*
X102617026Y-104565144D01*
X102644875Y-104596994D01*
X102704987Y-104695088D01*
X102851250Y-104863938D01*
X103023126Y-105006632D01*
X103216000Y-105119338D01*
X103424692Y-105199030D01*
X103429760Y-105200061D01*
X103429763Y-105200062D01*
X103524862Y-105219410D01*
X103643597Y-105243567D01*
X103648772Y-105243757D01*
X103648774Y-105243757D01*
X103861673Y-105251564D01*
X103861677Y-105251564D01*
X103866837Y-105251753D01*
X103871957Y-105251097D01*
X103871959Y-105251097D01*
X104083288Y-105224025D01*
X104083289Y-105224025D01*
X104088416Y-105223368D01*
X104093366Y-105221883D01*
X104297429Y-105160661D01*
X104297434Y-105160659D01*
X104302384Y-105159174D01*
X104502994Y-105060896D01*
X104684860Y-104931173D01*
X104693856Y-104922209D01*
X104839435Y-104777137D01*
X104843096Y-104773489D01*
X104902594Y-104690689D01*
X104973453Y-104592077D01*
X104974776Y-104593028D01*
X105021645Y-104549857D01*
X105091580Y-104537625D01*
X105157026Y-104565144D01*
X105184875Y-104596994D01*
X105244987Y-104695088D01*
X105391250Y-104863938D01*
X105563126Y-105006632D01*
X105756000Y-105119338D01*
X105964692Y-105199030D01*
X105969760Y-105200061D01*
X105969763Y-105200062D01*
X106064862Y-105219410D01*
X106183597Y-105243567D01*
X106188772Y-105243757D01*
X106188774Y-105243757D01*
X106401673Y-105251564D01*
X106401677Y-105251564D01*
X106406837Y-105251753D01*
X106411957Y-105251097D01*
X106411959Y-105251097D01*
X106623288Y-105224025D01*
X106623289Y-105224025D01*
X106628416Y-105223368D01*
X106633366Y-105221883D01*
X106837429Y-105160661D01*
X106837434Y-105160659D01*
X106842384Y-105159174D01*
X107042994Y-105060896D01*
X107047199Y-105057896D01*
X107047205Y-105057893D01*
X107162200Y-104975868D01*
X107204800Y-104945482D01*
X107271872Y-104922209D01*
X107340881Y-104938892D01*
X107367062Y-104958966D01*
X107911743Y-105503647D01*
X107919287Y-105511937D01*
X107923400Y-105518418D01*
X107929177Y-105523843D01*
X107973067Y-105565058D01*
X107975909Y-105567813D01*
X107995631Y-105587535D01*
X107998755Y-105589958D01*
X107998759Y-105589962D01*
X107998824Y-105590012D01*
X108007845Y-105597717D01*
X108040079Y-105627986D01*
X108047027Y-105631805D01*
X108047029Y-105631807D01*
X108057832Y-105637746D01*
X108074359Y-105648602D01*
X108084098Y-105656157D01*
X108084100Y-105656158D01*
X108090360Y-105661014D01*
X108130940Y-105678574D01*
X108141588Y-105683791D01*
X108166376Y-105697418D01*
X108180340Y-105705095D01*
X108188016Y-105707066D01*
X108188019Y-105707067D01*
X108199962Y-105710133D01*
X108218667Y-105716537D01*
X108237255Y-105724581D01*
X108245078Y-105725820D01*
X108245088Y-105725823D01*
X108280924Y-105731499D01*
X108292544Y-105733905D01*
X108324359Y-105742073D01*
X108335370Y-105744900D01*
X108355624Y-105744900D01*
X108375334Y-105746451D01*
X108395343Y-105749620D01*
X108403235Y-105748874D01*
X108421980Y-105747102D01*
X108439362Y-105745459D01*
X108451219Y-105744900D01*
X111856833Y-105744900D01*
X111868016Y-105745427D01*
X111875509Y-105747102D01*
X111883435Y-105746853D01*
X111883436Y-105746853D01*
X111943586Y-105744962D01*
X111947545Y-105744900D01*
X111975456Y-105744900D01*
X111979391Y-105744403D01*
X111979456Y-105744395D01*
X111991293Y-105743462D01*
X112023551Y-105742448D01*
X112027570Y-105742322D01*
X112035489Y-105742073D01*
X112054943Y-105736421D01*
X112074300Y-105732413D01*
X112086530Y-105730868D01*
X112086531Y-105730868D01*
X112094397Y-105729874D01*
X112101768Y-105726955D01*
X112101770Y-105726955D01*
X112135512Y-105713596D01*
X112146742Y-105709751D01*
X112181583Y-105699629D01*
X112181584Y-105699629D01*
X112189193Y-105697418D01*
X112196012Y-105693385D01*
X112196017Y-105693383D01*
X112206628Y-105687107D01*
X112224376Y-105678412D01*
X112243217Y-105670952D01*
X112278987Y-105644964D01*
X112288907Y-105638448D01*
X112320135Y-105619980D01*
X112320138Y-105619978D01*
X112326962Y-105615942D01*
X112341283Y-105601621D01*
X112356317Y-105588780D01*
X112358031Y-105587535D01*
X112372707Y-105576872D01*
X112377758Y-105570767D01*
X112377763Y-105570762D01*
X112400894Y-105542802D01*
X112408881Y-105534024D01*
X112439258Y-105503647D01*
X112967036Y-104975868D01*
X113029349Y-104941843D01*
X113100164Y-104946907D01*
X113136615Y-104968018D01*
X113183126Y-105006632D01*
X113376000Y-105119338D01*
X113584692Y-105199030D01*
X113589760Y-105200061D01*
X113589763Y-105200062D01*
X113684862Y-105219410D01*
X113803597Y-105243567D01*
X113808772Y-105243757D01*
X113808774Y-105243757D01*
X114021673Y-105251564D01*
X114021677Y-105251564D01*
X114026837Y-105251753D01*
X114031957Y-105251097D01*
X114031959Y-105251097D01*
X114243288Y-105224025D01*
X114243289Y-105224025D01*
X114248416Y-105223368D01*
X114253366Y-105221883D01*
X114457429Y-105160661D01*
X114457434Y-105160659D01*
X114462384Y-105159174D01*
X114662994Y-105060896D01*
X114844860Y-104931173D01*
X114853856Y-104922209D01*
X114999435Y-104777137D01*
X115003096Y-104773489D01*
X115062594Y-104690689D01*
X115133453Y-104592077D01*
X115134776Y-104593028D01*
X115181645Y-104549857D01*
X115251580Y-104537625D01*
X115317026Y-104565144D01*
X115344875Y-104596994D01*
X115404987Y-104695088D01*
X115551250Y-104863938D01*
X115723126Y-105006632D01*
X115916000Y-105119338D01*
X116124692Y-105199030D01*
X116129760Y-105200061D01*
X116129763Y-105200062D01*
X116224862Y-105219410D01*
X116343597Y-105243567D01*
X116348772Y-105243757D01*
X116348774Y-105243757D01*
X116561673Y-105251564D01*
X116561677Y-105251564D01*
X116566837Y-105251753D01*
X116571957Y-105251097D01*
X116571959Y-105251097D01*
X116783288Y-105224025D01*
X116783289Y-105224025D01*
X116788416Y-105223368D01*
X116793366Y-105221883D01*
X116997429Y-105160661D01*
X116997434Y-105160659D01*
X117002384Y-105159174D01*
X117202994Y-105060896D01*
X117384860Y-104931173D01*
X117393856Y-104922209D01*
X117539435Y-104777137D01*
X117543096Y-104773489D01*
X117602594Y-104690689D01*
X117673453Y-104592077D01*
X117674776Y-104593028D01*
X117721645Y-104549857D01*
X117791580Y-104537625D01*
X117857026Y-104565144D01*
X117884875Y-104596994D01*
X117944987Y-104695088D01*
X118091250Y-104863938D01*
X118263126Y-105006632D01*
X118456000Y-105119338D01*
X118664692Y-105199030D01*
X118669760Y-105200061D01*
X118669763Y-105200062D01*
X118764862Y-105219410D01*
X118883597Y-105243567D01*
X118888772Y-105243757D01*
X118888774Y-105243757D01*
X119101673Y-105251564D01*
X119101677Y-105251564D01*
X119106837Y-105251753D01*
X119111957Y-105251097D01*
X119111959Y-105251097D01*
X119323288Y-105224025D01*
X119323289Y-105224025D01*
X119328416Y-105223368D01*
X119333366Y-105221883D01*
X119537429Y-105160661D01*
X119537434Y-105160659D01*
X119542384Y-105159174D01*
X119742994Y-105060896D01*
X119924860Y-104931173D01*
X119933856Y-104922209D01*
X120079435Y-104777137D01*
X120083096Y-104773489D01*
X120142594Y-104690689D01*
X120213453Y-104592077D01*
X120214640Y-104592930D01*
X120261960Y-104549362D01*
X120331897Y-104537145D01*
X120397338Y-104564678D01*
X120425166Y-104596511D01*
X120482694Y-104690388D01*
X120488777Y-104698699D01*
X120628213Y-104859667D01*
X120635580Y-104866883D01*
X120799434Y-105002916D01*
X120807881Y-105008831D01*
X120991756Y-105116279D01*
X121001042Y-105120729D01*
X121200001Y-105196703D01*
X121209899Y-105199579D01*
X121313250Y-105220606D01*
X121327299Y-105219410D01*
X121331000Y-105209065D01*
X121331000Y-105208517D01*
X121839000Y-105208517D01*
X121843064Y-105222359D01*
X121856478Y-105224393D01*
X121863184Y-105223534D01*
X121873262Y-105221392D01*
X122077255Y-105160191D01*
X122086842Y-105156433D01*
X122278095Y-105062739D01*
X122286945Y-105057464D01*
X122460328Y-104933792D01*
X122468200Y-104927139D01*
X122619052Y-104776812D01*
X122625730Y-104768965D01*
X122753022Y-104591819D01*
X122754147Y-104592627D01*
X122801669Y-104548876D01*
X122871607Y-104536661D01*
X122937046Y-104564197D01*
X122964870Y-104596028D01*
X123022690Y-104690383D01*
X123028777Y-104698699D01*
X123168213Y-104859667D01*
X123175580Y-104866883D01*
X123339434Y-105002916D01*
X123347881Y-105008831D01*
X123531756Y-105116279D01*
X123541042Y-105120729D01*
X123740001Y-105196703D01*
X123749899Y-105199579D01*
X123853250Y-105220606D01*
X123867299Y-105219410D01*
X123871000Y-105209065D01*
X123871000Y-105208517D01*
X124379000Y-105208517D01*
X124383064Y-105222359D01*
X124396478Y-105224393D01*
X124403184Y-105223534D01*
X124413262Y-105221392D01*
X124617255Y-105160191D01*
X124626842Y-105156433D01*
X124818095Y-105062739D01*
X124826945Y-105057464D01*
X125000328Y-104933792D01*
X125008200Y-104927139D01*
X125054538Y-104880962D01*
X138278493Y-104880962D01*
X138287789Y-104892977D01*
X138338994Y-104928831D01*
X138348489Y-104934314D01*
X138545947Y-105026390D01*
X138556239Y-105030136D01*
X138766688Y-105086525D01*
X138777481Y-105088428D01*
X138994525Y-105107417D01*
X139005475Y-105107417D01*
X139222519Y-105088428D01*
X139233312Y-105086525D01*
X139443761Y-105030136D01*
X139454053Y-105026390D01*
X139651511Y-104934314D01*
X139661006Y-104928831D01*
X139713048Y-104892391D01*
X139721424Y-104881912D01*
X139714356Y-104868466D01*
X139012812Y-104166922D01*
X138998868Y-104159308D01*
X138997035Y-104159439D01*
X138990420Y-104163690D01*
X138284923Y-104869187D01*
X138278493Y-104880962D01*
X125054538Y-104880962D01*
X125159052Y-104776812D01*
X125165730Y-104768965D01*
X125290003Y-104596020D01*
X125295313Y-104587183D01*
X125389670Y-104396267D01*
X125393469Y-104386672D01*
X125455377Y-104182910D01*
X125457555Y-104172837D01*
X125458986Y-104161962D01*
X125456775Y-104147778D01*
X125443617Y-104144000D01*
X124397115Y-104144000D01*
X124381876Y-104148475D01*
X124380671Y-104149865D01*
X124379000Y-104157548D01*
X124379000Y-105208517D01*
X123871000Y-105208517D01*
X123871000Y-104162115D01*
X123866525Y-104146876D01*
X123865135Y-104145671D01*
X123857452Y-104144000D01*
X121857115Y-104144000D01*
X121841876Y-104148475D01*
X121840671Y-104149865D01*
X121839000Y-104157548D01*
X121839000Y-105208517D01*
X121331000Y-105208517D01*
X121331000Y-103800375D01*
X137687483Y-103800375D01*
X137706472Y-104017419D01*
X137708375Y-104028212D01*
X137764764Y-104238661D01*
X137768510Y-104248953D01*
X137860586Y-104446411D01*
X137866069Y-104455906D01*
X137902509Y-104507948D01*
X137912988Y-104516324D01*
X137926434Y-104509256D01*
X138627978Y-103807712D01*
X138634356Y-103796032D01*
X139364408Y-103796032D01*
X139364539Y-103797865D01*
X139368790Y-103804480D01*
X140074287Y-104509977D01*
X140086062Y-104516407D01*
X140098077Y-104507111D01*
X140133931Y-104455906D01*
X140139414Y-104446411D01*
X140231490Y-104248953D01*
X140235236Y-104238661D01*
X140291625Y-104028212D01*
X140293528Y-104017419D01*
X140312517Y-103800375D01*
X140312517Y-103789425D01*
X140293528Y-103572381D01*
X140291625Y-103561588D01*
X140235236Y-103351139D01*
X140231490Y-103340847D01*
X140139414Y-103143389D01*
X140133931Y-103133894D01*
X140097491Y-103081852D01*
X140087012Y-103073476D01*
X140073566Y-103080544D01*
X139372022Y-103782088D01*
X139364408Y-103796032D01*
X138634356Y-103796032D01*
X138635592Y-103793768D01*
X138635461Y-103791935D01*
X138631210Y-103785320D01*
X137925713Y-103079823D01*
X137913938Y-103073393D01*
X137901923Y-103082689D01*
X137866069Y-103133894D01*
X137860586Y-103143389D01*
X137768510Y-103340847D01*
X137764764Y-103351139D01*
X137708375Y-103561588D01*
X137706472Y-103572381D01*
X137687483Y-103789425D01*
X137687483Y-103800375D01*
X121331000Y-103800375D01*
X121331000Y-103762000D01*
X121351002Y-103693879D01*
X121404658Y-103647386D01*
X121457000Y-103636000D01*
X125443344Y-103636000D01*
X125456875Y-103632027D01*
X125458180Y-103622947D01*
X125416214Y-103455875D01*
X125412894Y-103446124D01*
X125327972Y-103250814D01*
X125323105Y-103241739D01*
X125207426Y-103062926D01*
X125201136Y-103054757D01*
X125057293Y-102896677D01*
X125026241Y-102832831D01*
X125034635Y-102762333D01*
X125079812Y-102707564D01*
X125106256Y-102693895D01*
X125213297Y-102653767D01*
X125221705Y-102650615D01*
X125338261Y-102563261D01*
X125425615Y-102446705D01*
X125476745Y-102310316D01*
X125483500Y-102248134D01*
X125483500Y-100451866D01*
X125476745Y-100389684D01*
X125425615Y-100253295D01*
X125338261Y-100136739D01*
X125221705Y-100049385D01*
X125085316Y-99998255D01*
X125023134Y-99991500D01*
X123226866Y-99991500D01*
X123164684Y-99998255D01*
X123028295Y-100049385D01*
X122911739Y-100136739D01*
X122824385Y-100253295D01*
X122821233Y-100261703D01*
X122779919Y-100371907D01*
X122737277Y-100428671D01*
X122670716Y-100453371D01*
X122601367Y-100438163D01*
X122568743Y-100412476D01*
X122518151Y-100356875D01*
X122518142Y-100356866D01*
X122514670Y-100353051D01*
X122510619Y-100349852D01*
X122510615Y-100349848D01*
X122343414Y-100217800D01*
X122343410Y-100217798D01*
X122339359Y-100214598D01*
X122334831Y-100212098D01*
X122218988Y-100148150D01*
X122143789Y-100106638D01*
X122138920Y-100104914D01*
X122138916Y-100104912D01*
X121938087Y-100033795D01*
X121938083Y-100033794D01*
X121933212Y-100032069D01*
X121928119Y-100031162D01*
X121928116Y-100031161D01*
X121718373Y-99993800D01*
X121718367Y-99993799D01*
X121713284Y-99992894D01*
X121639452Y-99991992D01*
X121495081Y-99990228D01*
X121495079Y-99990228D01*
X121489911Y-99990165D01*
X121269091Y-100023955D01*
X121056756Y-100093357D01*
X121026443Y-100109137D01*
X120882975Y-100183822D01*
X120858607Y-100196507D01*
X120854474Y-100199610D01*
X120854471Y-100199612D01*
X120712039Y-100306553D01*
X120679965Y-100330635D01*
X120654254Y-100357540D01*
X120568988Y-100446766D01*
X120525629Y-100492138D01*
X120418201Y-100649621D01*
X120363293Y-100694621D01*
X120292768Y-100702792D01*
X120229021Y-100671538D01*
X120208324Y-100647054D01*
X120127822Y-100522617D01*
X120127820Y-100522614D01*
X120125014Y-100518277D01*
X119974670Y-100353051D01*
X119970619Y-100349852D01*
X119970615Y-100349848D01*
X119803414Y-100217800D01*
X119803410Y-100217798D01*
X119799359Y-100214598D01*
X119794831Y-100212098D01*
X119678988Y-100148150D01*
X119603789Y-100106638D01*
X119598920Y-100104914D01*
X119598916Y-100104912D01*
X119398087Y-100033795D01*
X119398083Y-100033794D01*
X119393212Y-100032069D01*
X119388119Y-100031162D01*
X119388116Y-100031161D01*
X119178373Y-99993800D01*
X119178367Y-99993799D01*
X119173284Y-99992894D01*
X119099452Y-99991992D01*
X118955081Y-99990228D01*
X118955079Y-99990228D01*
X118949911Y-99990165D01*
X118729091Y-100023955D01*
X118516756Y-100093357D01*
X118486443Y-100109137D01*
X118342975Y-100183822D01*
X118318607Y-100196507D01*
X118314474Y-100199610D01*
X118314471Y-100199612D01*
X118172039Y-100306553D01*
X118139965Y-100330635D01*
X118114254Y-100357540D01*
X118028988Y-100446766D01*
X117985629Y-100492138D01*
X117878201Y-100649621D01*
X117823293Y-100694621D01*
X117752768Y-100702792D01*
X117689021Y-100671538D01*
X117668324Y-100647054D01*
X117587822Y-100522617D01*
X117587820Y-100522614D01*
X117585014Y-100518277D01*
X117434670Y-100353051D01*
X117430619Y-100349852D01*
X117430615Y-100349848D01*
X117263414Y-100217800D01*
X117263410Y-100217798D01*
X117259359Y-100214598D01*
X117254831Y-100212098D01*
X117138988Y-100148150D01*
X117063789Y-100106638D01*
X117058920Y-100104914D01*
X117058916Y-100104912D01*
X116858087Y-100033795D01*
X116858083Y-100033794D01*
X116853212Y-100032069D01*
X116848119Y-100031162D01*
X116848116Y-100031161D01*
X116638373Y-99993800D01*
X116638367Y-99993799D01*
X116633284Y-99992894D01*
X116559452Y-99991992D01*
X116415081Y-99990228D01*
X116415079Y-99990228D01*
X116409911Y-99990165D01*
X116189091Y-100023955D01*
X115976756Y-100093357D01*
X115946443Y-100109137D01*
X115802975Y-100183822D01*
X115778607Y-100196507D01*
X115774474Y-100199610D01*
X115774471Y-100199612D01*
X115632039Y-100306553D01*
X115599965Y-100330635D01*
X115574254Y-100357540D01*
X115488988Y-100446766D01*
X115445629Y-100492138D01*
X115338201Y-100649621D01*
X115283293Y-100694621D01*
X115212768Y-100702792D01*
X115149021Y-100671538D01*
X115128324Y-100647054D01*
X115047822Y-100522617D01*
X115047820Y-100522614D01*
X115045014Y-100518277D01*
X114894670Y-100353051D01*
X114890619Y-100349852D01*
X114890615Y-100349848D01*
X114723414Y-100217800D01*
X114723410Y-100217798D01*
X114719359Y-100214598D01*
X114714831Y-100212098D01*
X114598988Y-100148150D01*
X114523789Y-100106638D01*
X114518920Y-100104914D01*
X114518916Y-100104912D01*
X114318087Y-100033795D01*
X114318083Y-100033794D01*
X114313212Y-100032069D01*
X114308119Y-100031162D01*
X114308116Y-100031161D01*
X114098373Y-99993800D01*
X114098367Y-99993799D01*
X114093284Y-99992894D01*
X114019452Y-99991992D01*
X113875081Y-99990228D01*
X113875079Y-99990228D01*
X113869911Y-99990165D01*
X113649091Y-100023955D01*
X113436756Y-100093357D01*
X113406443Y-100109137D01*
X113262975Y-100183822D01*
X113238607Y-100196507D01*
X113234474Y-100199610D01*
X113234471Y-100199612D01*
X113092039Y-100306553D01*
X113059965Y-100330635D01*
X113034254Y-100357540D01*
X112948988Y-100446766D01*
X112905629Y-100492138D01*
X112798201Y-100649621D01*
X112743293Y-100694621D01*
X112672768Y-100702792D01*
X112609021Y-100671538D01*
X112588324Y-100647054D01*
X112507822Y-100522617D01*
X112507820Y-100522614D01*
X112505014Y-100518277D01*
X112354670Y-100353051D01*
X112350619Y-100349852D01*
X112350615Y-100349848D01*
X112183414Y-100217800D01*
X112183410Y-100217798D01*
X112179359Y-100214598D01*
X112174831Y-100212098D01*
X112058988Y-100148150D01*
X111983789Y-100106638D01*
X111978920Y-100104914D01*
X111978916Y-100104912D01*
X111778087Y-100033795D01*
X111778083Y-100033794D01*
X111773212Y-100032069D01*
X111768119Y-100031162D01*
X111768116Y-100031161D01*
X111558373Y-99993800D01*
X111558367Y-99993799D01*
X111553284Y-99992894D01*
X111479452Y-99991992D01*
X111335081Y-99990228D01*
X111335079Y-99990228D01*
X111329911Y-99990165D01*
X111109091Y-100023955D01*
X110896756Y-100093357D01*
X110866443Y-100109137D01*
X110722975Y-100183822D01*
X110698607Y-100196507D01*
X110694474Y-100199610D01*
X110694471Y-100199612D01*
X110641884Y-100239096D01*
X110575399Y-100264002D01*
X110506004Y-100249010D01*
X110477136Y-100227431D01*
X94631227Y-84381522D01*
X113917273Y-84381522D01*
X113964764Y-84558761D01*
X113968510Y-84569053D01*
X114060586Y-84766511D01*
X114066069Y-84776007D01*
X114191028Y-84954467D01*
X114198084Y-84962875D01*
X114352125Y-85116916D01*
X114360533Y-85123972D01*
X114538993Y-85248931D01*
X114548489Y-85254414D01*
X114745947Y-85346490D01*
X114756239Y-85350236D01*
X114928503Y-85396394D01*
X114942599Y-85396058D01*
X114946000Y-85388116D01*
X114946000Y-85382967D01*
X115454000Y-85382967D01*
X115457973Y-85396498D01*
X115466522Y-85397727D01*
X115643761Y-85350236D01*
X115654053Y-85346490D01*
X115851511Y-85254414D01*
X115861007Y-85248931D01*
X116039467Y-85123972D01*
X116047875Y-85116916D01*
X116201916Y-84962875D01*
X116208972Y-84954467D01*
X116333931Y-84776007D01*
X116339414Y-84766511D01*
X116431490Y-84569053D01*
X116435236Y-84558761D01*
X116481394Y-84386497D01*
X116481058Y-84372401D01*
X116473116Y-84369000D01*
X115472115Y-84369000D01*
X115456876Y-84373475D01*
X115455671Y-84374865D01*
X115454000Y-84382548D01*
X115454000Y-85382967D01*
X114946000Y-85382967D01*
X114946000Y-84387115D01*
X114941525Y-84371876D01*
X114940135Y-84370671D01*
X114932452Y-84369000D01*
X113932033Y-84369000D01*
X113918502Y-84372973D01*
X113917273Y-84381522D01*
X94631227Y-84381522D01*
X87122652Y-76872947D01*
X87115112Y-76864661D01*
X87111000Y-76858182D01*
X87100129Y-76847973D01*
X87061349Y-76811557D01*
X87058507Y-76808802D01*
X87038770Y-76789065D01*
X87035573Y-76786585D01*
X87026551Y-76778880D01*
X87013370Y-76766502D01*
X86994321Y-76748614D01*
X86987375Y-76744795D01*
X86987372Y-76744793D01*
X86976566Y-76738852D01*
X86960047Y-76728001D01*
X86959583Y-76727641D01*
X86944041Y-76715586D01*
X86936772Y-76712441D01*
X86936768Y-76712438D01*
X86903463Y-76698026D01*
X86892813Y-76692809D01*
X86854060Y-76671505D01*
X86834437Y-76666467D01*
X86815734Y-76660063D01*
X86804420Y-76655167D01*
X86804419Y-76655167D01*
X86797145Y-76652019D01*
X86789322Y-76650780D01*
X86789312Y-76650777D01*
X86753476Y-76645101D01*
X86741856Y-76642695D01*
X86706711Y-76633672D01*
X86706710Y-76633672D01*
X86699030Y-76631700D01*
X86678776Y-76631700D01*
X86659065Y-76630149D01*
X86658447Y-76630051D01*
X86639057Y-76626980D01*
X86606570Y-76630051D01*
X86595039Y-76631141D01*
X86583181Y-76631700D01*
X86164101Y-76631700D01*
X86095980Y-76611698D01*
X86049487Y-76558042D01*
X86039383Y-76487768D01*
X86049905Y-76452452D01*
X86051490Y-76449054D01*
X86055236Y-76438761D01*
X86101394Y-76266497D01*
X86101058Y-76252401D01*
X86093116Y-76249000D01*
X84692000Y-76249000D01*
X84623879Y-76228998D01*
X84577386Y-76175342D01*
X84566000Y-76123000D01*
X84566000Y-75867000D01*
X84586002Y-75798879D01*
X84639658Y-75752386D01*
X84692000Y-75741000D01*
X86087967Y-75741000D01*
X86101498Y-75737027D01*
X86102727Y-75728478D01*
X86055236Y-75551239D01*
X86051490Y-75540947D01*
X85959414Y-75343489D01*
X85953931Y-75333993D01*
X85828972Y-75155533D01*
X85821916Y-75147125D01*
X85667875Y-74993084D01*
X85659467Y-74986028D01*
X85481007Y-74861069D01*
X85471511Y-74855586D01*
X85436951Y-74839471D01*
X85383666Y-74792554D01*
X85364205Y-74724277D01*
X85384747Y-74656317D01*
X85436951Y-74611081D01*
X85471762Y-74594849D01*
X85471767Y-74594846D01*
X85476749Y-74592523D01*
X85581611Y-74519098D01*
X85659789Y-74464357D01*
X85659792Y-74464355D01*
X85664300Y-74461198D01*
X85826198Y-74299300D01*
X85957523Y-74111749D01*
X85959846Y-74106767D01*
X85959849Y-74106762D01*
X86051961Y-73909225D01*
X86051961Y-73909224D01*
X86054284Y-73904243D01*
X86100332Y-73732393D01*
X86112119Y-73688402D01*
X86112119Y-73688400D01*
X86113543Y-73683087D01*
X86133498Y-73455000D01*
X86113543Y-73226913D01*
X86112119Y-73221598D01*
X86055707Y-73011067D01*
X86055706Y-73011065D01*
X86054284Y-73005757D01*
X85975804Y-72837455D01*
X85959849Y-72803238D01*
X85959846Y-72803233D01*
X85957523Y-72798251D01*
X85841380Y-72632382D01*
X85829357Y-72615211D01*
X85829355Y-72615208D01*
X85826198Y-72610700D01*
X85664300Y-72448802D01*
X85659792Y-72445645D01*
X85659789Y-72445643D01*
X85546334Y-72366201D01*
X85476749Y-72317477D01*
X85471767Y-72315154D01*
X85471762Y-72315151D01*
X85436951Y-72298919D01*
X85383666Y-72252002D01*
X85364205Y-72183725D01*
X85384747Y-72115765D01*
X85436951Y-72070529D01*
X85471511Y-72054414D01*
X85481007Y-72048931D01*
X85659467Y-71923972D01*
X85667875Y-71916916D01*
X85821916Y-71762875D01*
X85828972Y-71754467D01*
X85953931Y-71576007D01*
X85959414Y-71566511D01*
X86051490Y-71369053D01*
X86055236Y-71358761D01*
X86101394Y-71186497D01*
X86101058Y-71172401D01*
X86093116Y-71169000D01*
X84692000Y-71169000D01*
X84623879Y-71148998D01*
X84577386Y-71095342D01*
X84566000Y-71043000D01*
X84566000Y-70787000D01*
X84586002Y-70718879D01*
X84639658Y-70672386D01*
X84692000Y-70661000D01*
X86087967Y-70661000D01*
X86101498Y-70657027D01*
X86102727Y-70648478D01*
X86055236Y-70471239D01*
X86051490Y-70460947D01*
X85959414Y-70263489D01*
X85953931Y-70253993D01*
X85828972Y-70075533D01*
X85821916Y-70067125D01*
X85667875Y-69913084D01*
X85659467Y-69906028D01*
X85481007Y-69781069D01*
X85471511Y-69775586D01*
X85436951Y-69759471D01*
X85383666Y-69712554D01*
X85364205Y-69644277D01*
X85384747Y-69576317D01*
X85436951Y-69531081D01*
X85471762Y-69514849D01*
X85471767Y-69514846D01*
X85476749Y-69512523D01*
X85618458Y-69413297D01*
X85659789Y-69384357D01*
X85659792Y-69384355D01*
X85664300Y-69381198D01*
X85825093Y-69220405D01*
X85887405Y-69186379D01*
X85914188Y-69183500D01*
X86111086Y-69183500D01*
X86112406Y-69183507D01*
X86202521Y-69184451D01*
X86244897Y-69175289D01*
X86257463Y-69173231D01*
X86300555Y-69168397D01*
X86307206Y-69166081D01*
X86307210Y-69166080D01*
X86332230Y-69157367D01*
X86347042Y-69153204D01*
X86372919Y-69147609D01*
X86379810Y-69146119D01*
X86419113Y-69127792D01*
X86430889Y-69123010D01*
X86471852Y-69108745D01*
X86477827Y-69105011D01*
X86477830Y-69105010D01*
X86500295Y-69090973D01*
X86513812Y-69083634D01*
X86537814Y-69072441D01*
X86537815Y-69072440D01*
X86544202Y-69069462D01*
X86559594Y-69057523D01*
X86578453Y-69042894D01*
X86588912Y-69035598D01*
X86619704Y-69016358D01*
X86619707Y-69016356D01*
X86625676Y-69012626D01*
X86654479Y-68984024D01*
X86655104Y-68983439D01*
X86655770Y-68982922D01*
X86681756Y-68956936D01*
X86712709Y-68926198D01*
X86751884Y-68887296D01*
X86751887Y-68887293D01*
X86754382Y-68884815D01*
X86755040Y-68883778D01*
X86756138Y-68882554D01*
X87218686Y-68420005D01*
X87280999Y-68385980D01*
X87307782Y-68383100D01*
X113765500Y-68383100D01*
X113833621Y-68403102D01*
X113880114Y-68456758D01*
X113891500Y-68509100D01*
X113891500Y-69723134D01*
X113898255Y-69785316D01*
X113901029Y-69792715D01*
X113946009Y-69912699D01*
X113949385Y-69921705D01*
X113954768Y-69928887D01*
X113958752Y-69936164D01*
X113973921Y-70005521D01*
X113949185Y-70072069D01*
X113937327Y-70085768D01*
X113225847Y-70797248D01*
X113217561Y-70804788D01*
X113211082Y-70808900D01*
X113205657Y-70814677D01*
X113164457Y-70858551D01*
X113161702Y-70861393D01*
X113141965Y-70881130D01*
X113139485Y-70884327D01*
X113131782Y-70893347D01*
X113101514Y-70925579D01*
X113097695Y-70932525D01*
X113097693Y-70932528D01*
X113091752Y-70943334D01*
X113080901Y-70959853D01*
X113068486Y-70975859D01*
X113065341Y-70983128D01*
X113065338Y-70983132D01*
X113050926Y-71016437D01*
X113045709Y-71027087D01*
X113024405Y-71065840D01*
X113022434Y-71073515D01*
X113022434Y-71073516D01*
X113019367Y-71085462D01*
X113012963Y-71104166D01*
X113004919Y-71122755D01*
X113003680Y-71130578D01*
X113003677Y-71130588D01*
X112998001Y-71166424D01*
X112995595Y-71178044D01*
X112993060Y-71187919D01*
X112984600Y-71220870D01*
X112984600Y-71241124D01*
X112983049Y-71260834D01*
X112979880Y-71280843D01*
X112980626Y-71288735D01*
X112984041Y-71324861D01*
X112984600Y-71336719D01*
X112984600Y-78991333D01*
X112984073Y-79002516D01*
X112982398Y-79010009D01*
X112982647Y-79017935D01*
X112982647Y-79017936D01*
X112984538Y-79078086D01*
X112984600Y-79082045D01*
X112984600Y-79109956D01*
X112985097Y-79113890D01*
X112985097Y-79113891D01*
X112985105Y-79113956D01*
X112986038Y-79125793D01*
X112987427Y-79169989D01*
X112992227Y-79186511D01*
X112993078Y-79189439D01*
X112997087Y-79208800D01*
X112999626Y-79228897D01*
X113002545Y-79236268D01*
X113002545Y-79236270D01*
X113015904Y-79270012D01*
X113019749Y-79281242D01*
X113029625Y-79315236D01*
X113032082Y-79323693D01*
X113036115Y-79330512D01*
X113036117Y-79330517D01*
X113042393Y-79341128D01*
X113051088Y-79358876D01*
X113058548Y-79377717D01*
X113063210Y-79384133D01*
X113063210Y-79384134D01*
X113084536Y-79413487D01*
X113091052Y-79423407D01*
X113113558Y-79461462D01*
X113127879Y-79475783D01*
X113140719Y-79490816D01*
X113152628Y-79507207D01*
X113158734Y-79512258D01*
X113186705Y-79535398D01*
X113195484Y-79543388D01*
X114199204Y-80547108D01*
X114233230Y-80609420D01*
X114228165Y-80680235D01*
X114201039Y-80722443D01*
X114201226Y-80722600D01*
X114199996Y-80724066D01*
X114199204Y-80725298D01*
X114193802Y-80730700D01*
X114190645Y-80735208D01*
X114190643Y-80735211D01*
X114135902Y-80813389D01*
X114062477Y-80918251D01*
X114060154Y-80923233D01*
X114060151Y-80923238D01*
X113968039Y-81120775D01*
X113965716Y-81125757D01*
X113964294Y-81131065D01*
X113964293Y-81131067D01*
X113918200Y-81303087D01*
X113906457Y-81346913D01*
X113886502Y-81575000D01*
X113906457Y-81803087D01*
X113907881Y-81808400D01*
X113907881Y-81808402D01*
X113951560Y-81971411D01*
X113965716Y-82024243D01*
X113968039Y-82029224D01*
X113968039Y-82029225D01*
X114060151Y-82226762D01*
X114060154Y-82226767D01*
X114062477Y-82231749D01*
X114193802Y-82419300D01*
X114355700Y-82581198D01*
X114360208Y-82584355D01*
X114360211Y-82584357D01*
X114369303Y-82590723D01*
X114543251Y-82712523D01*
X114548233Y-82714846D01*
X114548238Y-82714849D01*
X114583049Y-82731081D01*
X114636334Y-82777998D01*
X114655795Y-82846275D01*
X114635253Y-82914235D01*
X114583049Y-82959471D01*
X114548489Y-82975586D01*
X114538993Y-82981069D01*
X114360533Y-83106028D01*
X114352125Y-83113084D01*
X114198084Y-83267125D01*
X114191028Y-83275533D01*
X114066069Y-83453993D01*
X114060586Y-83463489D01*
X113968510Y-83660947D01*
X113964764Y-83671239D01*
X113918606Y-83843503D01*
X113918942Y-83857599D01*
X113926884Y-83861000D01*
X116467967Y-83861000D01*
X116481498Y-83857027D01*
X116482727Y-83848478D01*
X116435236Y-83671239D01*
X116431490Y-83660947D01*
X116339414Y-83463489D01*
X116333931Y-83453993D01*
X116208972Y-83275533D01*
X116201916Y-83267125D01*
X116047875Y-83113084D01*
X116039467Y-83106028D01*
X115861007Y-82981069D01*
X115851511Y-82975586D01*
X115816951Y-82959471D01*
X115763666Y-82912554D01*
X115744205Y-82844277D01*
X115764747Y-82776317D01*
X115816951Y-82731081D01*
X115851762Y-82714849D01*
X115851767Y-82714846D01*
X115856749Y-82712523D01*
X116030697Y-82590723D01*
X116039789Y-82584357D01*
X116039792Y-82584355D01*
X116044300Y-82581198D01*
X116206198Y-82419300D01*
X116337523Y-82231749D01*
X116339846Y-82226767D01*
X116339849Y-82226762D01*
X116431961Y-82029225D01*
X116431961Y-82029224D01*
X116434284Y-82024243D01*
X116448441Y-81971411D01*
X116492119Y-81808402D01*
X116492119Y-81808400D01*
X116493543Y-81803087D01*
X116513498Y-81575000D01*
X116493543Y-81346913D01*
X116481800Y-81303087D01*
X116465381Y-81241811D01*
X116467071Y-81170835D01*
X116506865Y-81112039D01*
X116572129Y-81084091D01*
X116587088Y-81083200D01*
X120254806Y-81083200D01*
X120322927Y-81103202D01*
X120343901Y-81120105D01*
X121191043Y-81967247D01*
X121198587Y-81975537D01*
X121202700Y-81982018D01*
X121208477Y-81987443D01*
X121252367Y-82028658D01*
X121255209Y-82031413D01*
X121274931Y-82051135D01*
X121278055Y-82053558D01*
X121278059Y-82053562D01*
X121278124Y-82053612D01*
X121287145Y-82061317D01*
X121319379Y-82091586D01*
X121326327Y-82095405D01*
X121326329Y-82095407D01*
X121337132Y-82101346D01*
X121353659Y-82112202D01*
X121363398Y-82119757D01*
X121363400Y-82119758D01*
X121369660Y-82124614D01*
X121410240Y-82142174D01*
X121420888Y-82147391D01*
X121459640Y-82168695D01*
X121467316Y-82170666D01*
X121467319Y-82170667D01*
X121479262Y-82173733D01*
X121497967Y-82180137D01*
X121516555Y-82188181D01*
X121524378Y-82189420D01*
X121524388Y-82189423D01*
X121560224Y-82195099D01*
X121571844Y-82197505D01*
X121606989Y-82206528D01*
X121614670Y-82208500D01*
X121617223Y-82208500D01*
X121680108Y-82235925D01*
X121702454Y-82260279D01*
X121813802Y-82419300D01*
X121975700Y-82581198D01*
X121980208Y-82584355D01*
X121980211Y-82584357D01*
X121989303Y-82590723D01*
X122163251Y-82712523D01*
X122168233Y-82714846D01*
X122168238Y-82714849D01*
X122202457Y-82730805D01*
X122255742Y-82777722D01*
X122275203Y-82845999D01*
X122254661Y-82913959D01*
X122202457Y-82959195D01*
X122168238Y-82975151D01*
X122168233Y-82975154D01*
X122163251Y-82977477D01*
X122064532Y-83046601D01*
X121980211Y-83105643D01*
X121980208Y-83105645D01*
X121975700Y-83108802D01*
X121813802Y-83270700D01*
X121682477Y-83458251D01*
X121680154Y-83463233D01*
X121680151Y-83463238D01*
X121680034Y-83463489D01*
X121585716Y-83665757D01*
X121584294Y-83671065D01*
X121584293Y-83671067D01*
X121527881Y-83881598D01*
X121526457Y-83886913D01*
X121506502Y-84115000D01*
X121526457Y-84343087D01*
X121527881Y-84348400D01*
X121527881Y-84348402D01*
X121558641Y-84463197D01*
X121585716Y-84564243D01*
X121588039Y-84569224D01*
X121588039Y-84569225D01*
X121680151Y-84766762D01*
X121680154Y-84766767D01*
X121682477Y-84771749D01*
X121813802Y-84959300D01*
X121975700Y-85121198D01*
X121980208Y-85124355D01*
X121980211Y-85124357D01*
X122058389Y-85179098D01*
X122163251Y-85252523D01*
X122168233Y-85254846D01*
X122168238Y-85254849D01*
X122364765Y-85346490D01*
X122370757Y-85349284D01*
X122376065Y-85350706D01*
X122376067Y-85350707D01*
X122586598Y-85407119D01*
X122586600Y-85407119D01*
X122591913Y-85408543D01*
X122820000Y-85428498D01*
X123048087Y-85408543D01*
X123053400Y-85407119D01*
X123053402Y-85407119D01*
X123263933Y-85350707D01*
X123263935Y-85350706D01*
X123269243Y-85349284D01*
X123275235Y-85346490D01*
X123471762Y-85254849D01*
X123471767Y-85254846D01*
X123476749Y-85252523D01*
X123581611Y-85179098D01*
X123659789Y-85124357D01*
X123659792Y-85124355D01*
X123664300Y-85121198D01*
X123826198Y-84959300D01*
X123957523Y-84771749D01*
X123959846Y-84766767D01*
X123959849Y-84766762D01*
X124051961Y-84569225D01*
X124051961Y-84569224D01*
X124054284Y-84564243D01*
X124081360Y-84463197D01*
X124112119Y-84348402D01*
X124112119Y-84348400D01*
X124113543Y-84343087D01*
X124133498Y-84115000D01*
X124113543Y-83886913D01*
X124112119Y-83881598D01*
X124055707Y-83671067D01*
X124055706Y-83671065D01*
X124054284Y-83665757D01*
X123959966Y-83463489D01*
X123959849Y-83463238D01*
X123959846Y-83463233D01*
X123957523Y-83458251D01*
X123826198Y-83270700D01*
X123664300Y-83108802D01*
X123659792Y-83105645D01*
X123659789Y-83105643D01*
X123575468Y-83046601D01*
X123476749Y-82977477D01*
X123471767Y-82975154D01*
X123471762Y-82975151D01*
X123437543Y-82959195D01*
X123384258Y-82912278D01*
X123364797Y-82844001D01*
X123385339Y-82776041D01*
X123437543Y-82730805D01*
X123471762Y-82714849D01*
X123471767Y-82714846D01*
X123476749Y-82712523D01*
X123650697Y-82590723D01*
X123659789Y-82584357D01*
X123659792Y-82584355D01*
X123664300Y-82581198D01*
X123826198Y-82419300D01*
X123957523Y-82231749D01*
X123959846Y-82226767D01*
X123959849Y-82226762D01*
X124051961Y-82029225D01*
X124051961Y-82029224D01*
X124054284Y-82024243D01*
X124068441Y-81971411D01*
X124112119Y-81808402D01*
X124112119Y-81808400D01*
X124113543Y-81803087D01*
X124133498Y-81575000D01*
X124113543Y-81346913D01*
X124101800Y-81303087D01*
X124055707Y-81131067D01*
X124055706Y-81131065D01*
X124054284Y-81125757D01*
X124051961Y-81120775D01*
X123959849Y-80923238D01*
X123959846Y-80923233D01*
X123957523Y-80918251D01*
X123884098Y-80813389D01*
X123829357Y-80735211D01*
X123829355Y-80735208D01*
X123826198Y-80730700D01*
X123664300Y-80568802D01*
X123659792Y-80565645D01*
X123659789Y-80565643D01*
X123564918Y-80499214D01*
X123476749Y-80437477D01*
X123471767Y-80435154D01*
X123471762Y-80435151D01*
X123437543Y-80419195D01*
X123384258Y-80372278D01*
X123364797Y-80304001D01*
X123385339Y-80236041D01*
X123437543Y-80190805D01*
X123471762Y-80174849D01*
X123471767Y-80174846D01*
X123476749Y-80172523D01*
X123629389Y-80065643D01*
X123659789Y-80044357D01*
X123659792Y-80044355D01*
X123664300Y-80041198D01*
X123826198Y-79879300D01*
X123839838Y-79859821D01*
X123921957Y-79742542D01*
X123957523Y-79691749D01*
X123959846Y-79686767D01*
X123959849Y-79686762D01*
X124051961Y-79489225D01*
X124051961Y-79489224D01*
X124054284Y-79484243D01*
X124062218Y-79454635D01*
X124112119Y-79268402D01*
X124112119Y-79268400D01*
X124113543Y-79263087D01*
X124133498Y-79035000D01*
X124113543Y-78806913D01*
X124112119Y-78801598D01*
X124055707Y-78591067D01*
X124055706Y-78591065D01*
X124054284Y-78585757D01*
X124051961Y-78580775D01*
X123959849Y-78383238D01*
X123959846Y-78383233D01*
X123957523Y-78378251D01*
X123841582Y-78212670D01*
X123818894Y-78145397D01*
X123836179Y-78076537D01*
X123855700Y-78051304D01*
X124060407Y-77846598D01*
X124337558Y-77569447D01*
X124345837Y-77561913D01*
X124352318Y-77557800D01*
X124398944Y-77508148D01*
X124401698Y-77505307D01*
X124421435Y-77485570D01*
X124423915Y-77482373D01*
X124431620Y-77473351D01*
X124456459Y-77446900D01*
X124461886Y-77441121D01*
X124465705Y-77434175D01*
X124465707Y-77434172D01*
X124471648Y-77423366D01*
X124482499Y-77406847D01*
X124482859Y-77406383D01*
X124494914Y-77390841D01*
X124498059Y-77383572D01*
X124498062Y-77383568D01*
X124512474Y-77350263D01*
X124517691Y-77339613D01*
X124538995Y-77300860D01*
X124542158Y-77288543D01*
X124544033Y-77281238D01*
X124550437Y-77262534D01*
X124555333Y-77251220D01*
X124555333Y-77251219D01*
X124558481Y-77243945D01*
X124559720Y-77236122D01*
X124559723Y-77236112D01*
X124565399Y-77200276D01*
X124567805Y-77188656D01*
X124576828Y-77153511D01*
X124576828Y-77153510D01*
X124578800Y-77145830D01*
X124578800Y-77125576D01*
X124580351Y-77105865D01*
X124582280Y-77093686D01*
X124583520Y-77085857D01*
X124579359Y-77041838D01*
X124578800Y-77029981D01*
X124578800Y-76003067D01*
X124579327Y-75991884D01*
X124581002Y-75984391D01*
X124578862Y-75916314D01*
X124578800Y-75912355D01*
X124578800Y-75884444D01*
X124578295Y-75880444D01*
X124577362Y-75868601D01*
X124576222Y-75832329D01*
X124575973Y-75824410D01*
X124570322Y-75804958D01*
X124566314Y-75785606D01*
X124564767Y-75773363D01*
X124563774Y-75765503D01*
X124552500Y-75737027D01*
X124547500Y-75724397D01*
X124543655Y-75713170D01*
X124538304Y-75694754D01*
X124531318Y-75670707D01*
X124527284Y-75663885D01*
X124527281Y-75663879D01*
X124521006Y-75653268D01*
X124512310Y-75635518D01*
X124507772Y-75624056D01*
X124507769Y-75624051D01*
X124504852Y-75616683D01*
X124480057Y-75582555D01*
X124478873Y-75580925D01*
X124472357Y-75571007D01*
X124453875Y-75539757D01*
X124449842Y-75532937D01*
X124435518Y-75518613D01*
X124422676Y-75503578D01*
X124410772Y-75487193D01*
X124376706Y-75459011D01*
X124367927Y-75451022D01*
X123855659Y-74938754D01*
X123821633Y-74876442D01*
X123826698Y-74805627D01*
X123841541Y-74777388D01*
X123853215Y-74760716D01*
X123957523Y-74611749D01*
X123959846Y-74606767D01*
X123959849Y-74606762D01*
X124051961Y-74409225D01*
X124051961Y-74409224D01*
X124054284Y-74404243D01*
X124067747Y-74354001D01*
X124112119Y-74188402D01*
X124112119Y-74188400D01*
X124113543Y-74183087D01*
X124133498Y-73955000D01*
X124113543Y-73726913D01*
X124101800Y-73683087D01*
X124055707Y-73511067D01*
X124055706Y-73511065D01*
X124054284Y-73505757D01*
X124028063Y-73449525D01*
X123959849Y-73303238D01*
X123959846Y-73303233D01*
X123957523Y-73298251D01*
X123954367Y-73293743D01*
X123954363Y-73293737D01*
X123841541Y-73132610D01*
X123818853Y-73065336D01*
X123836138Y-72996476D01*
X123855659Y-72971245D01*
X124792547Y-72034357D01*
X124800837Y-72026813D01*
X124807318Y-72022700D01*
X124853959Y-71973032D01*
X124856713Y-71970191D01*
X124876434Y-71950470D01*
X124878912Y-71947275D01*
X124886618Y-71938253D01*
X124911458Y-71911801D01*
X124916886Y-71906021D01*
X124926646Y-71888268D01*
X124937499Y-71871745D01*
X124945053Y-71862006D01*
X124949913Y-71855741D01*
X124967476Y-71815157D01*
X124972683Y-71804527D01*
X124993995Y-71765760D01*
X124995966Y-71758083D01*
X124995968Y-71758078D01*
X124999032Y-71746142D01*
X125005438Y-71727430D01*
X125010334Y-71716117D01*
X125013481Y-71708845D01*
X125020397Y-71665181D01*
X125022804Y-71653560D01*
X125031828Y-71618411D01*
X125031828Y-71618410D01*
X125033800Y-71610730D01*
X125033800Y-71590469D01*
X125035351Y-71570758D01*
X125037279Y-71558585D01*
X125038519Y-71550757D01*
X125034359Y-71506746D01*
X125033800Y-71494889D01*
X125033800Y-69231382D01*
X125053802Y-69163261D01*
X125107458Y-69116768D01*
X125177732Y-69106664D01*
X125242312Y-69136158D01*
X125248895Y-69142287D01*
X138154595Y-82047986D01*
X138188621Y-82110298D01*
X138191500Y-82137081D01*
X138191500Y-99870407D01*
X138171498Y-99938528D01*
X138117842Y-99985021D01*
X138096237Y-99992443D01*
X138089684Y-99993155D01*
X138082289Y-99995927D01*
X138082286Y-99995928D01*
X137988303Y-100031161D01*
X137953295Y-100044285D01*
X137836739Y-100131639D01*
X137749385Y-100248195D01*
X137698255Y-100384584D01*
X137691500Y-100446766D01*
X137691500Y-102143034D01*
X137698255Y-102205216D01*
X137749385Y-102341605D01*
X137836739Y-102458161D01*
X137953295Y-102545515D01*
X138089684Y-102596645D01*
X138133252Y-102601378D01*
X138148486Y-102603033D01*
X138148489Y-102603033D01*
X138151866Y-102603400D01*
X138155185Y-102603400D01*
X138222110Y-102627053D01*
X138257804Y-102673056D01*
X138259734Y-102672041D01*
X138265442Y-102682900D01*
X138265632Y-102683145D01*
X138265653Y-102683303D01*
X138285644Y-102721334D01*
X138987188Y-103422878D01*
X139001132Y-103430492D01*
X139002965Y-103430361D01*
X139009580Y-103426110D01*
X139715077Y-102720613D01*
X139737871Y-102678871D01*
X139740047Y-102668871D01*
X139790253Y-102618673D01*
X139843814Y-102603449D01*
X139844719Y-102603400D01*
X139848134Y-102603400D01*
X139851530Y-102603031D01*
X139851532Y-102603031D01*
X139863879Y-102601690D01*
X139910316Y-102596645D01*
X140046705Y-102545515D01*
X140163261Y-102458161D01*
X140250615Y-102341605D01*
X140301745Y-102205216D01*
X140308500Y-102143034D01*
X140308500Y-100446766D01*
X140301745Y-100384584D01*
X140250615Y-100248195D01*
X140163261Y-100131639D01*
X140046705Y-100044285D01*
X140011697Y-100031161D01*
X139917714Y-99995928D01*
X139917711Y-99995927D01*
X139910316Y-99993155D01*
X139904547Y-99992528D01*
X139843709Y-99957774D01*
X139810887Y-99894819D01*
X139808500Y-99870407D01*
X139808500Y-81759260D01*
X139808507Y-81757941D01*
X139808737Y-81736007D01*
X139809451Y-81667779D01*
X139806696Y-81655034D01*
X139802254Y-81634493D01*
X139800289Y-81625403D01*
X139798230Y-81612832D01*
X139794182Y-81576744D01*
X139793397Y-81569745D01*
X139782367Y-81538070D01*
X139778204Y-81523258D01*
X139772609Y-81497381D01*
X139771119Y-81490490D01*
X139752793Y-81451189D01*
X139748008Y-81439406D01*
X139733745Y-81398448D01*
X139715979Y-81370016D01*
X139708640Y-81356499D01*
X139697440Y-81332481D01*
X139697438Y-81332477D01*
X139694463Y-81326098D01*
X139680737Y-81308402D01*
X139667891Y-81291840D01*
X139660597Y-81281385D01*
X139641359Y-81250598D01*
X139637626Y-81244624D01*
X139609024Y-81215821D01*
X139608439Y-81215196D01*
X139607922Y-81214530D01*
X139581932Y-81188540D01*
X139509815Y-81115918D01*
X139508778Y-81115260D01*
X139507549Y-81114157D01*
X124591360Y-66197968D01*
X124557334Y-66135656D01*
X124554934Y-66097892D01*
X124563019Y-66005476D01*
X124563019Y-66005475D01*
X124563498Y-66000000D01*
X124543543Y-65771913D01*
X124530308Y-65722519D01*
X124485707Y-65556067D01*
X124485706Y-65556065D01*
X124484284Y-65550757D01*
X124456149Y-65490420D01*
X124389849Y-65348238D01*
X124389846Y-65348233D01*
X124387523Y-65343251D01*
X124256198Y-65155700D01*
X124094300Y-64993802D01*
X124089792Y-64990645D01*
X124089789Y-64990643D01*
X123987548Y-64919053D01*
X123906749Y-64862477D01*
X123901767Y-64860154D01*
X123901762Y-64860151D01*
X123704225Y-64768039D01*
X123704224Y-64768039D01*
X123699243Y-64765716D01*
X123693935Y-64764294D01*
X123693933Y-64764293D01*
X123483402Y-64707881D01*
X123483400Y-64707881D01*
X123478087Y-64706457D01*
X123250000Y-64686502D01*
X123021913Y-64706457D01*
X123016600Y-64707881D01*
X123016598Y-64707881D01*
X122806067Y-64764293D01*
X122806065Y-64764294D01*
X122800757Y-64765716D01*
X122795776Y-64768039D01*
X122795775Y-64768039D01*
X122598238Y-64860151D01*
X122598233Y-64860154D01*
X122593251Y-64862477D01*
X122512452Y-64919053D01*
X122410211Y-64990643D01*
X122410208Y-64990645D01*
X122405700Y-64993802D01*
X122243802Y-65155700D01*
X122112477Y-65343251D01*
X122110153Y-65348235D01*
X122108829Y-65350528D01*
X122057447Y-65399521D01*
X121987733Y-65412957D01*
X121921822Y-65386571D01*
X121890591Y-65350528D01*
X121883934Y-65338998D01*
X121847491Y-65286952D01*
X121837012Y-65278576D01*
X121823566Y-65285644D01*
X120839095Y-66270115D01*
X120776783Y-66304141D01*
X120705968Y-66299076D01*
X120660905Y-66270115D01*
X119675713Y-65284923D01*
X119663938Y-65278493D01*
X119651923Y-65287789D01*
X119616069Y-65338994D01*
X119610585Y-65348491D01*
X119608818Y-65352281D01*
X119561900Y-65405565D01*
X119493622Y-65425025D01*
X119425662Y-65404482D01*
X119405529Y-65388124D01*
X118930393Y-64912988D01*
X120028576Y-64912988D01*
X120035644Y-64926434D01*
X120737188Y-65627978D01*
X120751132Y-65635592D01*
X120752965Y-65635461D01*
X120759580Y-65631210D01*
X121465077Y-64925713D01*
X121471507Y-64913938D01*
X121462211Y-64901923D01*
X121411006Y-64866069D01*
X121401511Y-64860586D01*
X121204053Y-64768510D01*
X121193761Y-64764764D01*
X120983312Y-64708375D01*
X120972519Y-64706472D01*
X120755475Y-64687483D01*
X120744525Y-64687483D01*
X120527481Y-64706472D01*
X120516688Y-64708375D01*
X120306239Y-64764764D01*
X120295947Y-64768510D01*
X120098489Y-64860586D01*
X120088994Y-64866069D01*
X120036952Y-64902509D01*
X120028576Y-64912988D01*
X118930393Y-64912988D01*
X118455405Y-64438000D01*
X118421379Y-64375688D01*
X118418500Y-64348905D01*
X118418500Y-54280427D01*
X118438502Y-54212306D01*
X118479618Y-54172550D01*
X118482994Y-54170896D01*
X118664860Y-54041173D01*
X118823096Y-53883489D01*
X118893923Y-53784923D01*
X118953453Y-53702077D01*
X118954776Y-53703028D01*
X119001645Y-53659857D01*
X119071580Y-53647625D01*
X119137026Y-53675144D01*
X119164875Y-53706994D01*
X119224987Y-53805088D01*
X119371250Y-53973938D01*
X119543126Y-54116632D01*
X119736000Y-54229338D01*
X119944692Y-54309030D01*
X119949760Y-54310061D01*
X119949763Y-54310062D01*
X120029232Y-54326230D01*
X120163597Y-54353567D01*
X120168772Y-54353757D01*
X120168774Y-54353757D01*
X120381673Y-54361564D01*
X120381677Y-54361564D01*
X120386837Y-54361753D01*
X120391957Y-54361097D01*
X120391959Y-54361097D01*
X120603288Y-54334025D01*
X120603289Y-54334025D01*
X120608416Y-54333368D01*
X120632208Y-54326230D01*
X120817429Y-54270661D01*
X120817434Y-54270659D01*
X120822384Y-54269174D01*
X121022994Y-54170896D01*
X121204860Y-54041173D01*
X121363096Y-53883489D01*
X121433923Y-53784923D01*
X121493453Y-53702077D01*
X121494776Y-53703028D01*
X121541645Y-53659857D01*
X121611580Y-53647625D01*
X121677026Y-53675144D01*
X121704875Y-53706994D01*
X121764987Y-53805088D01*
X121911250Y-53973938D01*
X122083126Y-54116632D01*
X122276000Y-54229338D01*
X122484692Y-54309030D01*
X122489760Y-54310061D01*
X122489763Y-54310062D01*
X122569232Y-54326230D01*
X122703597Y-54353567D01*
X122708772Y-54353757D01*
X122708774Y-54353757D01*
X122921673Y-54361564D01*
X122921677Y-54361564D01*
X122926837Y-54361753D01*
X122931957Y-54361097D01*
X122931959Y-54361097D01*
X123143288Y-54334025D01*
X123143289Y-54334025D01*
X123148416Y-54333368D01*
X123172208Y-54326230D01*
X123357429Y-54270661D01*
X123357434Y-54270659D01*
X123362384Y-54269174D01*
X123562994Y-54170896D01*
X123744860Y-54041173D01*
X123903096Y-53883489D01*
X123973923Y-53784923D01*
X124033453Y-53702077D01*
X124034776Y-53703028D01*
X124081645Y-53659857D01*
X124151580Y-53647625D01*
X124217026Y-53675144D01*
X124244875Y-53706994D01*
X124304987Y-53805088D01*
X124451250Y-53973938D01*
X124623126Y-54116632D01*
X124816000Y-54229338D01*
X125024692Y-54309030D01*
X125029760Y-54310061D01*
X125029763Y-54310062D01*
X125109232Y-54326230D01*
X125243597Y-54353567D01*
X125248772Y-54353757D01*
X125248774Y-54353757D01*
X125461673Y-54361564D01*
X125461677Y-54361564D01*
X125466837Y-54361753D01*
X125471957Y-54361097D01*
X125471959Y-54361097D01*
X125683288Y-54334025D01*
X125683289Y-54334025D01*
X125688416Y-54333368D01*
X125712208Y-54326230D01*
X125897429Y-54270661D01*
X125897434Y-54270659D01*
X125902384Y-54269174D01*
X126102994Y-54170896D01*
X126284860Y-54041173D01*
X126443096Y-53883489D01*
X126513923Y-53784923D01*
X126573453Y-53702077D01*
X126574776Y-53703028D01*
X126621645Y-53659857D01*
X126691580Y-53647625D01*
X126757026Y-53675144D01*
X126784875Y-53706994D01*
X126844987Y-53805088D01*
X126991250Y-53973938D01*
X127163126Y-54116632D01*
X127356000Y-54229338D01*
X127564692Y-54309030D01*
X127569760Y-54310061D01*
X127569763Y-54310062D01*
X127649232Y-54326230D01*
X127783597Y-54353567D01*
X127788772Y-54353757D01*
X127788774Y-54353757D01*
X128001673Y-54361564D01*
X128001677Y-54361564D01*
X128006837Y-54361753D01*
X128011957Y-54361097D01*
X128011959Y-54361097D01*
X128223288Y-54334025D01*
X128223289Y-54334025D01*
X128228416Y-54333368D01*
X128252208Y-54326230D01*
X128437429Y-54270661D01*
X128437434Y-54270659D01*
X128442384Y-54269174D01*
X128642994Y-54170896D01*
X128824860Y-54041173D01*
X128983096Y-53883489D01*
X129053923Y-53784923D01*
X129113453Y-53702077D01*
X129114776Y-53703028D01*
X129161645Y-53659857D01*
X129231580Y-53647625D01*
X129297026Y-53675144D01*
X129324875Y-53706994D01*
X129384987Y-53805088D01*
X129531250Y-53973938D01*
X129703126Y-54116632D01*
X129896000Y-54229338D01*
X130104692Y-54309030D01*
X130109760Y-54310061D01*
X130109763Y-54310062D01*
X130189232Y-54326230D01*
X130323597Y-54353567D01*
X130328772Y-54353757D01*
X130328774Y-54353757D01*
X130541673Y-54361564D01*
X130541677Y-54361564D01*
X130546837Y-54361753D01*
X130551957Y-54361097D01*
X130551959Y-54361097D01*
X130763288Y-54334025D01*
X130763289Y-54334025D01*
X130768416Y-54333368D01*
X130792208Y-54326230D01*
X130977429Y-54270661D01*
X130977434Y-54270659D01*
X130982384Y-54269174D01*
X131182994Y-54170896D01*
X131364860Y-54041173D01*
X131523096Y-53883489D01*
X131593923Y-53784923D01*
X131650435Y-53706277D01*
X131653453Y-53702077D01*
X131674320Y-53659857D01*
X131750136Y-53506453D01*
X131750137Y-53506451D01*
X131752430Y-53501811D01*
X131817370Y-53288069D01*
X131846529Y-53066590D01*
X131848156Y-53000000D01*
X131829852Y-52777361D01*
X131775431Y-52560702D01*
X131686354Y-52355840D01*
X131565014Y-52168277D01*
X131414670Y-52003051D01*
X131410619Y-51999852D01*
X131410615Y-51999848D01*
X131243414Y-51867800D01*
X131243410Y-51867798D01*
X131239359Y-51864598D01*
X131234829Y-51862097D01*
X131202259Y-51844118D01*
X131197569Y-51841529D01*
X131147598Y-51791097D01*
X131132826Y-51721654D01*
X131157942Y-51655248D01*
X131185294Y-51628641D01*
X131360328Y-51503792D01*
X131368200Y-51497139D01*
X131519052Y-51346812D01*
X131525730Y-51338965D01*
X131650003Y-51166020D01*
X131655313Y-51157183D01*
X131749670Y-50966267D01*
X131753469Y-50956672D01*
X131815377Y-50752910D01*
X131817555Y-50742837D01*
X131818986Y-50731962D01*
X131816775Y-50717778D01*
X131803617Y-50714000D01*
X127817000Y-50714000D01*
X127748879Y-50693998D01*
X127702386Y-50640342D01*
X127691000Y-50588000D01*
X127691000Y-50187885D01*
X128199000Y-50187885D01*
X128203475Y-50203124D01*
X128204865Y-50204329D01*
X128212548Y-50206000D01*
X130212885Y-50206000D01*
X130228124Y-50201525D01*
X130229329Y-50200135D01*
X130231000Y-50192452D01*
X130231000Y-50187885D01*
X130739000Y-50187885D01*
X130743475Y-50203124D01*
X130744865Y-50204329D01*
X130752548Y-50206000D01*
X131803344Y-50206000D01*
X131816875Y-50202027D01*
X131818180Y-50192947D01*
X131776214Y-50025875D01*
X131772894Y-50016124D01*
X131687972Y-49820814D01*
X131683105Y-49811739D01*
X131567426Y-49632926D01*
X131561136Y-49624757D01*
X131417806Y-49467240D01*
X131410273Y-49460215D01*
X131243139Y-49328222D01*
X131234552Y-49322517D01*
X131048117Y-49219599D01*
X131038705Y-49215369D01*
X130837959Y-49144280D01*
X130827988Y-49141646D01*
X130756837Y-49128972D01*
X130743540Y-49130432D01*
X130739000Y-49144989D01*
X130739000Y-50187885D01*
X130231000Y-50187885D01*
X130231000Y-49143102D01*
X130227082Y-49129758D01*
X130212806Y-49127771D01*
X130174324Y-49133660D01*
X130164288Y-49136051D01*
X129961868Y-49202212D01*
X129952359Y-49206209D01*
X129763463Y-49304542D01*
X129754738Y-49310036D01*
X129584433Y-49437905D01*
X129576726Y-49444748D01*
X129429590Y-49598717D01*
X129423104Y-49606727D01*
X129318193Y-49760521D01*
X129263282Y-49805524D01*
X129192757Y-49813695D01*
X129129010Y-49782441D01*
X129108313Y-49757957D01*
X129027427Y-49632926D01*
X129021136Y-49624757D01*
X128877806Y-49467240D01*
X128870273Y-49460215D01*
X128703139Y-49328222D01*
X128694552Y-49322517D01*
X128508117Y-49219599D01*
X128498705Y-49215369D01*
X128297959Y-49144280D01*
X128287988Y-49141646D01*
X128216837Y-49128972D01*
X128203540Y-49130432D01*
X128199000Y-49144989D01*
X128199000Y-50187885D01*
X127691000Y-50187885D01*
X127691000Y-49143102D01*
X127687082Y-49129758D01*
X127672806Y-49127771D01*
X127634324Y-49133660D01*
X127624288Y-49136051D01*
X127421868Y-49202212D01*
X127412359Y-49206209D01*
X127223463Y-49304542D01*
X127214738Y-49310036D01*
X127044433Y-49437905D01*
X127036726Y-49444748D01*
X126889590Y-49598717D01*
X126883109Y-49606722D01*
X126778498Y-49760074D01*
X126723587Y-49805076D01*
X126653062Y-49813247D01*
X126589315Y-49781993D01*
X126568618Y-49757509D01*
X126487822Y-49632617D01*
X126487820Y-49632614D01*
X126485014Y-49628277D01*
X126334670Y-49463051D01*
X126330619Y-49459852D01*
X126330615Y-49459848D01*
X126163414Y-49327800D01*
X126163410Y-49327798D01*
X126159359Y-49324598D01*
X126123028Y-49304542D01*
X126107136Y-49295769D01*
X125963789Y-49216638D01*
X125958920Y-49214914D01*
X125958916Y-49214912D01*
X125758087Y-49143795D01*
X125758083Y-49143794D01*
X125753212Y-49142069D01*
X125748119Y-49141162D01*
X125748116Y-49141161D01*
X125538373Y-49103800D01*
X125538367Y-49103799D01*
X125533284Y-49102894D01*
X125459452Y-49101992D01*
X125315081Y-49100228D01*
X125315079Y-49100228D01*
X125309911Y-49100165D01*
X125089091Y-49133955D01*
X124876756Y-49203357D01*
X124678607Y-49306507D01*
X124674474Y-49309610D01*
X124674471Y-49309612D01*
X124650247Y-49327800D01*
X124499965Y-49440635D01*
X124345629Y-49602138D01*
X124238201Y-49759621D01*
X124183293Y-49804621D01*
X124112768Y-49812792D01*
X124049021Y-49781538D01*
X124028324Y-49757054D01*
X123947822Y-49632617D01*
X123947820Y-49632614D01*
X123945014Y-49628277D01*
X123794670Y-49463051D01*
X123790619Y-49459852D01*
X123790615Y-49459848D01*
X123623414Y-49327800D01*
X123623410Y-49327798D01*
X123619359Y-49324598D01*
X123583028Y-49304542D01*
X123567136Y-49295769D01*
X123423789Y-49216638D01*
X123418920Y-49214914D01*
X123418916Y-49214912D01*
X123218087Y-49143795D01*
X123218083Y-49143794D01*
X123213212Y-49142069D01*
X123208119Y-49141162D01*
X123208116Y-49141161D01*
X122998373Y-49103800D01*
X122998367Y-49103799D01*
X122993284Y-49102894D01*
X122919452Y-49101992D01*
X122775081Y-49100228D01*
X122775079Y-49100228D01*
X122769911Y-49100165D01*
X122549091Y-49133955D01*
X122336756Y-49203357D01*
X122138607Y-49306507D01*
X122134474Y-49309610D01*
X122134471Y-49309612D01*
X122110247Y-49327800D01*
X121959965Y-49440635D01*
X121805629Y-49602138D01*
X121698201Y-49759621D01*
X121643293Y-49804621D01*
X121572768Y-49812792D01*
X121509021Y-49781538D01*
X121488324Y-49757054D01*
X121407822Y-49632617D01*
X121407820Y-49632614D01*
X121405014Y-49628277D01*
X121254670Y-49463051D01*
X121250619Y-49459852D01*
X121250615Y-49459848D01*
X121083414Y-49327800D01*
X121083410Y-49327798D01*
X121079359Y-49324598D01*
X121043028Y-49304542D01*
X121027136Y-49295769D01*
X120883789Y-49216638D01*
X120878920Y-49214914D01*
X120878916Y-49214912D01*
X120678087Y-49143795D01*
X120678083Y-49143794D01*
X120673212Y-49142069D01*
X120668119Y-49141162D01*
X120668116Y-49141161D01*
X120458373Y-49103800D01*
X120458367Y-49103799D01*
X120453284Y-49102894D01*
X120379452Y-49101992D01*
X120235081Y-49100228D01*
X120235079Y-49100228D01*
X120229911Y-49100165D01*
X120009091Y-49133955D01*
X119796756Y-49203357D01*
X119598607Y-49306507D01*
X119594474Y-49309610D01*
X119594471Y-49309612D01*
X119570247Y-49327800D01*
X119419965Y-49440635D01*
X119265629Y-49602138D01*
X119158201Y-49759621D01*
X119103293Y-49804621D01*
X119032768Y-49812792D01*
X118969021Y-49781538D01*
X118948324Y-49757054D01*
X118867822Y-49632617D01*
X118867820Y-49632614D01*
X118865014Y-49628277D01*
X118714670Y-49463051D01*
X118710619Y-49459852D01*
X118710615Y-49459848D01*
X118543414Y-49327800D01*
X118543410Y-49327798D01*
X118539359Y-49324598D01*
X118503028Y-49304542D01*
X118487136Y-49295769D01*
X118343789Y-49216638D01*
X118338920Y-49214914D01*
X118338916Y-49214912D01*
X118138087Y-49143795D01*
X118138083Y-49143794D01*
X118133212Y-49142069D01*
X118128119Y-49141162D01*
X118128116Y-49141161D01*
X117918373Y-49103800D01*
X117918367Y-49103799D01*
X117913284Y-49102894D01*
X117839452Y-49101992D01*
X117695081Y-49100228D01*
X117695079Y-49100228D01*
X117689911Y-49100165D01*
X117469091Y-49133955D01*
X117256756Y-49203357D01*
X117058607Y-49306507D01*
X117054474Y-49309610D01*
X117054471Y-49309612D01*
X117030247Y-49327800D01*
X116879965Y-49440635D01*
X116725629Y-49602138D01*
X116618201Y-49759621D01*
X116563293Y-49804621D01*
X116492768Y-49812792D01*
X116429021Y-49781538D01*
X116408324Y-49757054D01*
X116327822Y-49632617D01*
X116327820Y-49632614D01*
X116325014Y-49628277D01*
X116174670Y-49463051D01*
X116170619Y-49459852D01*
X116170615Y-49459848D01*
X116003414Y-49327800D01*
X116003410Y-49327798D01*
X115999359Y-49324598D01*
X115963028Y-49304542D01*
X115947136Y-49295769D01*
X115803789Y-49216638D01*
X115798920Y-49214914D01*
X115798916Y-49214912D01*
X115598087Y-49143795D01*
X115598083Y-49143794D01*
X115593212Y-49142069D01*
X115588119Y-49141162D01*
X115588116Y-49141161D01*
X115378373Y-49103800D01*
X115378367Y-49103799D01*
X115373284Y-49102894D01*
X115299452Y-49101992D01*
X115155081Y-49100228D01*
X115155079Y-49100228D01*
X115149911Y-49100165D01*
X114929091Y-49133955D01*
X114716756Y-49203357D01*
X114518607Y-49306507D01*
X114514474Y-49309610D01*
X114514471Y-49309612D01*
X114490247Y-49327800D01*
X114339965Y-49440635D01*
X114185629Y-49602138D01*
X114078201Y-49759621D01*
X114023293Y-49804621D01*
X113952768Y-49812792D01*
X113889021Y-49781538D01*
X113868324Y-49757054D01*
X113787822Y-49632617D01*
X113787820Y-49632614D01*
X113785014Y-49628277D01*
X113634670Y-49463051D01*
X113630619Y-49459852D01*
X113630615Y-49459848D01*
X113463414Y-49327800D01*
X113463410Y-49327798D01*
X113459359Y-49324598D01*
X113423028Y-49304542D01*
X113407136Y-49295769D01*
X113263789Y-49216638D01*
X113258920Y-49214914D01*
X113258916Y-49214912D01*
X113058087Y-49143795D01*
X113058083Y-49143794D01*
X113053212Y-49142069D01*
X113048119Y-49141162D01*
X113048116Y-49141161D01*
X112838373Y-49103800D01*
X112838367Y-49103799D01*
X112833284Y-49102894D01*
X112759452Y-49101992D01*
X112615081Y-49100228D01*
X112615079Y-49100228D01*
X112609911Y-49100165D01*
X112389091Y-49133955D01*
X112176756Y-49203357D01*
X111978607Y-49306507D01*
X111974474Y-49309610D01*
X111974471Y-49309612D01*
X111950247Y-49327800D01*
X111799965Y-49440635D01*
X111645629Y-49602138D01*
X111538201Y-49759621D01*
X111483293Y-49804621D01*
X111412768Y-49812792D01*
X111349021Y-49781538D01*
X111328324Y-49757054D01*
X111247822Y-49632617D01*
X111247820Y-49632614D01*
X111245014Y-49628277D01*
X111094670Y-49463051D01*
X111090619Y-49459852D01*
X111090615Y-49459848D01*
X110923414Y-49327800D01*
X110923410Y-49327798D01*
X110919359Y-49324598D01*
X110883028Y-49304542D01*
X110867136Y-49295769D01*
X110723789Y-49216638D01*
X110718920Y-49214914D01*
X110718916Y-49214912D01*
X110518087Y-49143795D01*
X110518083Y-49143794D01*
X110513212Y-49142069D01*
X110508119Y-49141162D01*
X110508116Y-49141161D01*
X110298373Y-49103800D01*
X110298367Y-49103799D01*
X110293284Y-49102894D01*
X110219452Y-49101992D01*
X110075081Y-49100228D01*
X110075079Y-49100228D01*
X110069911Y-49100165D01*
X109849091Y-49133955D01*
X109636756Y-49203357D01*
X109438607Y-49306507D01*
X109434474Y-49309610D01*
X109434471Y-49309612D01*
X109410247Y-49327800D01*
X109259965Y-49440635D01*
X109105629Y-49602138D01*
X108998201Y-49759621D01*
X108943293Y-49804621D01*
X108872768Y-49812792D01*
X108809021Y-49781538D01*
X108788324Y-49757054D01*
X108707822Y-49632617D01*
X108707820Y-49632614D01*
X108705014Y-49628277D01*
X108554670Y-49463051D01*
X108550619Y-49459852D01*
X108550615Y-49459848D01*
X108383414Y-49327800D01*
X108383410Y-49327798D01*
X108379359Y-49324598D01*
X108343028Y-49304542D01*
X108327136Y-49295769D01*
X108183789Y-49216638D01*
X108178920Y-49214914D01*
X108178916Y-49214912D01*
X107978087Y-49143795D01*
X107978083Y-49143794D01*
X107973212Y-49142069D01*
X107968119Y-49141162D01*
X107968116Y-49141161D01*
X107758373Y-49103800D01*
X107758367Y-49103799D01*
X107753284Y-49102894D01*
X107679452Y-49101992D01*
X107535081Y-49100228D01*
X107535079Y-49100228D01*
X107529911Y-49100165D01*
X107309091Y-49133955D01*
X107096756Y-49203357D01*
X106898607Y-49306507D01*
X106894474Y-49309610D01*
X106894471Y-49309612D01*
X106870247Y-49327800D01*
X106719965Y-49440635D01*
X106565629Y-49602138D01*
X106458201Y-49759621D01*
X106403293Y-49804621D01*
X106332768Y-49812792D01*
X106269021Y-49781538D01*
X106248324Y-49757054D01*
X106167822Y-49632617D01*
X106167820Y-49632614D01*
X106165014Y-49628277D01*
X106014670Y-49463051D01*
X106010619Y-49459852D01*
X106010615Y-49459848D01*
X105843414Y-49327800D01*
X105843410Y-49327798D01*
X105839359Y-49324598D01*
X105803028Y-49304542D01*
X105787136Y-49295769D01*
X105643789Y-49216638D01*
X105638920Y-49214914D01*
X105638916Y-49214912D01*
X105438087Y-49143795D01*
X105438083Y-49143794D01*
X105433212Y-49142069D01*
X105428119Y-49141162D01*
X105428116Y-49141161D01*
X105218373Y-49103800D01*
X105218367Y-49103799D01*
X105213284Y-49102894D01*
X105139452Y-49101992D01*
X104995081Y-49100228D01*
X104995079Y-49100228D01*
X104989911Y-49100165D01*
X104769091Y-49133955D01*
X104556756Y-49203357D01*
X104358607Y-49306507D01*
X104354474Y-49309610D01*
X104354471Y-49309612D01*
X104330247Y-49327800D01*
X104179965Y-49440635D01*
X104025629Y-49602138D01*
X103918201Y-49759621D01*
X103863293Y-49804621D01*
X103792768Y-49812792D01*
X103729021Y-49781538D01*
X103708324Y-49757054D01*
X103627822Y-49632617D01*
X103627820Y-49632614D01*
X103625014Y-49628277D01*
X103474670Y-49463051D01*
X103470619Y-49459852D01*
X103470615Y-49459848D01*
X103303414Y-49327800D01*
X103303410Y-49327798D01*
X103299359Y-49324598D01*
X103263028Y-49304542D01*
X103247136Y-49295769D01*
X103103789Y-49216638D01*
X103098920Y-49214914D01*
X103098916Y-49214912D01*
X102898087Y-49143795D01*
X102898083Y-49143794D01*
X102893212Y-49142069D01*
X102888119Y-49141162D01*
X102888116Y-49141161D01*
X102678373Y-49103800D01*
X102678367Y-49103799D01*
X102673284Y-49102894D01*
X102599452Y-49101992D01*
X102455081Y-49100228D01*
X102455079Y-49100228D01*
X102449911Y-49100165D01*
X102229091Y-49133955D01*
X102016756Y-49203357D01*
X101818607Y-49306507D01*
X101814474Y-49309610D01*
X101814471Y-49309612D01*
X101790247Y-49327800D01*
X101639965Y-49440635D01*
X101485629Y-49602138D01*
X101378201Y-49759621D01*
X101323293Y-49804621D01*
X101252768Y-49812792D01*
X101189021Y-49781538D01*
X101168324Y-49757054D01*
X101087822Y-49632617D01*
X101087820Y-49632614D01*
X101085014Y-49628277D01*
X100934670Y-49463051D01*
X100930619Y-49459852D01*
X100930615Y-49459848D01*
X100763414Y-49327800D01*
X100763410Y-49327798D01*
X100759359Y-49324598D01*
X100723028Y-49304542D01*
X100707136Y-49295769D01*
X100563789Y-49216638D01*
X100558920Y-49214914D01*
X100558916Y-49214912D01*
X100358087Y-49143795D01*
X100358083Y-49143794D01*
X100353212Y-49142069D01*
X100348119Y-49141162D01*
X100348116Y-49141161D01*
X100138373Y-49103800D01*
X100138367Y-49103799D01*
X100133284Y-49102894D01*
X100059452Y-49101992D01*
X99915081Y-49100228D01*
X99915079Y-49100228D01*
X99909911Y-49100165D01*
X99689091Y-49133955D01*
X99476756Y-49203357D01*
X99278607Y-49306507D01*
X99274474Y-49309610D01*
X99274471Y-49309612D01*
X99250247Y-49327800D01*
X99099965Y-49440635D01*
X98945629Y-49602138D01*
X98838201Y-49759621D01*
X98783293Y-49804621D01*
X98712768Y-49812792D01*
X98649021Y-49781538D01*
X98628324Y-49757054D01*
X98547822Y-49632617D01*
X98547820Y-49632614D01*
X98545014Y-49628277D01*
X98394670Y-49463051D01*
X98390619Y-49459852D01*
X98390615Y-49459848D01*
X98223414Y-49327800D01*
X98223410Y-49327798D01*
X98219359Y-49324598D01*
X98183028Y-49304542D01*
X98167136Y-49295769D01*
X98023789Y-49216638D01*
X98018920Y-49214914D01*
X98018916Y-49214912D01*
X97818087Y-49143795D01*
X97818083Y-49143794D01*
X97813212Y-49142069D01*
X97808119Y-49141162D01*
X97808116Y-49141161D01*
X97598373Y-49103800D01*
X97598367Y-49103799D01*
X97593284Y-49102894D01*
X97519452Y-49101992D01*
X97375081Y-49100228D01*
X97375079Y-49100228D01*
X97369911Y-49100165D01*
X97149091Y-49133955D01*
X96936756Y-49203357D01*
X96738607Y-49306507D01*
X96734474Y-49309610D01*
X96734471Y-49309612D01*
X96710247Y-49327800D01*
X96559965Y-49440635D01*
X96405629Y-49602138D01*
X96298201Y-49759621D01*
X96243293Y-49804621D01*
X96172768Y-49812792D01*
X96109021Y-49781538D01*
X96088324Y-49757054D01*
X96007822Y-49632617D01*
X96007820Y-49632614D01*
X96005014Y-49628277D01*
X95854670Y-49463051D01*
X95850619Y-49459852D01*
X95850615Y-49459848D01*
X95683414Y-49327800D01*
X95683410Y-49327798D01*
X95679359Y-49324598D01*
X95643028Y-49304542D01*
X95627136Y-49295769D01*
X95483789Y-49216638D01*
X95478920Y-49214914D01*
X95478916Y-49214912D01*
X95278087Y-49143795D01*
X95278083Y-49143794D01*
X95273212Y-49142069D01*
X95268119Y-49141162D01*
X95268116Y-49141161D01*
X95058373Y-49103800D01*
X95058367Y-49103799D01*
X95053284Y-49102894D01*
X94979452Y-49101992D01*
X94835081Y-49100228D01*
X94835079Y-49100228D01*
X94829911Y-49100165D01*
X94609091Y-49133955D01*
X94396756Y-49203357D01*
X94198607Y-49306507D01*
X94194474Y-49309610D01*
X94194471Y-49309612D01*
X94170247Y-49327800D01*
X94019965Y-49440635D01*
X93865629Y-49602138D01*
X93758201Y-49759621D01*
X93703293Y-49804621D01*
X93632768Y-49812792D01*
X93569021Y-49781538D01*
X93548324Y-49757054D01*
X93467822Y-49632617D01*
X93467820Y-49632614D01*
X93465014Y-49628277D01*
X93314670Y-49463051D01*
X93310619Y-49459852D01*
X93310615Y-49459848D01*
X93143414Y-49327800D01*
X93143410Y-49327798D01*
X93139359Y-49324598D01*
X93103028Y-49304542D01*
X93087136Y-49295769D01*
X92943789Y-49216638D01*
X92938920Y-49214914D01*
X92938916Y-49214912D01*
X92738087Y-49143795D01*
X92738083Y-49143794D01*
X92733212Y-49142069D01*
X92728119Y-49141162D01*
X92728116Y-49141161D01*
X92518373Y-49103800D01*
X92518367Y-49103799D01*
X92513284Y-49102894D01*
X92439452Y-49101992D01*
X92295081Y-49100228D01*
X92295079Y-49100228D01*
X92289911Y-49100165D01*
X92069091Y-49133955D01*
X91856756Y-49203357D01*
X91658607Y-49306507D01*
X91654474Y-49309610D01*
X91654471Y-49309612D01*
X91630247Y-49327800D01*
X91479965Y-49440635D01*
X91325629Y-49602138D01*
X91218201Y-49759621D01*
X91163293Y-49804621D01*
X91092768Y-49812792D01*
X91029021Y-49781538D01*
X91008324Y-49757054D01*
X90927822Y-49632617D01*
X90927820Y-49632614D01*
X90925014Y-49628277D01*
X90774670Y-49463051D01*
X90770619Y-49459852D01*
X90770615Y-49459848D01*
X90603414Y-49327800D01*
X90603410Y-49327798D01*
X90599359Y-49324598D01*
X90563028Y-49304542D01*
X90547136Y-49295769D01*
X90403789Y-49216638D01*
X90398920Y-49214914D01*
X90398916Y-49214912D01*
X90198087Y-49143795D01*
X90198083Y-49143794D01*
X90193212Y-49142069D01*
X90188119Y-49141162D01*
X90188116Y-49141161D01*
X89978373Y-49103800D01*
X89978367Y-49103799D01*
X89973284Y-49102894D01*
X89899452Y-49101992D01*
X89755081Y-49100228D01*
X89755079Y-49100228D01*
X89749911Y-49100165D01*
X89529091Y-49133955D01*
X89316756Y-49203357D01*
X89118607Y-49306507D01*
X89114474Y-49309610D01*
X89114471Y-49309612D01*
X89090247Y-49327800D01*
X88939965Y-49440635D01*
X88785629Y-49602138D01*
X88678201Y-49759621D01*
X88623293Y-49804621D01*
X88552768Y-49812792D01*
X88489021Y-49781538D01*
X88468324Y-49757054D01*
X88387822Y-49632617D01*
X88387820Y-49632614D01*
X88385014Y-49628277D01*
X88234670Y-49463051D01*
X88230619Y-49459852D01*
X88230615Y-49459848D01*
X88063414Y-49327800D01*
X88063410Y-49327798D01*
X88059359Y-49324598D01*
X88023028Y-49304542D01*
X88007136Y-49295769D01*
X87863789Y-49216638D01*
X87858920Y-49214914D01*
X87858916Y-49214912D01*
X87658087Y-49143795D01*
X87658083Y-49143794D01*
X87653212Y-49142069D01*
X87648119Y-49141162D01*
X87648116Y-49141161D01*
X87438373Y-49103800D01*
X87438367Y-49103799D01*
X87433284Y-49102894D01*
X87359452Y-49101992D01*
X87215081Y-49100228D01*
X87215079Y-49100228D01*
X87209911Y-49100165D01*
X86989091Y-49133955D01*
X86776756Y-49203357D01*
X86578607Y-49306507D01*
X86574474Y-49309610D01*
X86574471Y-49309612D01*
X86550247Y-49327800D01*
X86399965Y-49440635D01*
X86245629Y-49602138D01*
X86138201Y-49759621D01*
X86083293Y-49804621D01*
X86012768Y-49812792D01*
X85949021Y-49781538D01*
X85928324Y-49757054D01*
X85847822Y-49632617D01*
X85847820Y-49632614D01*
X85845014Y-49628277D01*
X85694670Y-49463051D01*
X85690619Y-49459852D01*
X85690615Y-49459848D01*
X85523414Y-49327800D01*
X85523410Y-49327798D01*
X85519359Y-49324598D01*
X85483028Y-49304542D01*
X85467136Y-49295769D01*
X85323789Y-49216638D01*
X85318920Y-49214914D01*
X85318916Y-49214912D01*
X85118087Y-49143795D01*
X85118083Y-49143794D01*
X85113212Y-49142069D01*
X85108119Y-49141162D01*
X85108116Y-49141161D01*
X84898373Y-49103800D01*
X84898367Y-49103799D01*
X84893284Y-49102894D01*
X84819452Y-49101992D01*
X84675081Y-49100228D01*
X84675079Y-49100228D01*
X84669911Y-49100165D01*
X84449091Y-49133955D01*
X84236756Y-49203357D01*
X84038607Y-49306507D01*
X84034474Y-49309610D01*
X84034471Y-49309612D01*
X84010247Y-49327800D01*
X83859965Y-49440635D01*
X83705629Y-49602138D01*
X83598201Y-49759621D01*
X83543293Y-49804621D01*
X83472768Y-49812792D01*
X83409021Y-49781538D01*
X83388324Y-49757054D01*
X83307822Y-49632617D01*
X83307820Y-49632614D01*
X83305014Y-49628277D01*
X83154670Y-49463051D01*
X83150619Y-49459852D01*
X83150615Y-49459848D01*
X82983414Y-49327800D01*
X82983410Y-49327798D01*
X82979359Y-49324598D01*
X82943028Y-49304542D01*
X82927136Y-49295769D01*
X82783789Y-49216638D01*
X82778920Y-49214914D01*
X82778916Y-49214912D01*
X82578087Y-49143795D01*
X82578083Y-49143794D01*
X82573212Y-49142069D01*
X82568119Y-49141162D01*
X82568116Y-49141161D01*
X82358373Y-49103800D01*
X82358367Y-49103799D01*
X82353284Y-49102894D01*
X82279452Y-49101992D01*
X82135081Y-49100228D01*
X82135079Y-49100228D01*
X82129911Y-49100165D01*
X81909091Y-49133955D01*
X81696756Y-49203357D01*
X81498607Y-49306507D01*
X81494474Y-49309610D01*
X81494471Y-49309612D01*
X81470247Y-49327800D01*
X81319965Y-49440635D01*
X81165629Y-49602138D01*
X81058201Y-49759621D01*
X81003293Y-49804621D01*
X80932768Y-49812792D01*
X80869021Y-49781538D01*
X80848324Y-49757054D01*
X80767822Y-49632617D01*
X80767820Y-49632614D01*
X80765014Y-49628277D01*
X80614670Y-49463051D01*
X80610619Y-49459852D01*
X80610615Y-49459848D01*
X80443414Y-49327800D01*
X80443410Y-49327798D01*
X80439359Y-49324598D01*
X80403028Y-49304542D01*
X80387136Y-49295769D01*
X80243789Y-49216638D01*
X80238920Y-49214914D01*
X80238916Y-49214912D01*
X80038087Y-49143795D01*
X80038083Y-49143794D01*
X80033212Y-49142069D01*
X80028119Y-49141162D01*
X80028116Y-49141161D01*
X79818373Y-49103800D01*
X79818367Y-49103799D01*
X79813284Y-49102894D01*
X79739452Y-49101992D01*
X79595081Y-49100228D01*
X79595079Y-49100228D01*
X79589911Y-49100165D01*
X79369091Y-49133955D01*
X79156756Y-49203357D01*
X78958607Y-49306507D01*
X78954474Y-49309610D01*
X78954471Y-49309612D01*
X78930247Y-49327800D01*
X78779965Y-49440635D01*
X78625629Y-49602138D01*
X78518201Y-49759621D01*
X78463293Y-49804621D01*
X78392768Y-49812792D01*
X78329021Y-49781538D01*
X78308324Y-49757054D01*
X78227822Y-49632617D01*
X78227820Y-49632614D01*
X78225014Y-49628277D01*
X78074670Y-49463051D01*
X78070619Y-49459852D01*
X78070615Y-49459848D01*
X77903414Y-49327800D01*
X77903410Y-49327798D01*
X77899359Y-49324598D01*
X77863028Y-49304542D01*
X77847136Y-49295769D01*
X77703789Y-49216638D01*
X77698920Y-49214914D01*
X77698916Y-49214912D01*
X77498087Y-49143795D01*
X77498083Y-49143794D01*
X77493212Y-49142069D01*
X77488119Y-49141162D01*
X77488116Y-49141161D01*
X77278373Y-49103800D01*
X77278367Y-49103799D01*
X77273284Y-49102894D01*
X77199452Y-49101992D01*
X77055081Y-49100228D01*
X77055079Y-49100228D01*
X77049911Y-49100165D01*
X76829091Y-49133955D01*
X76616756Y-49203357D01*
X76418607Y-49306507D01*
X76414474Y-49309610D01*
X76414471Y-49309612D01*
X76390247Y-49327800D01*
X76239965Y-49440635D01*
X76085629Y-49602138D01*
X75978201Y-49759621D01*
X75923293Y-49804621D01*
X75852768Y-49812792D01*
X75789021Y-49781538D01*
X75768324Y-49757054D01*
X75687822Y-49632617D01*
X75687820Y-49632614D01*
X75685014Y-49628277D01*
X75534670Y-49463051D01*
X75530619Y-49459852D01*
X75530615Y-49459848D01*
X75363414Y-49327800D01*
X75363410Y-49327798D01*
X75359359Y-49324598D01*
X75323028Y-49304542D01*
X75307136Y-49295769D01*
X75163789Y-49216638D01*
X75158920Y-49214914D01*
X75158916Y-49214912D01*
X74958087Y-49143795D01*
X74958083Y-49143794D01*
X74953212Y-49142069D01*
X74948119Y-49141162D01*
X74948116Y-49141161D01*
X74738373Y-49103800D01*
X74738367Y-49103799D01*
X74733284Y-49102894D01*
X74659452Y-49101992D01*
X74515081Y-49100228D01*
X74515079Y-49100228D01*
X74509911Y-49100165D01*
X74289091Y-49133955D01*
X74076756Y-49203357D01*
X73878607Y-49306507D01*
X73874474Y-49309610D01*
X73874471Y-49309612D01*
X73850247Y-49327800D01*
X73699965Y-49440635D01*
X73545629Y-49602138D01*
X73438201Y-49759621D01*
X73383293Y-49804621D01*
X73312768Y-49812792D01*
X73249021Y-49781538D01*
X73228324Y-49757054D01*
X73147822Y-49632617D01*
X73147820Y-49632614D01*
X73145014Y-49628277D01*
X72994670Y-49463051D01*
X72990619Y-49459852D01*
X72990615Y-49459848D01*
X72823414Y-49327800D01*
X72823410Y-49327798D01*
X72819359Y-49324598D01*
X72783028Y-49304542D01*
X72767136Y-49295769D01*
X72623789Y-49216638D01*
X72618920Y-49214914D01*
X72618916Y-49214912D01*
X72418087Y-49143795D01*
X72418083Y-49143794D01*
X72413212Y-49142069D01*
X72408119Y-49141162D01*
X72408116Y-49141161D01*
X72198373Y-49103800D01*
X72198367Y-49103799D01*
X72193284Y-49102894D01*
X72119452Y-49101992D01*
X71975081Y-49100228D01*
X71975079Y-49100228D01*
X71969911Y-49100165D01*
X71749091Y-49133955D01*
X71536756Y-49203357D01*
X71338607Y-49306507D01*
X71334474Y-49309610D01*
X71334471Y-49309612D01*
X71310247Y-49327800D01*
X71159965Y-49440635D01*
X71005629Y-49602138D01*
X70898201Y-49759621D01*
X70843293Y-49804621D01*
X70772768Y-49812792D01*
X70709021Y-49781538D01*
X70688324Y-49757054D01*
X70607822Y-49632617D01*
X70607820Y-49632614D01*
X70605014Y-49628277D01*
X70454670Y-49463051D01*
X70450619Y-49459852D01*
X70450615Y-49459848D01*
X70283414Y-49327800D01*
X70283410Y-49327798D01*
X70279359Y-49324598D01*
X70243028Y-49304542D01*
X70227136Y-49295769D01*
X70083789Y-49216638D01*
X70078920Y-49214914D01*
X70078916Y-49214912D01*
X69878087Y-49143795D01*
X69878083Y-49143794D01*
X69873212Y-49142069D01*
X69868119Y-49141162D01*
X69868116Y-49141161D01*
X69658373Y-49103800D01*
X69658367Y-49103799D01*
X69653284Y-49102894D01*
X69579452Y-49101992D01*
X69435081Y-49100228D01*
X69435079Y-49100228D01*
X69429911Y-49100165D01*
X69209091Y-49133955D01*
X68996756Y-49203357D01*
X68798607Y-49306507D01*
X68794474Y-49309610D01*
X68794471Y-49309612D01*
X68770247Y-49327800D01*
X68619965Y-49440635D01*
X68465629Y-49602138D01*
X68462720Y-49606403D01*
X68462714Y-49606411D01*
X68450404Y-49624457D01*
X68339743Y-49786680D01*
X68245688Y-49989305D01*
X68185989Y-50204570D01*
X68162251Y-50426695D01*
X68175110Y-50649715D01*
X68176247Y-50654761D01*
X68176248Y-50654767D01*
X68189597Y-50714000D01*
X68224222Y-50867639D01*
X68308266Y-51074616D01*
X68358863Y-51157183D01*
X68422291Y-51260688D01*
X68424987Y-51265088D01*
X68571250Y-51433938D01*
X68575230Y-51437242D01*
X68579981Y-51441187D01*
X68619616Y-51500090D01*
X68621113Y-51571071D01*
X68583997Y-51631593D01*
X68543725Y-51656112D01*
X68496129Y-51673955D01*
X68428295Y-51699385D01*
X68311739Y-51786739D01*
X68224385Y-51903295D01*
X68173255Y-52039684D01*
X68166500Y-52101866D01*
X68166500Y-53898134D01*
X68173255Y-53960316D01*
X68224385Y-54096705D01*
X68311739Y-54213261D01*
X68428295Y-54300615D01*
X68564684Y-54351745D01*
X68626866Y-54358500D01*
X69687918Y-54358500D01*
X69756039Y-54378502D01*
X69777013Y-54395405D01*
X74961666Y-59580058D01*
X74962594Y-59580995D01*
X75025671Y-59645407D01*
X75062121Y-59668898D01*
X75072446Y-59676317D01*
X75106343Y-59703376D01*
X75112684Y-59706441D01*
X75112685Y-59706442D01*
X75136537Y-59717972D01*
X75149954Y-59725501D01*
X75178138Y-59743665D01*
X75184755Y-59746073D01*
X75184760Y-59746076D01*
X75218873Y-59758492D01*
X75230616Y-59763453D01*
X75263303Y-59779254D01*
X75263308Y-59779256D01*
X75269649Y-59782321D01*
X75276507Y-59783904D01*
X75276509Y-59783905D01*
X75302326Y-59789865D01*
X75317069Y-59794232D01*
X75348585Y-59805703D01*
X75355575Y-59806586D01*
X75355583Y-59806588D01*
X75391601Y-59811138D01*
X75404153Y-59813374D01*
X75439514Y-59821538D01*
X75439517Y-59821538D01*
X75446385Y-59823124D01*
X75453431Y-59823149D01*
X75453434Y-59823149D01*
X75486956Y-59823266D01*
X75487838Y-59823295D01*
X75488669Y-59823400D01*
X75525319Y-59823400D01*
X75525759Y-59823401D01*
X75624243Y-59823745D01*
X75624248Y-59823745D01*
X75627770Y-59823757D01*
X75628970Y-59823489D01*
X75630607Y-59823400D01*
X78127818Y-59823400D01*
X78195939Y-59843402D01*
X78216913Y-59860305D01*
X82349119Y-63992511D01*
X82383145Y-64054823D01*
X82378080Y-64125638D01*
X82335533Y-64182474D01*
X82281902Y-64205692D01*
X82266690Y-64208374D01*
X82056239Y-64264764D01*
X82045947Y-64268510D01*
X81848489Y-64360586D01*
X81838994Y-64366069D01*
X81786952Y-64402509D01*
X81778576Y-64412988D01*
X81785644Y-64426434D01*
X83574287Y-66215077D01*
X83586062Y-66221507D01*
X83598077Y-66212211D01*
X83633934Y-66161002D01*
X83640591Y-66149472D01*
X83691973Y-66100479D01*
X83761687Y-66087042D01*
X83827598Y-66113429D01*
X83858829Y-66149472D01*
X83860153Y-66151765D01*
X83862477Y-66156749D01*
X83884628Y-66188384D01*
X83983575Y-66329694D01*
X83993802Y-66344300D01*
X84086003Y-66436501D01*
X84120029Y-66498813D01*
X84114964Y-66569628D01*
X84086003Y-66614691D01*
X83276142Y-67424552D01*
X83267862Y-67432087D01*
X83261382Y-67436200D01*
X83233063Y-67466357D01*
X83214757Y-67485851D01*
X83212002Y-67488693D01*
X83192265Y-67508430D01*
X83189785Y-67511627D01*
X83182082Y-67520647D01*
X83151814Y-67552879D01*
X83147995Y-67559825D01*
X83147993Y-67559828D01*
X83142052Y-67570634D01*
X83131201Y-67587153D01*
X83118786Y-67603159D01*
X83115641Y-67610428D01*
X83115638Y-67610432D01*
X83101226Y-67643737D01*
X83096009Y-67654387D01*
X83074705Y-67693140D01*
X83072734Y-67700815D01*
X83072734Y-67700816D01*
X83069667Y-67712762D01*
X83063263Y-67731466D01*
X83055219Y-67750055D01*
X83053980Y-67757878D01*
X83053977Y-67757888D01*
X83048301Y-67793724D01*
X83045895Y-67805344D01*
X83034900Y-67848170D01*
X83034900Y-67868424D01*
X83033349Y-67888134D01*
X83030180Y-67908143D01*
X83030926Y-67916035D01*
X83034341Y-67952161D01*
X83034900Y-67964019D01*
X83034900Y-76372233D01*
X83034373Y-76383416D01*
X83032698Y-76390909D01*
X83032947Y-76398835D01*
X83032947Y-76398836D01*
X83034838Y-76458986D01*
X83034900Y-76462945D01*
X83034900Y-76490856D01*
X83035397Y-76494790D01*
X83035397Y-76494791D01*
X83035405Y-76494856D01*
X83036338Y-76506693D01*
X83037727Y-76550889D01*
X83043378Y-76570339D01*
X83047387Y-76589700D01*
X83047897Y-76593733D01*
X83049926Y-76609797D01*
X83052845Y-76617168D01*
X83052845Y-76617170D01*
X83066204Y-76650912D01*
X83070049Y-76662142D01*
X83072197Y-76669534D01*
X83082382Y-76704593D01*
X83086415Y-76711412D01*
X83086417Y-76711417D01*
X83092693Y-76722028D01*
X83101388Y-76739776D01*
X83108848Y-76758617D01*
X83113510Y-76765033D01*
X83113510Y-76765034D01*
X83134836Y-76794387D01*
X83141352Y-76804307D01*
X83163858Y-76842362D01*
X83178179Y-76856683D01*
X83191019Y-76871716D01*
X83202928Y-76888107D01*
X83209034Y-76893158D01*
X83237005Y-76916298D01*
X83245784Y-76924288D01*
X83823904Y-77502408D01*
X83857930Y-77564720D01*
X83852865Y-77635535D01*
X83823904Y-77680598D01*
X83813802Y-77690700D01*
X83810645Y-77695208D01*
X83810643Y-77695211D01*
X83721445Y-77822599D01*
X83682477Y-77878251D01*
X83681272Y-77877407D01*
X83634892Y-77921639D01*
X83565180Y-77935082D01*
X83499266Y-77908701D01*
X83488050Y-77898746D01*
X81284347Y-75695042D01*
X78995705Y-73406400D01*
X78961679Y-73344088D01*
X78958800Y-73317305D01*
X78958800Y-70422967D01*
X78959327Y-70411784D01*
X78961002Y-70404291D01*
X78958862Y-70336200D01*
X78958800Y-70332243D01*
X78958800Y-70304344D01*
X78958296Y-70300353D01*
X78957363Y-70288511D01*
X78957106Y-70280310D01*
X78955974Y-70244311D01*
X78953762Y-70236697D01*
X78953761Y-70236692D01*
X78950323Y-70224859D01*
X78946312Y-70205495D01*
X78944767Y-70193264D01*
X78943774Y-70185403D01*
X78940857Y-70178036D01*
X78940856Y-70178031D01*
X78927498Y-70144292D01*
X78923654Y-70133065D01*
X78913530Y-70098222D01*
X78911318Y-70090607D01*
X78901007Y-70073172D01*
X78892312Y-70055424D01*
X78884852Y-70036583D01*
X78862285Y-70005521D01*
X78858864Y-70000813D01*
X78852348Y-69990893D01*
X78833880Y-69959665D01*
X78833878Y-69959662D01*
X78829842Y-69952838D01*
X78815521Y-69938517D01*
X78802680Y-69923483D01*
X78795431Y-69913506D01*
X78790772Y-69907093D01*
X78784667Y-69902042D01*
X78784662Y-69902037D01*
X78756702Y-69878906D01*
X78747924Y-69870919D01*
X78621799Y-69744794D01*
X78462708Y-69585704D01*
X78428683Y-69523391D01*
X78433747Y-69452576D01*
X78441284Y-69436097D01*
X78445229Y-69428891D01*
X78450615Y-69421705D01*
X78501745Y-69285316D01*
X78508500Y-69223134D01*
X78508500Y-67526866D01*
X78501745Y-67464684D01*
X78450615Y-67328295D01*
X78363261Y-67211739D01*
X78246705Y-67124385D01*
X78110316Y-67073255D01*
X78048134Y-67066500D01*
X76351866Y-67066500D01*
X76289684Y-67073255D01*
X76153295Y-67124385D01*
X76036739Y-67211739D01*
X76001263Y-67259075D01*
X75985904Y-67279568D01*
X75929045Y-67322083D01*
X75853743Y-67326044D01*
X75835133Y-67321266D01*
X75816434Y-67314863D01*
X75805120Y-67309967D01*
X75805119Y-67309967D01*
X75797845Y-67306819D01*
X75790022Y-67305580D01*
X75790012Y-67305577D01*
X75754176Y-67299901D01*
X75742556Y-67297495D01*
X75707411Y-67288472D01*
X75707410Y-67288472D01*
X75699730Y-67286500D01*
X75679476Y-67286500D01*
X75659765Y-67284949D01*
X75647586Y-67283020D01*
X75639757Y-67281780D01*
X75631865Y-67282526D01*
X75595739Y-67285941D01*
X75583881Y-67286500D01*
X73219394Y-67286500D01*
X73151273Y-67266498D01*
X73116181Y-67232771D01*
X73009357Y-67080211D01*
X73009355Y-67080208D01*
X73006198Y-67075700D01*
X72844300Y-66913802D01*
X72839792Y-66910645D01*
X72839789Y-66910643D01*
X72726058Y-66831008D01*
X72656749Y-66782477D01*
X72651767Y-66780154D01*
X72651762Y-66780151D01*
X72454225Y-66688039D01*
X72454224Y-66688039D01*
X72449243Y-66685716D01*
X72443935Y-66684294D01*
X72443933Y-66684293D01*
X72233402Y-66627881D01*
X72233400Y-66627881D01*
X72228087Y-66626457D01*
X72000000Y-66606502D01*
X71771913Y-66626457D01*
X71766600Y-66627881D01*
X71766598Y-66627881D01*
X71556067Y-66684293D01*
X71556065Y-66684294D01*
X71550757Y-66685716D01*
X71545776Y-66688039D01*
X71545775Y-66688039D01*
X71348238Y-66780151D01*
X71348233Y-66780154D01*
X71343251Y-66782477D01*
X71273942Y-66831008D01*
X71160211Y-66910643D01*
X71160208Y-66910645D01*
X71155700Y-66913802D01*
X70993802Y-67075700D01*
X70862477Y-67263251D01*
X70860154Y-67268233D01*
X70860151Y-67268238D01*
X70779409Y-67441392D01*
X70765716Y-67470757D01*
X70764294Y-67476065D01*
X70764293Y-67476067D01*
X70731916Y-67596899D01*
X70706457Y-67691913D01*
X70686502Y-67920000D01*
X70706457Y-68148087D01*
X70707881Y-68153400D01*
X70707881Y-68153402D01*
X70752085Y-68318372D01*
X70750395Y-68389348D01*
X70710601Y-68448144D01*
X70645337Y-68476092D01*
X70575323Y-68464319D01*
X70541283Y-68440078D01*
X69628952Y-67527747D01*
X69621412Y-67519461D01*
X69617300Y-67512982D01*
X69567648Y-67466356D01*
X69564807Y-67463602D01*
X69545070Y-67443865D01*
X69541873Y-67441385D01*
X69532851Y-67433680D01*
X69506400Y-67408841D01*
X69500621Y-67403414D01*
X69493675Y-67399595D01*
X69493672Y-67399593D01*
X69482866Y-67393652D01*
X69466347Y-67382801D01*
X69465883Y-67382441D01*
X69450341Y-67370386D01*
X69443072Y-67367241D01*
X69443068Y-67367238D01*
X69409763Y-67352826D01*
X69399113Y-67347609D01*
X69360360Y-67326305D01*
X69340737Y-67321267D01*
X69322034Y-67314863D01*
X69310720Y-67309967D01*
X69310719Y-67309967D01*
X69303445Y-67306819D01*
X69295622Y-67305580D01*
X69295612Y-67305577D01*
X69259776Y-67299901D01*
X69248156Y-67297495D01*
X69213011Y-67288472D01*
X69213010Y-67288472D01*
X69205330Y-67286500D01*
X69202777Y-67286500D01*
X69139892Y-67259075D01*
X69117545Y-67234720D01*
X69116181Y-67232771D01*
X69006198Y-67075700D01*
X68844300Y-66913802D01*
X68839792Y-66910645D01*
X68839789Y-66910643D01*
X68726058Y-66831008D01*
X68656749Y-66782477D01*
X68651767Y-66780154D01*
X68651762Y-66780151D01*
X68454225Y-66688039D01*
X68454224Y-66688039D01*
X68449243Y-66685716D01*
X68443935Y-66684294D01*
X68443933Y-66684293D01*
X68233402Y-66627881D01*
X68233400Y-66627881D01*
X68228087Y-66626457D01*
X68000000Y-66606502D01*
X67771913Y-66626457D01*
X67766600Y-66627881D01*
X67766598Y-66627881D01*
X67556067Y-66684293D01*
X67556065Y-66684294D01*
X67550757Y-66685716D01*
X67545776Y-66688039D01*
X67545775Y-66688039D01*
X67348238Y-66780151D01*
X67348233Y-66780154D01*
X67343251Y-66782477D01*
X67273942Y-66831008D01*
X67160211Y-66910643D01*
X67160208Y-66910645D01*
X67155700Y-66913802D01*
X66993802Y-67075700D01*
X66862477Y-67263251D01*
X66860154Y-67268233D01*
X66860151Y-67268238D01*
X66779409Y-67441392D01*
X66765716Y-67470757D01*
X66764294Y-67476065D01*
X66764293Y-67476067D01*
X66731916Y-67596899D01*
X66706457Y-67691913D01*
X66686502Y-67920000D01*
X66706457Y-68148087D01*
X66765716Y-68369243D01*
X66768039Y-68374224D01*
X66768039Y-68374225D01*
X66860151Y-68571762D01*
X66860154Y-68571767D01*
X66862477Y-68576749D01*
X66935902Y-68681611D01*
X66966004Y-68724600D01*
X66993802Y-68764300D01*
X67155700Y-68926198D01*
X67160208Y-68929355D01*
X67160211Y-68929357D01*
X67199598Y-68956936D01*
X67343251Y-69057523D01*
X67348233Y-69059846D01*
X67348238Y-69059849D01*
X67533247Y-69146119D01*
X67550757Y-69154284D01*
X67556065Y-69155706D01*
X67556067Y-69155707D01*
X67766598Y-69212119D01*
X67766600Y-69212119D01*
X67771913Y-69213543D01*
X68000000Y-69233498D01*
X68228087Y-69213543D01*
X68233400Y-69212119D01*
X68233402Y-69212119D01*
X68443933Y-69155707D01*
X68443935Y-69155706D01*
X68449243Y-69154284D01*
X68466753Y-69146119D01*
X68651762Y-69059849D01*
X68651767Y-69059846D01*
X68656749Y-69057523D01*
X68800402Y-68956936D01*
X68839789Y-68929357D01*
X68839792Y-68929355D01*
X68844300Y-68926198D01*
X68950852Y-68819646D01*
X69013164Y-68785620D01*
X69083979Y-68790685D01*
X69129042Y-68819646D01*
X71644365Y-71334970D01*
X74156648Y-73847253D01*
X74164188Y-73855539D01*
X74168300Y-73862018D01*
X74174077Y-73867443D01*
X74217951Y-73908643D01*
X74220793Y-73911398D01*
X74240530Y-73931135D01*
X74243727Y-73933615D01*
X74252747Y-73941318D01*
X74284979Y-73971586D01*
X74291925Y-73975405D01*
X74291928Y-73975407D01*
X74302734Y-73981348D01*
X74319253Y-73992199D01*
X74335259Y-74004614D01*
X74342528Y-74007759D01*
X74342532Y-74007762D01*
X74375837Y-74022174D01*
X74386487Y-74027391D01*
X74425240Y-74048695D01*
X74432915Y-74050666D01*
X74432916Y-74050666D01*
X74444862Y-74053733D01*
X74463567Y-74060137D01*
X74482155Y-74068181D01*
X74489978Y-74069420D01*
X74489988Y-74069423D01*
X74525824Y-74075099D01*
X74537444Y-74077505D01*
X74572589Y-74086528D01*
X74580270Y-74088500D01*
X74600524Y-74088500D01*
X74620234Y-74090051D01*
X74640243Y-74093220D01*
X74648135Y-74092474D01*
X74684261Y-74089059D01*
X74696119Y-74088500D01*
X75980606Y-74088500D01*
X76048727Y-74108502D01*
X76083819Y-74142229D01*
X76116150Y-74188402D01*
X76193802Y-74299300D01*
X76355700Y-74461198D01*
X76360208Y-74464355D01*
X76360211Y-74464357D01*
X76438389Y-74519098D01*
X76543251Y-74592523D01*
X76548233Y-74594846D01*
X76548238Y-74594849D01*
X76582457Y-74610805D01*
X76635742Y-74657722D01*
X76655203Y-74725999D01*
X76634661Y-74793959D01*
X76582457Y-74839195D01*
X76548238Y-74855151D01*
X76548233Y-74855154D01*
X76543251Y-74857477D01*
X76438389Y-74930902D01*
X76360211Y-74985643D01*
X76360208Y-74985645D01*
X76355700Y-74988802D01*
X76193802Y-75150700D01*
X76190645Y-75155208D01*
X76190643Y-75155211D01*
X76083819Y-75307771D01*
X76028362Y-75352099D01*
X75980606Y-75361500D01*
X73014894Y-75361500D01*
X72946773Y-75341498D01*
X72925799Y-75324595D01*
X69035161Y-71433956D01*
X65128952Y-67527747D01*
X65121412Y-67519461D01*
X65117300Y-67512982D01*
X65067648Y-67466356D01*
X65064807Y-67463602D01*
X65045070Y-67443865D01*
X65041873Y-67441385D01*
X65032851Y-67433680D01*
X65006400Y-67408841D01*
X65000621Y-67403414D01*
X64993675Y-67399595D01*
X64993672Y-67399593D01*
X64982866Y-67393652D01*
X64966347Y-67382801D01*
X64965883Y-67382441D01*
X64950341Y-67370386D01*
X64943072Y-67367241D01*
X64943068Y-67367238D01*
X64909763Y-67352826D01*
X64899113Y-67347609D01*
X64860360Y-67326305D01*
X64840737Y-67321267D01*
X64822034Y-67314863D01*
X64810720Y-67309967D01*
X64810719Y-67309967D01*
X64803445Y-67306819D01*
X64795622Y-67305580D01*
X64795612Y-67305577D01*
X64759776Y-67299901D01*
X64748156Y-67297495D01*
X64713011Y-67288472D01*
X64713010Y-67288472D01*
X64705330Y-67286500D01*
X64702777Y-67286500D01*
X64639892Y-67259075D01*
X64617545Y-67234720D01*
X64616181Y-67232771D01*
X64506198Y-67075700D01*
X64344300Y-66913802D01*
X64339792Y-66910645D01*
X64339789Y-66910643D01*
X64226058Y-66831008D01*
X64156749Y-66782477D01*
X64151767Y-66780154D01*
X64151762Y-66780151D01*
X63954225Y-66688039D01*
X63954224Y-66688039D01*
X63949243Y-66685716D01*
X63943935Y-66684294D01*
X63943933Y-66684293D01*
X63733402Y-66627881D01*
X63733400Y-66627881D01*
X63728087Y-66626457D01*
X63500000Y-66606502D01*
X63271913Y-66626457D01*
X63266600Y-66627881D01*
X63266598Y-66627881D01*
X63056067Y-66684293D01*
X63056065Y-66684294D01*
X63050757Y-66685716D01*
X63045776Y-66688039D01*
X63045775Y-66688039D01*
X62848238Y-66780151D01*
X62848233Y-66780154D01*
X62843251Y-66782477D01*
X62773942Y-66831008D01*
X62660211Y-66910643D01*
X62660208Y-66910645D01*
X62655700Y-66913802D01*
X62493802Y-67075700D01*
X62362477Y-67263251D01*
X62360154Y-67268233D01*
X62360151Y-67268238D01*
X62279409Y-67441392D01*
X62265716Y-67470757D01*
X62264294Y-67476065D01*
X62264293Y-67476067D01*
X62231916Y-67596899D01*
X62206457Y-67691913D01*
X62186502Y-67920000D01*
X50508500Y-67920000D01*
X50508500Y-66586062D01*
X81778493Y-66586062D01*
X81787789Y-66598077D01*
X81838994Y-66633931D01*
X81848489Y-66639414D01*
X82045947Y-66731490D01*
X82056239Y-66735236D01*
X82266688Y-66791625D01*
X82277481Y-66793528D01*
X82494525Y-66812517D01*
X82505475Y-66812517D01*
X82722519Y-66793528D01*
X82733312Y-66791625D01*
X82943761Y-66735236D01*
X82954053Y-66731490D01*
X83151511Y-66639414D01*
X83161006Y-66633931D01*
X83213048Y-66597491D01*
X83221424Y-66587012D01*
X83214356Y-66573566D01*
X82512812Y-65872022D01*
X82498868Y-65864408D01*
X82497035Y-65864539D01*
X82490420Y-65868790D01*
X81784923Y-66574287D01*
X81778493Y-66586062D01*
X50508500Y-66586062D01*
X50508500Y-65505475D01*
X81187483Y-65505475D01*
X81206472Y-65722519D01*
X81208375Y-65733312D01*
X81264764Y-65943761D01*
X81268510Y-65954053D01*
X81360586Y-66151511D01*
X81366069Y-66161006D01*
X81402509Y-66213048D01*
X81412988Y-66221424D01*
X81426434Y-66214356D01*
X82127978Y-65512812D01*
X82135592Y-65498868D01*
X82135461Y-65497035D01*
X82131210Y-65490420D01*
X81425713Y-64784923D01*
X81413938Y-64778493D01*
X81401923Y-64787789D01*
X81366069Y-64838994D01*
X81360586Y-64848489D01*
X81268510Y-65045947D01*
X81264764Y-65056239D01*
X81208375Y-65266688D01*
X81206472Y-65277481D01*
X81187483Y-65494525D01*
X81187483Y-65505475D01*
X50508500Y-65505475D01*
X50508500Y-55586062D01*
X56483593Y-55586062D01*
X56492889Y-55598077D01*
X56544094Y-55633931D01*
X56553589Y-55639414D01*
X56751047Y-55731490D01*
X56761339Y-55735236D01*
X56971788Y-55791625D01*
X56982581Y-55793528D01*
X57199625Y-55812517D01*
X57210575Y-55812517D01*
X57427619Y-55793528D01*
X57438412Y-55791625D01*
X57648861Y-55735236D01*
X57659153Y-55731490D01*
X57856611Y-55639414D01*
X57866106Y-55633931D01*
X57918148Y-55597491D01*
X57926524Y-55587012D01*
X57919456Y-55573566D01*
X57217912Y-54872022D01*
X57203968Y-54864408D01*
X57202135Y-54864539D01*
X57195520Y-54868790D01*
X56490023Y-55574287D01*
X56483593Y-55586062D01*
X50508500Y-55586062D01*
X50508500Y-54505475D01*
X55892583Y-54505475D01*
X55911572Y-54722519D01*
X55913475Y-54733312D01*
X55969864Y-54943761D01*
X55973610Y-54954053D01*
X56065686Y-55151511D01*
X56071169Y-55161006D01*
X56107609Y-55213048D01*
X56118088Y-55221424D01*
X56131534Y-55214356D01*
X56833078Y-54512812D01*
X56839456Y-54501132D01*
X57569508Y-54501132D01*
X57569639Y-54502965D01*
X57573890Y-54509580D01*
X58279387Y-55215077D01*
X58321129Y-55237871D01*
X58331129Y-55240047D01*
X58381327Y-55290253D01*
X58396551Y-55343814D01*
X58396600Y-55344717D01*
X58396600Y-55348134D01*
X58403355Y-55410316D01*
X58454485Y-55546705D01*
X58541839Y-55663261D01*
X58658395Y-55750615D01*
X58794784Y-55801745D01*
X58856966Y-55808500D01*
X60553234Y-55808500D01*
X60615416Y-55801745D01*
X60751805Y-55750615D01*
X60868361Y-55663261D01*
X60955715Y-55546705D01*
X61006845Y-55410316D01*
X61013600Y-55348134D01*
X61013600Y-53651866D01*
X61006845Y-53589684D01*
X60955715Y-53453295D01*
X60868361Y-53336739D01*
X60751805Y-53249385D01*
X60615416Y-53198255D01*
X60553234Y-53191500D01*
X58856966Y-53191500D01*
X58794784Y-53198255D01*
X58658395Y-53249385D01*
X58541839Y-53336739D01*
X58454485Y-53453295D01*
X58403355Y-53589684D01*
X58396600Y-53651866D01*
X58396600Y-53655185D01*
X58372947Y-53722110D01*
X58326944Y-53757804D01*
X58327959Y-53759734D01*
X58317100Y-53765442D01*
X58316855Y-53765632D01*
X58316697Y-53765653D01*
X58278666Y-53785644D01*
X57577122Y-54487188D01*
X57569508Y-54501132D01*
X56839456Y-54501132D01*
X56840692Y-54498868D01*
X56840561Y-54497035D01*
X56836310Y-54490420D01*
X56130813Y-53784923D01*
X56119038Y-53778493D01*
X56107023Y-53787789D01*
X56071169Y-53838994D01*
X56065686Y-53848489D01*
X55973610Y-54045947D01*
X55969864Y-54056239D01*
X55913475Y-54266688D01*
X55911572Y-54277481D01*
X55892583Y-54494525D01*
X55892583Y-54505475D01*
X50508500Y-54505475D01*
X50508500Y-53412988D01*
X56483676Y-53412988D01*
X56490744Y-53426434D01*
X57192288Y-54127978D01*
X57206232Y-54135592D01*
X57208065Y-54135461D01*
X57214680Y-54131210D01*
X57920177Y-53425713D01*
X57926607Y-53413938D01*
X57917311Y-53401923D01*
X57866106Y-53366069D01*
X57856611Y-53360586D01*
X57659153Y-53268510D01*
X57648861Y-53264764D01*
X57438412Y-53208375D01*
X57427619Y-53206472D01*
X57210575Y-53187483D01*
X57199625Y-53187483D01*
X56982581Y-53206472D01*
X56971788Y-53208375D01*
X56761339Y-53264764D01*
X56751047Y-53268510D01*
X56553589Y-53360586D01*
X56544094Y-53366069D01*
X56492052Y-53402509D01*
X56483676Y-53412988D01*
X50508500Y-53412988D01*
X50508500Y-44632703D01*
X53390743Y-44632703D01*
X53428268Y-44917734D01*
X53504129Y-45195036D01*
X53616923Y-45459476D01*
X53764561Y-45706161D01*
X53944313Y-45930528D01*
X54152851Y-46128423D01*
X54386317Y-46296186D01*
X54390112Y-46298195D01*
X54390113Y-46298196D01*
X54411869Y-46309715D01*
X54640392Y-46430712D01*
X54910373Y-46529511D01*
X55191264Y-46590755D01*
X55219841Y-46593004D01*
X55414282Y-46608307D01*
X55414291Y-46608307D01*
X55416739Y-46608500D01*
X55572271Y-46608500D01*
X55574407Y-46608354D01*
X55574418Y-46608354D01*
X55782548Y-46594165D01*
X55782554Y-46594164D01*
X55786825Y-46593873D01*
X55791020Y-46593004D01*
X55791022Y-46593004D01*
X55927583Y-46564724D01*
X56068342Y-46535574D01*
X56339343Y-46439607D01*
X56594812Y-46307750D01*
X56598313Y-46305289D01*
X56598317Y-46305287D01*
X56712418Y-46225095D01*
X56830023Y-46142441D01*
X57040622Y-45946740D01*
X57222713Y-45724268D01*
X57372927Y-45479142D01*
X57488483Y-45215898D01*
X57567244Y-44939406D01*
X57607751Y-44654784D01*
X57607845Y-44636951D01*
X57607867Y-44632703D01*
X142390743Y-44632703D01*
X142428268Y-44917734D01*
X142504129Y-45195036D01*
X142616923Y-45459476D01*
X142764561Y-45706161D01*
X142944313Y-45930528D01*
X143152851Y-46128423D01*
X143386317Y-46296186D01*
X143390112Y-46298195D01*
X143390113Y-46298196D01*
X143411869Y-46309715D01*
X143640392Y-46430712D01*
X143910373Y-46529511D01*
X144191264Y-46590755D01*
X144219841Y-46593004D01*
X144414282Y-46608307D01*
X144414291Y-46608307D01*
X144416739Y-46608500D01*
X144572271Y-46608500D01*
X144574407Y-46608354D01*
X144574418Y-46608354D01*
X144782548Y-46594165D01*
X144782554Y-46594164D01*
X144786825Y-46593873D01*
X144791020Y-46593004D01*
X144791022Y-46593004D01*
X144927583Y-46564724D01*
X145068342Y-46535574D01*
X145339343Y-46439607D01*
X145594812Y-46307750D01*
X145598313Y-46305289D01*
X145598317Y-46305287D01*
X145712418Y-46225095D01*
X145830023Y-46142441D01*
X146040622Y-45946740D01*
X146222713Y-45724268D01*
X146372927Y-45479142D01*
X146488483Y-45215898D01*
X146567244Y-44939406D01*
X146607751Y-44654784D01*
X146607845Y-44636951D01*
X146609235Y-44371583D01*
X146609235Y-44371576D01*
X146609257Y-44367297D01*
X146571732Y-44082266D01*
X146495871Y-43804964D01*
X146383077Y-43540524D01*
X146235439Y-43293839D01*
X146055687Y-43069472D01*
X145847149Y-42871577D01*
X145613683Y-42703814D01*
X145591843Y-42692250D01*
X145568654Y-42679972D01*
X145359608Y-42569288D01*
X145089627Y-42470489D01*
X144808736Y-42409245D01*
X144777685Y-42406801D01*
X144585718Y-42391693D01*
X144585709Y-42391693D01*
X144583261Y-42391500D01*
X144427729Y-42391500D01*
X144425593Y-42391646D01*
X144425582Y-42391646D01*
X144217452Y-42405835D01*
X144217446Y-42405836D01*
X144213175Y-42406127D01*
X144208980Y-42406996D01*
X144208978Y-42406996D01*
X144072416Y-42435277D01*
X143931658Y-42464426D01*
X143660657Y-42560393D01*
X143405188Y-42692250D01*
X143401687Y-42694711D01*
X143401683Y-42694713D01*
X143391594Y-42701804D01*
X143169977Y-42857559D01*
X142959378Y-43053260D01*
X142777287Y-43275732D01*
X142627073Y-43520858D01*
X142511517Y-43784102D01*
X142432756Y-44060594D01*
X142392249Y-44345216D01*
X142392227Y-44349505D01*
X142392226Y-44349512D01*
X142390765Y-44628417D01*
X142390743Y-44632703D01*
X57607867Y-44632703D01*
X57609235Y-44371583D01*
X57609235Y-44371576D01*
X57609257Y-44367297D01*
X57571732Y-44082266D01*
X57495871Y-43804964D01*
X57383077Y-43540524D01*
X57235439Y-43293839D01*
X57055687Y-43069472D01*
X56847149Y-42871577D01*
X56613683Y-42703814D01*
X56591843Y-42692250D01*
X56568654Y-42679972D01*
X56359608Y-42569288D01*
X56089627Y-42470489D01*
X55808736Y-42409245D01*
X55777685Y-42406801D01*
X55585718Y-42391693D01*
X55585709Y-42391693D01*
X55583261Y-42391500D01*
X55427729Y-42391500D01*
X55425593Y-42391646D01*
X55425582Y-42391646D01*
X55217452Y-42405835D01*
X55217446Y-42405836D01*
X55213175Y-42406127D01*
X55208980Y-42406996D01*
X55208978Y-42406996D01*
X55072417Y-42435276D01*
X54931658Y-42464426D01*
X54660657Y-42560393D01*
X54405188Y-42692250D01*
X54401687Y-42694711D01*
X54401683Y-42694713D01*
X54391594Y-42701804D01*
X54169977Y-42857559D01*
X53959378Y-43053260D01*
X53777287Y-43275732D01*
X53627073Y-43520858D01*
X53511517Y-43784102D01*
X53432756Y-44060594D01*
X53392249Y-44345216D01*
X53392227Y-44349505D01*
X53392226Y-44349512D01*
X53390765Y-44628417D01*
X53390743Y-44632703D01*
X50508500Y-44632703D01*
X50508500Y-40634500D01*
X50528502Y-40566379D01*
X50582158Y-40519886D01*
X50634500Y-40508500D01*
X149365500Y-40508500D01*
X149433621Y-40528502D01*
G37*
G04 #@! TD.AperFunction*
M02*
