G04 #@! TF.GenerationSoftware,KiCad,Pcbnew,(6.0.4-0)*
G04 #@! TF.CreationDate,2022-11-05T11:58:53+09:00*
G04 #@! TF.ProjectId,PC8001toSBC8080BUS,50433830-3031-4746-9f53-424338303830,rev?*
G04 #@! TF.SameCoordinates,Original*
G04 #@! TF.FileFunction,Soldermask,Bot*
G04 #@! TF.FilePolarity,Negative*
%FSLAX46Y46*%
G04 Gerber Fmt 4.6, Leading zero omitted, Abs format (unit mm)*
G04 Created by KiCad (PCBNEW (6.0.4-0)) date 2022-11-05 11:58:53*
%MOMM*%
%LPD*%
G01*
G04 APERTURE LIST*
%ADD10R,1.600000X1.600000*%
%ADD11O,1.600000X1.600000*%
%ADD12C,1.600000*%
%ADD13R,1.700000X1.700000*%
%ADD14O,1.700000X1.700000*%
%ADD15C,3.200000*%
G04 APERTURE END LIST*
D10*
X115200000Y-68875000D03*
D11*
X115200000Y-71415000D03*
X115200000Y-73955000D03*
X115200000Y-76495000D03*
X115200000Y-79035000D03*
X115200000Y-81575000D03*
X115200000Y-84115000D03*
X122820000Y-84115000D03*
X122820000Y-81575000D03*
X122820000Y-79035000D03*
X122820000Y-76495000D03*
X122820000Y-73955000D03*
X122820000Y-71415000D03*
X122820000Y-68875000D03*
X84820000Y-68375000D03*
X84820000Y-70915000D03*
X84820000Y-73455000D03*
X84820000Y-75995000D03*
X84820000Y-78535000D03*
X84820000Y-81075000D03*
X84820000Y-83615000D03*
X77200000Y-83615000D03*
X77200000Y-81075000D03*
X77200000Y-78535000D03*
X77200000Y-75995000D03*
X77200000Y-73455000D03*
X77200000Y-70915000D03*
D10*
X77200000Y-68375000D03*
D12*
X63500000Y-78080000D03*
D11*
X63500000Y-67920000D03*
D12*
X72000000Y-67920000D03*
D11*
X72000000Y-78080000D03*
D12*
X68000000Y-78080000D03*
D11*
X68000000Y-67920000D03*
D13*
X69525000Y-53000000D03*
D14*
X69525000Y-50460000D03*
X72065000Y-53000000D03*
X72065000Y-50460000D03*
X74605000Y-53000000D03*
X74605000Y-50460000D03*
X77145000Y-53000000D03*
X77145000Y-50460000D03*
X79685000Y-53000000D03*
X79685000Y-50460000D03*
X82225000Y-53000000D03*
X82225000Y-50460000D03*
X84765000Y-53000000D03*
X84765000Y-50460000D03*
X87305000Y-53000000D03*
X87305000Y-50460000D03*
X89845000Y-53000000D03*
X89845000Y-50460000D03*
X92385000Y-53000000D03*
X92385000Y-50460000D03*
X94925000Y-53000000D03*
X94925000Y-50460000D03*
X97465000Y-53000000D03*
X97465000Y-50460000D03*
X100005000Y-53000000D03*
X100005000Y-50460000D03*
X102545000Y-53000000D03*
X102545000Y-50460000D03*
X105085000Y-53000000D03*
X105085000Y-50460000D03*
X107625000Y-53000000D03*
X107625000Y-50460000D03*
X110165000Y-53000000D03*
X110165000Y-50460000D03*
X112705000Y-53000000D03*
X112705000Y-50460000D03*
X115245000Y-53000000D03*
X115245000Y-50460000D03*
X117785000Y-53000000D03*
X117785000Y-50460000D03*
X120325000Y-53000000D03*
X120325000Y-50460000D03*
X122865000Y-53000000D03*
X122865000Y-50460000D03*
X125405000Y-53000000D03*
X125405000Y-50460000D03*
X127945000Y-53000000D03*
X127945000Y-50460000D03*
X130485000Y-53000000D03*
X130485000Y-50460000D03*
D13*
X124125000Y-101350000D03*
D14*
X124125000Y-103890000D03*
X121585000Y-101350000D03*
X121585000Y-103890000D03*
X119045000Y-101350000D03*
X119045000Y-103890000D03*
X116505000Y-101350000D03*
X116505000Y-103890000D03*
X113965000Y-101350000D03*
X113965000Y-103890000D03*
X111425000Y-101350000D03*
X111425000Y-103890000D03*
X108885000Y-101350000D03*
X108885000Y-103890000D03*
X106345000Y-101350000D03*
X106345000Y-103890000D03*
X103805000Y-101350000D03*
X103805000Y-103890000D03*
X101265000Y-101350000D03*
X101265000Y-103890000D03*
X98725000Y-101350000D03*
X98725000Y-103890000D03*
X96185000Y-101350000D03*
X96185000Y-103890000D03*
X93645000Y-101350000D03*
X93645000Y-103890000D03*
X91105000Y-101350000D03*
X91105000Y-103890000D03*
X88565000Y-101350000D03*
X88565000Y-103890000D03*
X86025000Y-101350000D03*
X86025000Y-103890000D03*
X83485000Y-101350000D03*
X83485000Y-103890000D03*
X80945000Y-101350000D03*
X80945000Y-103890000D03*
X78405000Y-101350000D03*
X78405000Y-103890000D03*
X75865000Y-101350000D03*
X75865000Y-103890000D03*
D15*
X144500000Y-110500000D03*
X55500000Y-44500000D03*
X144500000Y-44500000D03*
X55500000Y-110500000D03*
D10*
X59705100Y-54500000D03*
D12*
X57205100Y-54500000D03*
D10*
X139000000Y-101294900D03*
D12*
X139000000Y-103794900D03*
X123250000Y-66000000D03*
X120750000Y-66000000D03*
X85000000Y-65500000D03*
X82500000Y-65500000D03*
M02*
